<?xml version="1.0"?>
<svg viewBox="0 0 686 1028" xmlns="http://www.w3.org/2000/svg" xmlns:svg="http://www.w3.org/2000/svg">
 <!-- Created with SVG-edit - https://github.com/SVG-Edit/svgedit-->

 <g class="layer">
  <title>Layer 1</title>
  <g id="channel-GM" transform="translate(-210.96)">
   <g id="svg_3" transform="scale(17.58) translate(12,0)">
    <path d="m29.88,22.45c0.89,-1.39 1.5,-2.95 1.77,-4.58c0.07,-0.41 0.12,-0.82 0.14,-1.24l0.03,0c0.55,0 1.07,-0.21 1.46,-0.6c0.38,-0.38 0.6,-0.9 0.6,-1.45c0,-0.54 -0.22,-1.06 -0.6,-1.45c-0.39,-0.38 -0.91,-0.6 -1.46,-0.6c-0.14,0 -0.28,0.01 -0.43,0.04c-0.67,-2.46 -2.09,-4.65 -4.06,-6.27c-1.98,-1.62 -4.4,-2.59 -6.95,-2.77l-0.01,0c0.21,-0.36 0.32,-0.76 0.31,-1.18c0,-0.41 -0.11,-0.82 -0.32,-1.18c-0.2,-0.36 -0.5,-0.65 -0.86,-0.86c-0.36,-0.2 -0.77,-0.31 -1.19,-0.31l0,3.56c-2.48,0.24 -4.83,1.23 -6.74,2.84c-1.91,1.61 -3.29,3.76 -3.95,6.17c-0.14,-0.03 -0.29,-0.05 -0.43,-0.05c-0.54,0 -1.07,0.22 -1.45,0.6c-0.39,0.39 -0.6,0.91 -0.6,1.46c0,0.54 0.21,1.06 0.6,1.45c0.38,0.38 0.91,0.6 1.45,0.6l0.03,0c0.03,0.43 0.07,0.83 0.14,1.24c0.27,1.63 0.88,3.19 1.78,4.59c-3.52,2.2 -6.23,5.47 -7.76,9.32c-1.53,3.85 -1.8,8.09 -0.75,12.1c1.04,4.01 3.33,7.58 6.54,10.2c3.21,2.62 7.18,4.15 11.32,4.36l0,-7.98c-2.97,-0.26 -5.72,-1.66 -7.68,-3.9c-1.95,-2.24 -2.97,-5.15 -2.84,-8.12c0.13,-2.97 1.4,-5.78 3.55,-7.84c2.16,-2.05 5.02,-3.2 7.99,-3.2c2.98,0 5.84,1.15 7.99,3.2c2.15,2.06 3.42,4.87 3.56,7.84c0.13,2.97 -0.89,5.88 -2.85,8.12c-1.96,2.24 -4.71,3.64 -7.67,3.9l0,7.99c4.14,-0.22 8.1,-1.74 11.31,-4.36c3.21,-2.62 5.51,-6.2 6.55,-10.21c1.04,-4.01 0.78,-8.25 -0.75,-12.1c-1.53,-3.86 -4.24,-7.12 -7.75,-9.33l-0.02,0zm-5.82,-11.59c0.24,0 0.48,0.07 0.68,0.21c0.2,0.13 0.35,0.32 0.44,0.54c0.1,0.22 0.12,0.47 0.07,0.7c-0.04,0.24 -0.16,0.45 -0.33,0.62c-0.17,0.17 -0.39,0.29 -0.62,0.33c-0.24,0.05 -0.48,0.03 -0.7,-0.07c-0.22,-0.09 -0.41,-0.24 -0.54,-0.44c-0.14,-0.2 -0.21,-0.44 -0.21,-0.68c0,-0.32 0.13,-0.63 0.36,-0.85c0.23,-0.23 0.53,-0.36 0.85,-0.36zm-4.56,8.82c0.83,0 1.64,-0.18 2.39,-0.53c0.74,-0.34 1.4,-0.85 1.93,-1.48c0.07,-0.08 0.15,-0.14 0.24,-0.19c0.09,-0.04 0.18,-0.07 0.29,-0.08c0.1,-0.01 0.2,0 0.29,0.03c0.1,0.03 0.19,0.08 0.27,0.15c0.07,0.06 0.14,0.14 0.18,0.23c0.05,0.09 0.08,0.19 0.09,0.29c0.01,0.1 0,0.2 -0.04,0.3c-0.03,0.1 -0.08,0.19 -0.14,0.26c-0.68,0.8 -1.52,1.45 -2.47,1.89c-0.95,0.44 -1.98,0.67 -3.03,0.67c-1.04,0 -2.08,-0.23 -3.03,-0.67c-0.95,-0.44 -1.79,-1.09 -2.46,-1.89c-0.13,-0.15 -0.19,-0.35 -0.17,-0.55c0.02,-0.2 0.12,-0.39 0.27,-0.52c0.16,-0.13 0.36,-0.19 0.56,-0.18c0.2,0.02 0.38,0.11 0.52,0.26c0.52,0.63 1.18,1.14 1.93,1.48c0.74,0.35 1.55,0.53 2.38,0.53l0,0zm-4.55,-8.82c0.24,0 0.47,0.07 0.67,0.21c0.2,0.13 0.36,0.32 0.45,0.54c0.09,0.22 0.11,0.47 0.07,0.7c-0.05,0.24 -0.16,0.45 -0.33,0.62c-0.17,0.17 -0.39,0.29 -0.62,0.33c-0.24,0.05 -0.48,0.03 -0.71,-0.07c-0.22,-0.09 -0.41,-0.24 -0.54,-0.44c-0.13,-0.2 -0.2,-0.44 -0.2,-0.68c0,-0.32 0.12,-0.62 0.35,-0.85c0.23,-0.23 0.53,-0.35 0.85,-0.36l0.01,0z" fill="#ffffff" id="svg_1" xmlns="http://www.w3.org/2000/svg"/>
    <path d="m29.5,38.44c0,-0.17 -0.01,-0.34 -0.03,-0.5c-0.01,-0.16 -0.03,-0.32 -0.06,-0.47c-0.35,-2.35 -1.53,-4.49 -3.32,-6.05c-1.79,-1.56 -4.07,-2.44 -6.45,-2.48c-0.03,0 -0.07,0.02 -0.1,0.04c-0.02,0.03 -0.04,0.07 -0.04,0.1c0,0.03 0.01,0.06 0.03,0.09c0.02,0.02 0.05,0.04 0.08,0.05c2.19,0.52 4.13,1.77 5.53,3.54c1.39,1.76 2.15,3.95 2.15,6.2c-0.08,1.42 -0.7,2.75 -1.74,3.73c-1.03,0.98 -2.4,1.52 -3.82,1.52c-1.43,0 -2.8,-0.54 -3.83,-1.52c-1.03,-0.98 -1.66,-2.31 -1.74,-3.73c0.01,-0.29 0.13,-0.56 0.34,-0.76c0.21,-0.19 0.49,-0.31 0.77,-0.31c0.29,0 0.57,0.12 0.77,0.31c0.21,0.2 0.33,0.47 0.35,0.76c0.02,0.87 0.38,1.7 1,2.31c0.63,0.61 1.47,0.95 2.34,0.95c0.87,0 1.71,-0.34 2.33,-0.95c0.62,-0.61 0.99,-1.44 1.01,-2.31c0,-2.02 -0.79,-3.97 -2.19,-5.42c-1.41,-1.45 -3.32,-2.3 -5.35,-2.37c-2.02,-0.07 -3.99,0.65 -5.49,2.01c-1.5,1.36 -2.41,3.24 -2.54,5.26l0,0.03c-0.02,0.16 -0.02,0.33 -0.02,0.49c0,0.16 0,0.35 0.02,0.52c0.02,0.17 0.01,0.34 0.03,0.5c0.01,0.16 0.03,0.32 0.06,0.47c0.35,2.35 1.53,4.49 3.32,6.05c1.79,1.56 4.07,2.44 6.45,2.48c0.03,0 0.06,-0.02 0.09,-0.04c0.02,-0.02 0.04,-0.05 0.05,-0.08c0,-0.04 -0.01,-0.07 -0.03,-0.1c-0.02,-0.03 -0.04,-0.05 -0.08,-0.05c-2.19,-0.53 -4.13,-1.78 -5.53,-3.55c-1.39,-1.76 -2.15,-3.95 -2.15,-6.2c0.08,-1.42 0.7,-2.76 1.73,-3.74c1.04,-0.98 2.41,-1.53 3.84,-1.53c1.42,0 2.79,0.55 3.83,1.53c1.03,0.98 1.65,2.32 1.73,3.74c0,0.3 -0.11,0.58 -0.32,0.79c-0.21,0.21 -0.49,0.32 -0.79,0.32c-0.29,0 -0.58,-0.11 -0.79,-0.32c-0.21,-0.21 -0.32,-0.49 -0.32,-0.79c-0.02,-0.87 -0.39,-1.7 -1.01,-2.31c-0.62,-0.61 -1.46,-0.95 -2.33,-0.95c-0.87,0 -1.71,0.34 -2.34,0.95c-0.62,0.61 -0.98,1.44 -1,2.31c0,2.02 0.79,3.95 2.2,5.4c1.4,1.45 3.31,2.29 5.33,2.36c2.02,0.07 3.98,-0.65 5.48,-2c1.5,-1.35 2.41,-3.23 2.56,-5.24l0,-0.02c0.01,-0.17 0.02,-0.33 0.01,-0.5c0,-0.17 -0.01,-0.35 -0.02,-0.52z" fill="#ffffff" id="svg_2" xmlns="http://www.w3.org/2000/svg"/>
   </g>
  </g>
 </g>
</svg>