<?xml version="1.0"?>
<svg viewBox="0 0 215 125" xmlns="http://www.w3.org/2000/svg" xmlns:svg="http://www.w3.org/2000/svg">
 <!-- Created with SVG-edit - https://github.com/SVG-Edit/svgedit-->

 <g class="layer">
  <title>Layer 1</title>
  <g id="channel-TR" transform="translate(-20.86, -18.85) matrix(0.713351, 0, 0, 0.713351, 20.8616, 18.8559)">
   <rect fill="#ffffff" height="280" id="rect3677-1" transform="matrix(1, 0, 0, 1, 0, 0) matrix(0.208875, 0, 0, 0.208875, -9.11808, -0.010524)" width="1440" x="43.67" y="280.03"/>
   <path d="m202.91,40.25c-2.82,0 -5.36,0.37 -5.64,0.83c-0.28,0.46 -0.71,3.45 -0.95,6.64c-0.38,5.14 -0.22,6.07 1.33,8.03c0.97,1.22 2.43,2.21 3.26,2.21c0.82,0 2.25,1.05 3.16,2.34c1.94,2.72 2.29,6.71 0.54,6.04c-0.62,-0.24 -1.65,0.31 -2.29,1.23c-0.64,0.91 -1.41,1.42 -1.7,1.12c-0.29,-0.29 -0.53,-0.09 -0.53,0.46s-0.39,0.75 -0.87,0.46c-0.48,-0.29 -0.39,0.22 0.18,1.14c0.57,0.92 2.03,1.89 3.24,2.15c1.85,0.41 2.28,1.01 2.7,3.85c0.28,1.85 0.32,4.95 0.1,6.89c-0.34,2.98 -0.17,3.57 1.15,3.92c0.85,0.22 1.55,0.66 1.55,0.98c0,0.32 0.55,0.58 1.2,0.58c0.9,0 0.98,-0.26 0.31,-1.06c-0.72,-0.86 -1.68,-8.34 -1.08,-8.34c1.12,0 5.96,2.63 6.27,3.41c0.25,0.62 0.44,0.67 0.48,0.12c0.04,-0.5 -0.48,-1.36 -1.14,-1.91c-0.66,-0.55 -1.21,-2.19 -1.21,-3.63c0,-1.45 -1.05,-4.94 -2.35,-7.76c-2.35,-5.12 -3.92,-14.38 -2.44,-14.38c0.42,0 0.76,0.54 0.76,1.21c0,0.66 0.33,1.21 0.74,1.21c0.75,0 0.71,-1.19 -0.32,-10.07c-0.92,-7.93 -0.68,-7.64 -6.48,-7.64l0.03,-0.03zm15.15,0.01c-0.98,0.01 -2.66,4.07 -2.65,6.4c0.01,1.13 0.83,3.05 1.82,4.25c1.97,2.41 4.31,2.81 6.59,1.14c1.33,-0.97 1.35,-1.12 0.16,-1.58c-0.73,-0.28 -1.32,-1.16 -1.32,-1.97s-1.09,-2.65 -2.43,-4.11c-1.33,-1.46 -2.22,-2.99 -1.96,-3.4c0.25,-0.41 0.16,-0.74 -0.2,-0.74l-0.01,0.01zm31.85,0.17c-0.15,0.01 -0.33,0.02 -0.54,0.03c-0.99,0.08 -2.58,0.97 -3.53,1.98c-2.37,2.53 -0.19,2.4 2.95,-0.17c1.94,-1.59 2.21,-1.88 1.12,-1.84zm-14.5,2.57c-0.24,-0.02 -1.63,1.17 -3.38,2.9c-3.28,3.27 -3.52,3.77 -2.56,5.27c0.99,1.54 0.91,4.77 -0.18,7.6c-0.26,0.66 -0.43,1.43 -0.38,1.69c0.05,0.26 -1.52,2.06 -3.49,4c-2.1,2.06 -3.58,4.24 -3.58,5.29c0,0.98 -0.42,1.92 -0.93,2.09c-0.51,0.17 -0.75,0.83 -0.53,1.47c0.27,0.79 0.83,0.34 1.74,-1.42l1.34,-2.58l9.34,0.07c10.06,0.08 15.86,1.27 16.27,3.34c0.29,1.45 -1.24,1.96 -7.59,2.52c-3.84,0.34 -14.26,3.85 -15.97,5.39c-1.24,1.11 -2.75,0.79 -4.48,-0.94l-1.63,-1.62l-0.74,1.94c-0.41,1.07 -1.21,2.11 -1.8,2.31c-1.5,0.52 1.44,3.74 4.66,5.1c1.79,0.76 3.13,2.33 4.7,5.53c1.26,2.59 3.43,5.4 5.14,6.68c1.63,1.21 3.19,2.51 3.46,2.88c0.27,0.38 1.99,-0.24 3.81,-1.4c2.94,-1.86 3.93,-2.06 8.76,-1.73c6.56,0.44 7.58,0.6 7.1,1.08c-0.21,0.21 0.01,1.1 0.48,1.98c0.62,1.16 0.6,1.45 -0.04,1.05c-0.55,-0.34 -0.88,0.21 -0.88,1.46c0,1.1 -0.38,3.02 -0.85,4.26l-0.86,2.26l2.06,-1.93c1.59,-1.5 1.85,-2.18 1.15,-3.03c-0.5,-0.6 -0.68,-1.33 -0.4,-1.61c0.29,-0.28 0.52,-0.09 0.52,0.43c0,2.12 5.12,-2.1 5.23,-4.31c0.02,-0.44 0.67,-0.69 1.43,-0.56c1.95,0.33 1.73,-0.85 -0.4,-2.18c-1.74,-1.09 -1.69,-1.14 1.76,-2.16c1.95,-0.58 3.84,-0.86 4.2,-0.64c0.67,0.41 0.98,-1.31 0.7,-3.96c-0.08,-0.8 0.28,-1.98 0.81,-2.62c0.77,-0.93 0.71,-1.16 -0.34,-1.16c-0.77,0 -1.31,-0.66 -1.31,-1.61c0,-0.89 -0.37,-1.61 -0.81,-1.61c-0.44,0 -0.81,-0.45 -0.81,-1c0,-0.55 -1.28,-2.61 -2.83,-4.56c-1.55,-1.95 -2.67,-3.7 -2.49,-3.88c0.18,-0.18 2.26,0.07 4.63,0.57c5.23,1.09 7.53,1.09 9.59,-0.01c2.03,-1.08 2.06,-4.92 0.07,-6.72c-2.44,-2.21 -12.49,-4.96 -21.05,-5.77c-3.32,-0.31 -7.3,-1.09 -8.85,-1.72c-1.55,-0.64 -5.27,-1.38 -8.26,-1.63c-2.99,-0.25 -5.44,-0.78 -5.44,-1.16c0,-0.38 0.45,-0.73 1,-0.78c1.81,-0.17 2.59,-0.38 4.93,-1.37c1.93,-0.82 2.23,-1.33 1.87,-3.18c-0.34,-1.78 0.13,-2.7 2.45,-4.83c1.58,-1.45 2.6,-2.9 2.28,-3.23c-0.32,-0.32 -1.22,0.19 -1.99,1.14c-2.45,3.03 -7.66,0.41 -6.61,-3.32c0.02,-0.05 0.01,-0.08 -0.03,-0.09l0,0l0.01,0.02zm2.54,9.33c0.44,0 0.8,0.36 0.8,0.8c0,0.44 -0.36,0.81 -0.8,0.81c-0.44,0 -0.8,-0.37 -0.8,-0.81c0,-0.44 0.36,-0.8 0.8,-0.8zm-2.07,1.89c0.04,0 0.07,0 0.1,0c0.22,0.02 0.35,0.19 0.35,0.48c0,0.47 -0.36,0.85 -0.8,0.85c-0.44,0 -0.8,-0.16 -0.8,-0.35c0,-0.19 0.36,-0.58 0.8,-0.85c0.12,-0.08 0.24,-0.12 0.34,-0.13l0.01,0zm-46.22,14.22c-0.43,0 -0.57,0.54 -0.31,1.21c0.26,0.66 0.6,1.21 0.78,1.21c0.18,0 0.31,-0.55 0.31,-1.21c0,-0.66 -0.35,-1.21 -0.78,-1.21zm4.6,1.61c-2.03,0 -1.02,1.28 1.41,1.79c1.63,0.34 2.82,0.06 2.82,-0.68c0,-0.22 -0.34,-0.19 -0.75,0.06c-0.41,0.25 -0.98,0.09 -1.26,-0.36c-0.28,-0.45 -1.27,-0.82 -2.22,-0.82l0,0.01zm105.9,0.38c-0.88,0.28 -1.02,0.95 -1.02,2.82c0,1.56 -0.49,3.77 -1.08,4.9c-1.39,2.67 -1.04,12.12 0.63,16.79c0.7,1.95 1.09,3.73 0.87,3.95c-0.18,0.18 0.08,0.65 0.6,1.14l0,-29.6zm-110.83,5.14c-0.51,0.1 -0.52,2.07 -0.43,5.96c0.09,3.88 0.47,7.04 0.85,7.04c0.38,0 0.69,0.4 0.69,0.88c0,0.48 0.82,2.02 1.82,3.42c0.99,1.4 1.75,2.72 1.69,2.94c-0.06,0.22 0.46,1.49 1.17,2.82c0.71,1.33 1.4,3.32 1.54,4.43l0.25,2.01l-1.09,-1.21l9.33,14.07c0.76,-0.2 1.33,0.04 2.13,0.77c0.77,0.7 1.66,1.27 1.97,1.27c0.71,0 -2.48,-6.39 -4.13,-8.26c-0.68,-0.77 -0.89,-1.41 -0.48,-1.41c0.42,0 0.81,-0.81 0.89,-1.8c0.11,-1.4 -0.02,-1.53 -0.6,-0.6c-1.04,1.69 -2.38,0.18 -5.98,-6.78c-1.59,-3.06 -3.29,-6.05 -3.78,-6.65c-0.49,-0.59 -0.6,-1.08 -0.24,-1.08c0.36,0 0.05,-0.45 -0.69,-1c-0.74,-0.55 -1.46,-1.74 -1.59,-2.63c-0.13,-0.89 -0.49,-2.02 -0.81,-2.53c-0.32,-0.51 -0.02,-1.13 0.66,-1.4c0.71,-0.27 1.04,-0.14 0.76,0.31c-0.28,0.45 0.05,0.58 0.76,0.31c1.59,-0.61 1.66,-0.22 -1.29,-5.69c-1.85,-3.42 -2.84,-5.19 -3.36,-5.2c-0.02,0 -0.04,0 -0.05,0l0.01,0.01zm58.64,9.25c0.03,0 0.06,0 0.1,0c0.22,0.02 0.35,0.19 0.35,0.48c0,0.47 -0.36,0.85 -0.8,0.85c-0.44,0 -0.8,-0.16 -0.8,-0.35s0.36,-0.59 0.8,-0.86c0.12,-0.08 0.25,-0.11 0.35,-0.13l0,0.01zm-10.01,1.34c0.89,0 1.61,0.44 1.61,0.97s1.34,2.34 2.98,4.02c2.47,2.53 2.72,3.05 1.42,3.02c-0.86,-0.02 -2.94,-0.75 -4.6,-1.63c-2.46,-1.3 -3.02,-2.04 -3.02,-3.99c0,-1.86 0.36,-2.4 1.61,-2.4l0,0.01zm20.28,0.13c0.51,-0.03 1.02,0.52 1.76,1.58c1.55,2.22 0.27,4.46 -3.11,5.44c-1.33,0.38 -3.51,0.75 -4.84,0.8l-2.42,0.1l2.54,-1.55c1.39,-0.85 3.19,-2.66 3.99,-4.03c0.92,-1.56 1.5,-2.31 2.08,-2.34l0,0zm-42.73,3.15c-0.48,0 -1.06,0.07 -1.82,0.17c-1.78,0.24 -3.93,1.06 -4.78,1.83c-0.85,0.77 -1.55,1.07 -1.57,0.67c-0.01,-0.4 -0.41,-0.06 -0.88,0.74c-0.66,1.13 -0.55,1.69 0.5,2.45c0.84,0.62 1.41,2.31 1.53,4.52c0.18,3.41 1.39,5.03 2.47,3.28c0.69,-1.12 1.69,-1.07 3.02,0.16c0.6,0.55 2.16,1.63 3.48,2.4c4.01,2.32 5.03,1.58 1.57,-1.14l-2.02,-1.59l1.62,-2.27c2.06,-2.89 2.04,-5.34 -0.05,-8.77c-1.15,-1.89 -1.64,-2.46 -3.07,-2.45zm84.67,11.88c-0.36,0.13 -0.65,0.4 -0.78,0.74c-0.22,0.58 0.05,0.79 0.78,0.63l0,-1.37zm-62.24,0.94c-0.43,0 -0.78,0.54 -0.78,1.21c0,0.66 0.14,1.21 0.31,1.21c0.18,0 0.53,-0.54 0.78,-1.21c0.25,-0.67 0.11,-1.21 -0.32,-1.21l0.01,0zm35.46,0c-0.94,0 -1.48,0.36 -1.21,0.8c0.27,0.44 0.82,0.81 1.21,0.81c0.39,0 0.93,-0.37 1.21,-0.81c0.27,-0.44 -0.27,-0.8 -1.21,-0.8zm26.78,1.34c-1.14,0.93 -1.18,1.06 0,1.07l0,-1.07zm-88.29,2c-0.3,0.05 -0.27,0.5 -0.16,1.29c0.12,0.86 2.89,2.85 7.05,5.08c3.77,2.02 7.91,4.45 9.2,5.41c3.67,2.73 3.42,2.12 -0.91,-2.21c-2.2,-2.2 -5.08,-4.44 -6.41,-4.98c-1.33,-0.54 -3.77,-1.82 -5.42,-2.84c-1.91,-1.19 -2.85,-1.75 -3.28,-1.74c-0.02,0 -0.04,0 -0.06,0l-0.01,-0.01zm40.57,1.5c-0.44,0 -0.81,0.38 -0.81,0.85c0,0.47 0.37,0.63 0.81,0.35c0.44,-0.27 0.8,-0.66 0.8,-0.85c0,-0.2 -0.36,-0.35 -0.8,-0.35zm-12.28,0.01c-1.46,0.01 -1.59,0.17 -0.61,0.8c1.56,1.01 2.42,1.01 2.42,0c0,-0.44 -0.81,-0.8 -1.81,-0.8zm-17.87,0.82c-0.41,-0.01 0.11,0.88 1.15,1.99c1.04,1.11 2.03,2.01 2.19,2.01c0.67,0 -2.65,-3.98 -3.34,-4zm64.14,1.91c-0.36,0.03 -0.98,0.57 -2.07,1.71c-2.47,2.59 -7.09,11.62 -6.45,12.64c0.21,0.34 -0.26,0.63 -1.07,0.64c-1.06,0.01 -1.18,0.19 -0.43,0.67c0.62,0.39 0.81,1.25 0.47,2.13c-0.37,0.95 -0.26,1.29 0.29,0.95c1.82,-1.12 1.66,1.95 -0.21,4.18c-2.57,3.05 -5.23,3.48 -10.11,1.63c-2.18,-0.83 -4.48,-1.51 -5.09,-1.51c-0.62,0 -4.3,-1.33 -8.19,-2.96c-5.54,-2.32 -8.21,-4.04 -12.36,-7.98l-5.29,-5.03l2.21,-0.85c1.22,-0.47 2.21,-1.26 2.21,-1.76c0,-0.5 0.52,-0.71 1.15,-0.47c0.63,0.24 1.55,-0.04 2.04,-0.63c0.49,-0.59 1.7,-0.91 2.68,-0.7c1.74,0.37 1.75,0.34 0.22,-0.89c-2.07,-1.68 -5.09,-1.77 -3.71,-0.1c0.8,0.97 0.59,1.12 -1.31,0.92c-1.99,-0.21 -5.04,0.7 -9.12,2.75c-0.73,0.37 -2.16,-0.04 -3.62,-1.04c-1.91,-1.3 -1.66,-0.83 1.21,2.23c1.99,2.13 3.07,3.61 2.41,3.28c-0.66,-0.32 0.01,0.56 1.49,1.96c1.48,1.4 2.78,3.05 2.87,3.66c0.09,0.61 0.83,1.85 1.65,2.76c0.82,0.91 1.25,1.65 0.95,1.65c-0.3,0 0.4,1.49 1.55,3.3c1.14,1.81 1.96,3.4 1.82,3.53c-1.06,0.97 -8.63,2.83 -11.53,2.83c-2.87,0 -3.76,-0.35 -4.54,-1.81c-0.96,-1.78 -0.99,-1.77 -1.67,0.85c-0.66,2.53 -0.76,2.65 -4.6,2.45l2.37,3.56c0.81,-0.02 1.82,-0.01 3.07,-0.01c3.4,0.01 6.7,0.42 7.34,0.91c0.93,0.72 1.05,0.62 0.63,-0.5c-0.89,-2.39 4.08,-4.14 11.74,-4.15c2.31,0 3.49,0.5 4.83,2.08c0.97,1.15 2.86,2.76 4.19,3.57c6.16,3.73 15.01,11.01 14.08,11.59c-0.76,0.47 -0.7,1.52 0.23,4.71c1.02,3.49 1.03,4.24 0.08,5.03c-1.77,1.47 -5.78,0.19 -9.85,-3.14c-5.16,-4.22 -7.76,-5.75 -8.68,-5.12c-1,0.69 -1.12,5.76 -0.14,5.76c0.41,0 0.48,0.42 0.16,0.93c-0.35,0.56 -0.22,0.72 0.31,0.38c0.49,-0.3 1.3,0.2 1.79,1.13c1.13,2.1 -0.2,4.03 -2.47,3.6c-0.85,-0.16 -1.74,0.02 -1.99,0.42c-0.87,1.41 -5.66,-0.27 -10.05,-3.5c-2.44,-1.8 -3.91,-2.63 -3.28,-1.85c0.63,0.78 1.18,2.35 1.23,3.47c0.04,0.93 0.82,2.24 1.91,3.52l32.53,0c0.04,-1.24 0.84,-1.73 3.94,-2.73c1.74,-0.56 3.26,-0.85 4.3,-0.84c0.47,0.01 0.85,0.08 1.11,0.21c0.74,0.38 3.25,0.9 5.58,1.16c2.99,0.34 5.09,1.02 6.57,2.2l8.32,0l0,-0.95c-2.46,-0.54 -5.87,-1.84 -12.06,-4.41c-2.86,-1.19 -3.33,-1.7 -2.96,-3.2c0.35,-1.38 -0.1,-2.11 -2.03,-3.24c-1.37,-0.81 -2.49,-1.69 -2.49,-1.97c0,-0.53 8.38,-2.74 10.47,-2.76c0.66,-0.01 1.48,-0.37 1.8,-0.82c0.1,-0.14 0.2,-0.22 0.28,-0.22c0.19,-0.02 0.32,0.28 0.32,0.82c0.01,0.77 0.4,1.41 0.87,1.41c0.47,0 0.63,-0.36 0.35,-0.8c-0.73,-1.18 0.05,-1 3.41,0.8c0.66,0.36 1.37,0.68 2.03,0.95l0,-20.3c-5.22,0.23 -7.57,0.81 -7,1.73c0.25,0.4 -0.11,0.93 -0.79,1.19c-1.08,0.41 -1.1,0.82 -0.13,3.13c1.03,2.47 1.01,2.62 -0.42,2.25c-1.04,-0.27 -1.53,0.01 -1.53,0.89c0,0.73 -0.62,1.28 -1.4,1.24c-0.84,-0.04 -1.01,-0.23 -0.41,-0.47c1.4,-0.57 1.26,-1.88 -0.2,-1.88c-0.66,0 -1.21,0.54 -1.21,1.21c0,0.81 -0.81,1.2 -2.5,1.2c-1.81,0 -2.39,-0.3 -2.07,-1.12c0.26,-0.67 -0.19,-1.29 -1.12,-1.53c-0.85,-0.22 -1.55,-0.09 -1.55,0.29c0,1 3.24,3.88 4.97,4.43c0.81,0.26 1.46,0.85 1.46,1.31c0,0.53 -0.45,0.47 -1.2,-0.16c-0.98,-0.81 -1.21,-0.78 -1.21,0.14c0,0.63 -1.21,1.58 -2.68,2.11c-5.88,2.12 -11.57,0.66 -17.25,-4.46c-9.57,-8.62 -9.08,-7.8 -6.57,-10.99c0.93,-1.18 1.49,-2.67 1.25,-3.3c-0.24,-0.64 -0.1,-1.38 0.32,-1.64c0.42,-0.26 0.77,-0.1 0.77,0.35c0,0.46 0.53,0.63 1.18,0.38c0.67,-0.26 2.7,0.8 4.71,2.44c1.94,1.59 3.71,2.69 3.94,2.47c0.23,-0.23 0.87,0.14 1.43,0.82c1.12,1.35 3.24,1.66 3.24,0.47c0,-0.42 -0.36,-0.98 -0.8,-1.25c-1.92,-1.19 -0.75,-2.83 2.02,-2.83c2.01,0 3.33,-0.58 4.57,-2.01c0.96,-1.11 2.15,-2.02 2.63,-2.02c0.48,0 1.22,-0.81 1.66,-1.81c0.7,-1.59 1.4,-1.81 5.59,-1.81c2.64,0 5.67,0.45 6.74,1c1.07,0.55 2.33,1.01 2.81,1.01c0.14,0 0.42,0.07 0.77,0.18l0,-2.6c-1.09,-0.23 -1.92,-0.46 -2.15,-0.61c-0.41,-0.25 -1.77,-0.53 -3.03,-0.63c-3.7,-0.29 -5.63,-2.91 -3.64,-4.9c1.34,-1.34 0.33,-3.54 -2.59,-5.69c-2.55,-1.88 -3,-2.58 -2.36,-3.72c0.43,-0.77 0.67,-2.01 0.53,-2.76c-0.08,-0.42 -0.19,-0.65 -0.41,-0.68c-0.02,0 -0.05,0 -0.07,0l0.01,-0.06zm7.07,38.32c0.44,0 0.8,0.36 0.8,0.8s-0.36,0.81 -0.8,0.81c-0.44,0 -0.8,-0.37 -0.8,-0.81c0,-0.44 0.36,-0.8 0.8,-0.8zm-70.34,14.43l-4.29,4.04l0,0.01c-0.33,2.81 -0.15,4.44 0.6,5.34c0.24,0.29 0.46,0.71 0.65,1.19l12.9,0c-0.42,-1.01 -0.71,-2.02 -0.71,-2.53c-0.01,-1.52 -2.15,-3.56 -4.48,-4.26c-0.73,-0.22 -2.53,-1.74 -4.67,-3.78l0,-0.01zm7.53,0.07c-0.04,0.04 0.2,0.37 0.7,1c1.05,1.34 1.7,1.77 1.7,1.1c0,-0.17 -0.63,-0.8 -1.4,-1.4c-0.64,-0.5 -0.97,-0.75 -1,-0.7z" fill="#000000" id="path3718-6"/>
   <rect fill="#339900" height="280" id="svg_3" transform="matrix(0.208875, 0, 0, 0.208875, -9.11808, -0.010524)" width="1440" x="43.67" y="560.03"/>
   <rect fill="#000000" height="280" id="rect3673-4" transform="matrix(1, 0, 0, 1, 0, 0) matrix(0.208875, 0, 0, 0.208875, -9.11808, -0.010524)" width="1440" x="43.67" y="0.03"/>
   <path d="m0,0l0,87.73l0,87.73l87.73,-87.73l-87.73,-87.73l0,0z" fill="#ff0000" id="path3679-9" transform="matrix(1, 0, 0, 1, 0, 0)"/>
   <g fill="#ffffff" id="text3775-5" transform="matrix(0.208875, 0, 0, 0.208875, -9.11808, -0.010524)">
    <path d="m398.69,62.06c0.2,0.62 -0.72,1.74 -2.76,3.37c-4.9,4.09 -10.42,7.26 -16.55,9.5c-8.17,3.07 -16.65,4.6 -25.43,4.6c-6.33,0 -14.2,-1.12 -23.6,-3.37c1.64,7.15 2.97,15.63 3.99,25.44l0.61,6.74c4.7,0.2 10.32,0.2 16.85,0c10.01,-0.62 24.72,-2.66 44.13,-6.13c1.23,-0.21 1.84,-0.1 1.84,0.3c0,1.03 -1.43,2.56 -4.29,4.6c-2.86,2.04 -5.92,3.88 -9.19,5.52c-1.64,1.02 -4.09,2.14 -7.36,3.37c-8.99,1.63 -22.57,3.57 -40.75,5.82c1.22,15.12 1.22,41.68 0,79.68c0,0.81 -0.92,1.94 -2.76,3.37c-4.91,4.08 -10.42,7.25 -16.55,9.5c-2.86,1.02 -4.19,1.22 -3.98,0.61c1.22,-41.68 0.81,-72.63 -1.23,-92.85c-11.03,-1.02 -19.92,-3.88 -26.66,-8.58c-0.41,-0.41 1.12,-1.94 4.6,-4.6c2.65,-2.04 4.69,-3.47 6.12,-4.29c3.27,-1.84 6.03,-3.17 8.28,-3.98c2.45,-0.82 3.98,-1.03 4.59,-0.62l0.62,0.31c-0.21,-1.23 -1.02,-5.01 -2.45,-11.34c-1.23,-4.49 -1.84,-8.27 -1.84,-11.34c0,-3.27 0.51,-5.92 1.53,-7.96c1.23,-2.05 4.9,-4.8 11.03,-8.28c5.52,-3.06 9.5,-4.8 11.95,-5.21c7.77,2.05 15.43,4.09 22.99,6.13c9.39,2.25 17.36,3.37 23.9,3.37c6.54,0 12.56,-1.02 18.08,-3.06c2.45,-1.02 3.88,-1.23 4.29,-0.61" id="path3948"/>
    <path d="m492.02,180.66c0.82,1.23 -2.76,4.09 -10.73,8.58c-6.13,3.68 -10.01,5.52 -11.64,5.52c-0.61,0 -1.02,-0.21 -1.23,-0.62c-6.13,-8.99 -13.99,-21.04 -23.59,-36.16c-12.06,-19 -19.82,-31.05 -23.29,-36.16l-3.07,1.23c1.64,16.75 2.15,34.93 1.53,54.55c-0.2,0.81 -1.12,1.94 -2.75,3.37c-5.11,4.08 -10.63,7.25 -16.55,9.5c-2.86,1.02 -4.29,1.22 -4.29,0.61c0.61,-21.25 0.1,-40.45 -1.53,-57.61l-0.62,0c-0.4,0.2 -0.81,0.31 -1.22,0.31c-0.82,-0.21 -1.02,-0.62 -0.61,-1.23c0.4,-0.61 1.12,-1.33 2.14,-2.15c-2.66,-23.49 -7.46,-42.59 -14.4,-57.3c-0.62,-1.43 2.96,-4.29 10.72,-8.58c3.27,-2.04 6.03,-3.47 8.28,-4.29c2.45,-1.02 3.98,-1.23 4.59,-0.61c6.75,5.51 14.51,9.7 23.29,12.56c3.07,1.02 7.87,2.15 14.41,3.37c7.35,1.23 12.25,2.15 14.71,2.76c10.01,2.45 15.01,5.31 15.01,8.58c0,3.27 -3.98,7.86 -11.95,13.79c-3.88,3.06 -8.38,6.03 -13.48,8.89c10.01,15.93 25.43,39.63 46.27,71.09m-44.74,-79.06c1.02,-2.25 0.1,-4.09 -2.76,-5.52c-2.86,-1.63 -7.35,-3.16 -13.48,-4.59c-3.68,-0.62 -9.2,-1.64 -16.55,-3.07l-1.23,-0.3c2.05,8.78 3.58,18.38 4.6,28.8l0,0.61l4.9,-1.83c1.84,-1.43 4.39,-3.07 7.66,-4.91c6.13,-3.67 10.01,-5.51 11.65,-5.51c0.61,0 1.02,0.2 1.22,0.61l0.62,-0.31l0.92,-0.61l0.3,-0.31l0.31,-0.3c0.82,-0.82 1.43,-1.74 1.84,-2.76" id="path3950"/>
    <path d="m558.97,70.64c0,1.23 -2.45,3.38 -7.35,6.44c-3.07,2.04 -6.13,3.78 -9.2,5.21c-3.06,1.43 -5,2.04 -5.82,1.84c-1.43,-0.41 -3.37,-1.02 -5.82,-1.84c-11.44,-3.68 -22.17,-5.92 -32.18,-6.74c-5.11,-0.41 -9.6,-0.51 -13.48,-0.31c0,0.82 0,1.53 0,2.15c0,3.47 0.61,6.53 1.83,9.19c2.66,6.54 8.38,11.75 17.17,15.63c9.8,4.49 23.69,7.66 41.67,9.5c0.41,0 0.61,0.1 0.61,0.31c0,1.43 -2.45,3.67 -7.35,6.74c-3.47,2.24 -5.92,3.67 -7.35,4.29c-2.86,1.63 -5.52,2.55 -7.97,2.76c-8.99,0.61 -20.12,3.26 -33.4,7.96c18.38,6.74 32.38,14.51 41.98,23.29c4.7,-4.29 10.62,-7.86 17.77,-10.72c1.43,-0.41 2.86,-0.62 4.29,-0.62c-1.02,7.77 -3.06,19.11 -6.13,34.02c-0.4,1.63 -3.78,4.19 -10.11,7.66c-6.13,3.68 -10.21,5.52 -12.26,5.52c-0.41,0 -0.71,-0.11 -0.92,-0.31c-5.51,-12.26 -14.7,-22.58 -27.58,-30.95c-9.39,-6.13 -22.16,-11.75 -38.3,-16.86c-0.41,-0.2 -0.61,-0.4 -0.61,-0.61c0,-1.22 2.45,-3.37 7.35,-6.43c4.7,-3.07 10.73,-5.93 18.08,-8.58c6.33,-2.05 12.67,-4.19 19,-6.44c-7.15,-1.43 -13.59,-3.27 -19.31,-5.52c-9.19,-3.88 -15.42,-8.58 -18.69,-14.09c-2.25,-4.09 -3.37,-8.38 -3.37,-12.87c0,-4.91 2.04,-9.2 6.13,-12.87c3.27,-3.07 7.97,-6.13 14.09,-9.2c6.95,-3.47 13.59,-5.61 19.92,-6.43c16.14,-1.84 34.22,0.61 54.24,7.35c2.05,0.82 3.07,1.33 3.07,1.53" id="path3952"/>
    <path d="m637.97,70.64c0,1.23 -2.45,3.38 -7.35,6.44c-3.07,2.04 -6.13,3.78 -9.2,5.21c-3.06,1.43 -5,2.04 -5.82,1.84c-1.43,-0.41 -3.37,-1.02 -5.82,-1.84c-11.44,-3.68 -22.17,-5.92 -32.18,-6.74c-5.11,-0.41 -9.6,-0.51 -13.48,-0.31c0,0.82 0,1.53 0,2.15c0,3.47 0.61,6.53 1.83,9.19c2.66,6.54 8.38,11.75 17.17,15.63c9.8,4.49 23.69,7.66 41.67,9.5c0.41,0 0.61,0.1 0.61,0.31c0,1.43 -2.45,3.67 -7.35,6.74c-3.47,2.24 -5.92,3.67 -7.35,4.29c-2.86,1.63 -5.52,2.55 -7.97,2.76c-8.99,0.61 -20.12,3.26 -33.4,7.96c18.38,6.74 32.38,14.51 41.98,23.29c4.7,-4.29 10.62,-7.86 17.77,-10.72c1.43,-0.41 2.86,-0.62 4.29,-0.62c-1.02,7.77 -3.06,19.11 -6.13,34.02c-0.4,1.63 -3.78,4.19 -10.11,7.66c-6.13,3.68 -10.21,5.52 -12.26,5.52c-0.41,0 -0.71,-0.11 -0.92,-0.31c-5.51,-12.26 -14.7,-22.58 -27.58,-30.95c-9.39,-6.13 -22.16,-11.75 -38.3,-16.86c-0.41,-0.2 -0.61,-0.4 -0.61,-0.61c0,-1.22 2.45,-3.37 7.35,-6.43c4.7,-3.07 10.73,-5.93 18.08,-8.58c6.33,-2.05 12.67,-4.19 19,-6.44c-7.15,-1.43 -13.59,-3.27 -19.31,-5.52c-9.19,-3.88 -15.42,-8.58 -18.69,-14.09c-2.25,-4.09 -3.37,-8.38 -3.37,-12.87c0,-4.91 2.04,-9.2 6.13,-12.87c3.27,-3.07 7.97,-6.13 14.09,-9.2c6.95,-3.47 13.59,-5.61 19.92,-6.43c16.14,-1.84 34.22,0.61 54.24,7.35c2.05,0.82 3.07,1.33 3.07,1.53" id="path3954"/>
    <path d="m797.08,107.72c-2.66,4.29 -7.15,9.09 -13.48,14.4c-19.62,16.35 -38.82,26.77 -57.61,31.26c0.61,12.67 0.4,24.82 -0.62,36.47c0,0.81 -0.92,1.94 -2.76,3.37c-4.9,4.08 -10.41,7.25 -16.54,9.5c-1.43,0.61 -2.76,0.81 -3.99,0.61c0.62,-6.74 0.92,-13.69 0.92,-20.84c0,-32.89 -7.05,-70.48 -21.14,-112.77c-1.43,-1.43 -2.76,-2.96 -3.99,-4.59c-0.81,-1.03 2.76,-3.89 10.73,-8.58c6.13,-3.48 10.01,-5.21 11.64,-5.21c0.41,0 1.23,0.61 2.46,1.83c1.02,-0.2 1.63,-0.1 1.83,0.31l0.92,2.76c2.66,2.45 6.34,5 11.04,7.66c18.79,9.6 40.45,17.77 64.96,24.52c4.5,1.22 7.15,2.04 7.97,2.45c3.27,1.22 5.72,2.55 7.35,3.98c1.64,1.43 2.45,3.37 2.46,5.82c0,2.25 -0.72,4.6 -2.15,7.05m-36.18,-4.9c-3.68,-0.82 -9.09,-2.25 -16.24,-4.29c-10.01,-3.47 -18.9,-6.84 -26.66,-10.11l-3.37,-1.23c5.31,20.23 8.78,39.23 10.42,57c3.26,-1.63 8.07,-2.86 14.4,-3.68c7.15,-1.02 12.16,-2.14 15.02,-3.37l0.61,-0.3c0,0 0.3,-0.11 0.92,-0.31l0.3,-0.31l3.68,-2.76c1.43,-1.22 2.66,-2.24 3.68,-3.06l1.84,-1.23c0.41,-0.4 0.61,-0.71 0.61,-0.91c6.54,-5.73 9.81,-10.53 9.81,-14.41c0,-3.06 -1.84,-5.62 -5.52,-7.66c-1.84,-0.82 -5.01,-1.94 -9.5,-3.37" id="path3956"/>
    <path d="m871.33,163.19c1.02,5.31 0.82,9.91 -0.61,13.79c-1.84,4.49 -6.03,8.99 -12.57,13.48c-6.33,4.7 -11.85,7.67 -16.54,8.89c-0.62,-0.2 -1.23,-0.31 -1.84,-0.31c0.2,-0.61 0.81,-1.43 1.84,-2.45c1.22,-1.02 2.14,-1.73 2.75,-2.14c-0.2,0 -0.41,0.1 -0.61,0.3l0.31,0c0,0 0,-0.1 0,-0.3c1.02,-1.02 1.84,-2.15 2.45,-3.37c1.02,-2.25 1.63,-4.29 1.84,-6.13c0.41,-5.72 -1.64,-13.89 -6.13,-24.52c-1.02,0.41 -1.94,0.62 -2.76,0.62c-8.58,0 -15.22,-0.21 -19.92,-0.62c-1.43,5.11 -3.06,9.81 -4.9,14.1c-0.41,0.82 -1.94,2.25 -4.6,4.29c-2.65,1.84 -5.62,3.68 -8.89,5.52c-4.08,2.04 -7.04,3.06 -8.88,3.06c-0.62,0 -0.82,-0.2 -0.62,-0.61c3.48,-8.79 6.34,-18.39 8.59,-28.81c-11.85,-2.45 -19,-6.95 -21.46,-13.48c-0.2,-0.62 0.72,-1.74 2.76,-3.37c2.05,-1.64 4.7,-3.37 7.97,-5.21c5.92,-3.48 9.91,-5.21 11.95,-5.21c0,0 0.72,1.02 2.15,3.06c0.81,-9.4 1.22,-18.18 1.22,-26.35c0,-15.32 -1.63,-28.71 -4.9,-40.15c-0.21,-0.61 0.61,-1.73 2.45,-3.37c2.04,-1.63 4.7,-3.37 7.97,-5.21c6.13,-3.67 10.11,-5.51 11.95,-5.51c0.61,0 0.92,0.2 0.92,0.61c3.88,10.62 9.7,24 17.46,40.14c10.63,22.07 16.96,35.35 19,39.84c2.05,4.5 4.19,9.2 6.44,14.1c2.65,5.92 4.39,11.03 5.21,15.32m-35.55,-17.16l-2.14,-4.29c-1.84,-4.29 -4.29,-9.4 -7.36,-15.32c-0.61,6.33 -1.53,12.25 -2.76,17.77c3.68,0.82 7.77,1.43 12.26,1.84" id="path3958"/>
    <path d="m896.14,165.03c1.02,-2.25 1.43,-6.13 1.23,-11.65c-0.21,-13.07 -0.31,-22.88 -0.31,-29.41c-1.23,-13.69 -2.25,-23.91 -3.07,-30.65c-1.22,-13.07 -3.06,-22.88 -5.51,-29.42c0,-0.41 -0.21,-0.61 -0.61,-0.61c-2.05,0 -6.03,1.84 -11.95,5.52c-3.27,1.83 -5.93,3.57 -7.97,5.21c-2.05,1.63 -2.96,2.75 -2.76,3.37c2.25,6.33 3.98,15.11 5.21,26.35c2.86,26.97 4.08,49.24 3.68,66.81c0,3.06 -0.51,5.41 -1.54,7.04l23.6,-12.56m-23.6,12.56c-1.83,1.43 -2.55,2.46 -2.14,3.07c0.2,0.2 0.51,0.3 0.92,0.3c1.43,0 4.29,-1.12 8.58,-3.37c0.2,-0.2 0.41,-0.3 0.61,-0.3c-0.2,0 -0.51,0.1 -0.92,0.3l0.62,-0.3c-0.21,0.2 -0.31,0.3 -0.31,0.3c0.82,-0.4 1.02,-0.51 0.61,-0.3c3.68,-1.43 8.48,-2.76 14.4,-3.99c8.18,-1.84 12.98,-2.96 14.41,-3.37c6.54,-1.84 13.07,-3.57 19.61,-5.21c7.35,-2.04 13.69,-4.18 19,-6.43c6.33,-2.66 11.85,-5.82 16.55,-9.5c2.04,-1.64 2.96,-2.76 2.75,-3.37c-0.4,-0.62 -1.83,-0.41 -4.29,0.61c-7.76,3.27 -18.89,6.54 -33.4,9.81c-15.73,3.67 -26.86,6.74 -33.4,9.19l-23.6,12.56m7.97,-0.3l-0.92,0.3l0.62,-0.3c0.2,-0.21 0.3,-0.21 0.3,0l0,0l-0.92,0.3l0.62,-0.3l0.3,0l0,0c0.21,-0.21 0.1,-0.21 -0.3,0l0.3,0" id="path3960"/>
    <path d="m1028,70.64c0,1.23 -2.45,3.38 -7.35,6.44c-3.07,2.04 -6.13,3.78 -9.2,5.21c-3.06,1.43 -5,2.04 -5.82,1.84c-1.43,-0.41 -3.37,-1.02 -5.82,-1.84c-11.44,-3.68 -22.17,-5.92 -32.18,-6.74c-5.11,-0.41 -9.6,-0.51 -13.48,-0.31c0,0.82 0,1.53 0,2.15c0,3.47 0.61,6.53 1.83,9.19c2.66,6.54 8.38,11.75 17.17,15.63c9.8,4.49 23.69,7.66 41.67,9.5c0.41,0 0.61,0.1 0.61,0.31c0,1.43 -2.45,3.67 -7.35,6.74c-3.47,2.24 -5.92,3.67 -7.35,4.29c-2.86,1.63 -5.52,2.55 -7.97,2.76c-8.99,0.61 -20.13,3.26 -33.4,7.96c18.38,6.74 32.38,14.51 41.98,23.29c4.7,-4.29 10.62,-7.86 17.77,-10.72c1.43,-0.41 2.86,-0.62 4.29,-0.62c-1.02,7.77 -3.06,19.11 -6.13,34.02c-0.4,1.63 -3.78,4.19 -10.11,7.66c-6.13,3.68 -10.21,5.52 -12.26,5.52c-0.41,0 -0.71,-0.11 -0.92,-0.31c-5.51,-12.26 -14.7,-22.58 -27.58,-30.95c-9.39,-6.13 -22.16,-11.75 -38.3,-16.86c-0.41,-0.2 -0.61,-0.4 -0.61,-0.61c0,-1.22 2.45,-3.37 7.35,-6.43c4.7,-3.07 10.73,-5.93 18.08,-8.58c6.33,-2.05 12.67,-4.19 19,-6.44c-7.15,-1.43 -13.59,-3.27 -19.31,-5.52c-9.19,-3.88 -15.42,-8.58 -18.69,-14.09c-2.25,-4.09 -3.37,-8.38 -3.37,-12.87c0,-4.91 2.04,-9.2 6.13,-12.87c3.27,-3.07 7.97,-6.13 14.09,-9.2c6.95,-3.47 13.59,-5.61 19.92,-6.43c16.14,-1.84 34.22,0.61 54.24,7.35c2.05,0.82 3.07,1.33 3.07,1.53" id="path3962"/>
    <path d="m1103.9,154c-4.29,5.31 -12.46,11.13 -24.52,17.47c-6.53,3.47 -12.87,6.33 -19,8.58c-11.44,4.7 -20.83,7.05 -28.19,7.05c-14.3,0 -22.88,-6.85 -25.74,-20.54c-0.2,-0.61 0.72,-1.73 2.76,-3.37c2.04,-1.63 4.7,-3.37 7.97,-5.21c5.92,-3.47 9.9,-5.21 11.95,-5.21c0.41,0 0.61,0.11 0.61,0.31c2.86,13.48 10.93,20.12 24.21,19.92c5.11,-0.21 10.21,-1.12 15.32,-2.76l1.84,-0.61l1.23,-0.31c1.43,-0.61 2.75,-1.12 3.98,-1.53l0.92,-0.61l0.61,-0.31c0.82,-0.2 1.94,-0.61 3.37,-1.23c0,-0.2 0.21,-0.61 0.62,-1.22c1.83,-3.07 1.83,-6.23 0,-9.5c-3.07,-5.11 -10.73,-10.83 -22.99,-17.16c-5.92,-3.07 -14.81,-7.77 -26.66,-14.1c-15.12,-9.19 -22.57,-18.39 -22.37,-27.58c0,-7.35 2.96,-13.69 8.89,-19c5.31,-4.7 12.15,-9.09 20.53,-13.17c4.7,-2.25 8.99,-3.58 12.87,-3.99c6.74,-1.02 13.59,-0.1 20.53,2.76c6.95,2.86 12.67,6.84 17.16,11.95c0.82,1.23 -2.75,4.19 -10.72,8.89c-3.27,1.84 -6.13,3.27 -8.58,4.29c-2.45,0.82 -3.88,0.92 -4.29,0.3c-7.97,-9.39 -18.29,-14.3 -30.95,-14.7c-2.25,4.49 -2.76,8.98 -1.54,13.48c1.23,5.31 4.7,10.42 10.42,15.32c5.93,4.9 15.02,10.42 27.28,16.55c8.58,4.09 13.28,6.44 14.09,7.05c5.31,2.86 9.71,5.72 13.18,8.58c5.31,4.29 7.97,8.48 7.97,12.56c0,2.45 -0.92,4.8 -2.76,7.05m-20.23,10.11" id="path3964"/>
    <path d="m1189.2,71.87c0.41,0.2 0.71,0.41 0.92,0.61c0,0.21 -0.21,0.51 -0.61,0.92c-0.21,0.21 -0.41,0.41 -0.62,0.62c-3.27,3.26 -8.47,6.53 -15.63,9.8c-1.22,0.61 -3.16,1.33 -5.82,2.15c-3.47,0 -12.15,0.2 -26.05,0.61c-0.4,32.28 1.94,61.29 7.05,87.03c0.21,0.61 -0.71,1.74 -2.76,3.37c-2.04,1.63 -4.59,3.37 -7.66,5.21c-6.13,3.47 -10.21,5.21 -12.25,5.21c-0.41,0 -0.62,-0.1 -0.62,-0.31c-4.08,-19.61 -6.43,-37.89 -7.05,-54.85c-0.2,-9.19 -0.1,-24.21 0.31,-45.05c-17.16,0.21 -32.07,-0.61 -44.74,-2.45c-0.41,0 -0.61,-0.2 -0.61,-0.61c0,-1.23 2.45,-3.37 7.35,-6.44c3.07,-2.04 6.13,-3.78 9.19,-5.21c3.07,-1.43 5.01,-2.04 5.83,-1.84c8.37,1.23 17.36,1.95 26.96,2.15c5.11,-3.68 10.22,-6.44 15.33,-8.27c2.86,-1.03 4.29,-1.33 4.29,-0.92l-0.31,9.5c10.62,-0.21 26.46,-0.62 47.5,-1.23" id="path3966"/>
    <path d="m1209.1,40c-1.23,4.9 -2.45,9.91 -3.68,15.02c-2.04,7.15 -3.88,11.34 -5.51,12.56c-4.91,4.09 -10.42,7.35 -16.55,9.81c-1.43,0.4 -2.86,0.61 -4.29,0.61c0.82,-5.31 3.06,-13.99 6.74,-26.05c0.41,-0.82 1.94,-2.14 4.6,-3.98c2.86,-2.05 5.92,-3.88 9.19,-5.52c4.09,-2.25 7.05,-3.37 8.89,-3.37c0.61,0 0.81,0.31 0.61,0.92m26.97,125.03c0.61,0 0.92,0.1 0.92,0.31c0,0.4 -0.41,1.02 -1.23,1.83c-1.23,1.43 -3.47,3.17 -6.74,5.21c-3.07,1.84 -5.42,3.17 -7.05,3.99c-2.86,1.43 -5.41,2.35 -7.66,2.76c-7.36,1.02 -18.59,1.83 -33.71,2.45c-15.12,0.41 -26.56,1.22 -34.32,2.45c-0.41,0 -0.61,-0.1 -0.61,-0.31c0,-0.41 0.3,-1.02 0.91,-1.84c1.43,-1.43 3.58,-3.06 6.44,-4.9c6.54,-4.08 11.65,-6.43 15.32,-7.05c1.84,-0.41 4.09,-0.71 6.74,-0.92c-0.4,-5.1 -0.61,-10.62 -0.61,-16.54c0,-7.15 0.31,-16.76 0.92,-28.81c0.82,-14.1 1.33,-23.7 1.53,-28.81c-10.83,0.21 -19.51,-1.02 -26.05,-3.67c-0.61,-0.21 0.31,-1.33 2.76,-3.37c5.11,-4.09 10.63,-7.26 16.55,-9.5c2.04,-0.82 3.47,-1.03 4.29,-0.62c5.72,2.45 13.38,3.48 22.98,3.07c1.03,-0.21 1.94,-0.21 2.76,0l3.07,-0.31c6.33,-0.61 15.93,-1.43 28.8,-2.45c0.41,0 0.62,0.1 0.62,0.31c0,0.4 -0.31,1.02 -0.92,1.83c-1.43,1.43 -3.78,3.17 -7.05,5.21c-3.27,2.05 -5.52,3.37 -6.74,3.99c-3.07,1.63 -5.83,2.55 -8.28,2.76c-2.45,0.2 -5.72,0.51 -9.8,0.91c-1.43,27.18 -2.15,42.5 -2.15,45.97c0,3.27 0.31,8.07 0.92,14.4c0.61,6.34 0.92,11.04 0.92,14.1c8.17,-0.2 20.33,-1.02 36.47,-2.45" id="path3968"/>
    <path d="m1326.6,45.82c-0.2,17.57 -2.55,48.93 -7.05,94.08l0.31,0c0.2,0.21 0.1,0.61 -0.31,1.23c-2.65,26.55 -4.19,48.01 -4.59,64.35c0,0.82 -0.82,1.94 -2.46,3.37c-5.1,4.09 -10.62,7.25 -16.54,9.5c-2.86,1.02 -4.29,1.23 -4.29,0.61c0.4,-16.54 1.94,-38.4 4.59,-65.58c-6.13,-4.9 -14.91,-12.36 -26.35,-22.37c-11.44,-10.01 -19.92,-17.26 -25.44,-21.75c1.02,10.83 2.56,27.68 4.6,50.56c0,0.82 -1.02,2.04 -3.06,3.68c-1.84,1.43 -4.4,3.06 -7.67,4.9c-1.22,0.82 -3.37,1.94 -6.43,3.37c-4.09,1.84 -6.23,2.35 -6.44,1.53c-1.43,-19 -2.65,-32.79 -3.67,-41.37c-1.43,-15.52 -2.97,-29.31 -4.6,-41.37l-2.45,-1.22c-0.41,-0.21 0.2,-1.13 1.84,-2.76c0,-0.61 0.92,-1.63 2.75,-3.06c2.05,-1.64 4.7,-3.38 7.97,-5.21c8.17,-4.91 12.36,-6.54 12.57,-4.91l0.61,3.68c9.4,5.11 19.61,12.16 30.64,21.15c2.66,2.24 12.06,10.41 28.2,24.51c2.24,-25.54 3.47,-46.68 3.67,-63.43c0,-0.82 0.92,-1.94 2.76,-3.37c4.9,-4.09 10.42,-7.26 16.55,-9.5c2.86,-1.03 4.29,-1.23 4.29,-0.62" id="path3970"/>
    <path d="m1414.7,70.64c0,1.23 -2.45,3.38 -7.35,6.44c-3.07,2.04 -6.13,3.78 -9.2,5.21c-3.06,1.43 -5,2.04 -5.82,1.84c-1.43,-0.41 -3.37,-1.02 -5.82,-1.84c-11.44,-3.68 -22.17,-5.92 -32.18,-6.74c-5.11,-0.41 -9.6,-0.51 -13.48,-0.31c0,0.82 0,1.53 0,2.15c0,3.47 0.61,6.53 1.84,9.19c2.65,6.54 8.37,11.75 17.16,15.63c9.8,4.49 23.69,7.66 41.67,9.5c0.41,0 0.62,0.1 0.62,0.31c0,1.43 -2.46,3.67 -7.36,6.74c-3.47,2.24 -5.92,3.67 -7.35,4.29c-2.86,1.63 -5.52,2.55 -7.97,2.76c-8.99,0.61 -20.12,3.26 -33.4,7.96c18.38,6.74 32.38,14.51 41.98,23.29c4.7,-4.29 10.62,-7.86 17.77,-10.72c1.43,-0.41 2.86,-0.62 4.29,-0.62c-1.02,7.77 -3.06,19.11 -6.12,34.02c-0.41,1.63 -3.78,4.19 -10.12,7.66c-6.13,3.68 -10.21,5.52 -12.26,5.52c-0.4,0 -0.71,-0.11 -0.92,-0.31c-5.51,-12.26 -14.7,-22.58 -27.57,-30.95c-9.4,-6.13 -22.17,-11.75 -38.31,-16.86c-0.41,-0.2 -0.61,-0.4 -0.61,-0.61c0,-1.22 2.45,-3.37 7.35,-6.43c4.7,-3.07 10.73,-5.93 18.08,-8.58c6.33,-2.05 12.67,-4.19 19,-6.44c-7.15,-1.43 -13.58,-3.27 -19.3,-5.52c-9.2,-3.88 -15.43,-8.58 -18.7,-14.09c-2.24,-4.09 -3.37,-8.38 -3.37,-12.87c0,-4.91 2.04,-9.2 6.13,-12.87c3.27,-3.07 7.97,-6.13 14.1,-9.2c6.94,-3.47 13.58,-5.61 19.92,-6.43c16.13,-1.84 34.21,0.61 54.24,7.35c2.04,0.82 3.06,1.33 3.06,1.53" id="path3972"/>
   </g>
  </g>
 </g>
</svg>