<?xml version="1.0"?>
<svg viewBox="0 0 928 1239" xmlns="http://www.w3.org/2000/svg" xmlns:svg="http://www.w3.org/2000/svg">
 <!-- Created with SVG-edit - https://github.com/SVG-Edit/svgedit-->

 <g class="layer">
  <title>Layer 1</title>
  <g id="#channel-FN" transform="translate(-45.31, -18)">
   <g fill="#FFFFFF" id="g3982" transform="scale(0.048)" xmlns="http://www.w3.org/2000/svg">
    <g id="g3734">
     <g fill="#FFFFFF" id="g3732">
      <g id="g3710">
       <path d="m8639,426l-2093,3414l2873,1321l1899,-3052l-2679,-1683z" fill="#FFFFFF" id="path3708"/>
      </g>
      <g id="g3728">
       <path d="m8682,453l-2093,3414l-43,-27l-43,-27l2093,-3414l43,27l43,27z" id="path3712"/>
       <path d="m6546,3840l-21,46l-8,-4l-7,-6l-6,-7l-4,-7l-3,-9l-2,-8l0,-9l2,-9l3,-8l3,-6l43,27z" id="path3714"/>
       <path d="m6567,3794l2873,1321l-21,46l-21,46l-2873,-1321l21,-46l21,-46z" id="path3716"/>
       <path d="m9419,5161l43,27l-5,7l-7,6l-7,5l-8,3l-9,2l-9,1l-9,-1l-8,-3l-2,-1l21,-46z" id="path3718"/>
       <path d="m9376,5134l1899,-3052l43,27l43,27l-1899,3052l-43,-27l-43,-27z" id="path3720"/>
       <path d="m11318,2109l27,-43l7,5l6,7l5,7l4,8l2,9l0,9l-1,9l-3,8l-4,8l-43,-27z" id="path3722"/>
       <path d="m11291,2152l-2679,-1683l27,-43l27,-43l2679,1683l-27,43l-27,43z" id="path3724"/>
       <path d="m8639,426l-43,-27l5,-7l6,-6l8,-5l8,-3l8,-2l9,-1l9,1l9,3l8,4l-27,43z" id="path3726"/>
      </g>
     </g>
    </g>
    <g id="g3768">
     <g fill="#FFFFFF" id="g3766">
      <g id="g3740">
       <path d="m12291,2748l-1800,2958l2191,1093l-148,1184l2484,-3779l-2727,-1456z" fill="#FFFFFF" id="path3738"/>
      </g>
      <g id="g3762">
       <path d="m12335,2775l-1800,2958l-44,-27l-44,-27l1800,-2958l44,27l44,27z" id="path3742"/>
       <path d="m10491,5706l-23,46l-7,-5l-7,-6l-6,-7l-4,-8l-3,-8l-1,-9l0,-9l2,-8l3,-9l2,-4l44,27z" id="path3744"/>
       <path d="m10514,5660l2191,1093l-23,46l-23,46l-2191,-1093l23,-46l23,-46z" id="path3746"/>
       <path d="m12682,6799l23,-46l7,5l7,6l6,7l4,8l3,8l1,9l0,9l-51,-6z" id="path3748"/>
       <path d="m12733,6805l-148,1184l-51,-6l-51,-6l148,-1184l51,6l51,6z" id="path3750"/>
       <path d="m12534,7983l43,28l-6,7l-7,6l-7,5l-8,3l-9,2l-9,0l-9,-1l-8,-3l-8,-4l-7,-6l-6,-7l-5,-7l-3,-8l-2,-9l0,-12l51,6z" id="path3752"/>
       <path d="m12491,7955l2484,-3779l43,28l43,28l-2484,3779l-43,-28l-43,-28z" id="path3754"/>
       <path d="m15018,4204l24,-45l7,5l7,6l5,7l4,8l3,8l1,9l-1,9l-2,9l-3,8l-2,4l-43,-28z" id="path3756"/>
       <path d="m14994,4249l-2727,-1456l24,-45l24,-45l2727,1456l-24,45l-24,45z" id="path3758"/>
       <path d="m12291,2748l-44,-27l6,-7l6,-6l8,-5l8,-3l8,-2l9,-1l9,1l9,2l5,3l-24,45z" id="path3760"/>
      </g>
     </g>
    </g>
    <g id="g3802">
     <g fill="#FFFFFF" id="g3800">
      <g id="g3774">
       <path d="m15701,5479l-3896,5462l2337,864l3847,-4552l-49,0l-2239,-1774z" fill="#FFFFFF" id="path3772"/>
      </g>
      <g id="g3796">
       <path d="m15743,5509l-3896,5462l-42,-30l-42,-30l3896,-5462l42,30l42,30z" id="path3776"/>
       <path d="m11805,10941l-18,48l-8,-4l-7,-5l-6,-6l-5,-8l-4,-8l-2,-8l-1,-9l1,-9l2,-9l4,-8l2,-4l42,30z" id="path3778"/>
       <path d="m11823,10893l2337,864l-18,48l-18,48l-2337,-864l18,-48l18,-48z" id="path3780"/>
       <path d="m14142,11805l39,33l-6,6l-8,5l-8,4l-8,2l-9,1l-9,-1l-9,-2l18,-48z" id="path3782"/>
       <path d="m14103,11772l3847,-4552l39,33l39,33l-3847,4552l-39,-33l-39,-33z" id="path3784"/>
       <path d="m17989,7253l0,-51l9,1l8,2l8,4l8,5l6,6l5,7l4,9l2,8l1,9l-1,9l-2,8l-4,8l-5,8l-39,-33z" id="path3786"/>
       <path d="m17989,7304l-49,0l0,-102l49,0l0,51l0,51z" id="path3788"/>
       <path d="m17940,7253l0,51l-9,-1l-8,-2l-8,-4l-7,-4l32,-40z" id="path3790"/>
       <path d="m17908,7293l-2239,-1774l32,-40l32,-40l2239,1774l-32,40l-32,40z" id="path3792"/>
       <path d="m15701,5479l-42,-30l6,-6l7,-6l8,-4l8,-3l9,-2l9,0l9,2l8,3l8,4l2,2l-32,40z" id="path3794"/>
      </g>
     </g>
    </g>
    <g id="g3832">
     <g fill="#FFFFFF" id="g3830">
      <g id="g3808">
       <path d="m18573,8255l-3603,4189l1119,1138l4139,-3689l-1655,-1638z" fill="#FFFFFF" id="path3806"/>
      </g>
      <g id="g3826">
       <path d="m18612,8288l-3603,4189l-39,-33l-39,-33l3603,-4189l39,33l39,33z" id="path3810"/>
       <path d="m14970,12444l-36,36l-6,-7l-4,-8l-3,-8l-2,-9l0,-9l2,-9l3,-8l4,-8l3,-3l39,33z" id="path3812"/>
       <path d="m15006,12408l1119,1138l-36,36l-36,36l-1119,-1138l36,-36l36,-36z" id="path3814"/>
       <path d="m16089,13582l34,38l-7,5l-8,4l-9,3l-8,1l-9,-1l-9,-2l-8,-3l-8,-5l-4,-4l36,-36z" id="path3816"/>
       <path d="m16055,13544l4139,-3689l34,38l34,38l-4139,3689l-34,-38l-34,-38z" id="path3818"/>
       <path d="m20228,9893l36,-36l6,7l4,7l3,9l2,8l0,9l-2,9l-3,8l-4,8l-6,7l-2,2l-34,-38z" id="path3820"/>
       <path d="m20192,9929l-1655,-1638l36,-36l36,-36l1655,1638l-36,36l-36,36z" id="path3822"/>
       <path d="m18573,8255l-39,-33l7,-6l7,-5l8,-4l9,-2l9,-1l8,1l9,2l8,4l7,5l3,3l-36,36z" id="path3824"/>
      </g>
     </g>
    </g>
    <g id="g3954">
     <g fill="#FFFFFF" id="g3952">
      <g id="g3838">
       <path d="m5377,4568l-4382,6509l6720,7693l-1267,7375l9884,-91l-438,-6692l2290,-2913l584,-3916l-2629,2186l-2192,-1957l-3992,-957l3896,6101l876,637l-1412,45l-438,1594l-586,-1594l-1460,229l1606,-1411l-3798,-5873l-2970,-1001l1072,-957l-293,-1592l633,0l974,1365l2191,-91l1169,-637l146,-1458l-6184,-2594z" fill="#FFFFFF" id="path3836"/>
      </g>
      <g id="g3948">
       <path d="m5419,4596l-4382,6509l-42,-28l-42,-28l4382,-6509l42,28l42,28z" id="path3840"/>
       <path d="m995,11077l-38,34l-6,-8l-4,-8l-2,-8l-1,-9l1,-9l2,-8l3,-9l3,-3l42,28z" id="path3842"/>
       <path d="m1033,11043l6720,7693l-38,34l-38,34l-6720,-7693l38,-34l38,-34z" id="path3844"/>
       <path d="m7715,18770l38,-34l6,8l4,8l2,8l1,9l-1,9l0,1l-50,-9z" id="path3846"/>
       <path d="m7765,18779l-1267,7375l-50,-9l-50,-9l1267,-7375l50,9l50,9z" id="path3848"/>
       <path d="m6448,26145l0,51l-8,-1l-9,-2l-8,-4l-7,-5l-7,-6l-5,-7l-4,-8l-2,-9l-1,-9l1,-8l0,-1l50,9z" id="path3850"/>
       <path d="m6448,26094l9884,-91l0,102l-9884,91l0,-51l0,-51z" id="path3852"/>
       <path d="m16332,26054l51,-3l0,9l-2,8l-3,9l-5,7l-6,7l-7,5l-7,5l-9,3l-9,1l-3,0l0,-51z" id="path3854"/>
       <path d="m16281,26057l-438,-6692l51,-3l51,-3l438,6692l-51,3l-51,3z" id="path3856"/>
       <path d="m15894,19362l-51,3l0,-9l2,-8l3,-9l5,-7l1,-2l40,32z" id="path3858"/>
       <path d="m15854,19330l2290,-2913l40,32l40,32l-2290,2913l-40,-32l-40,-32z" id="path3860"/>
       <path d="m18184,16449l50,8l-2,8l-3,8l-5,8l-40,-32z" id="path3862"/>
       <path d="m18134,16441l584,-3916l50,8l50,8l-584,3916l-50,-8l-50,-8z" id="path3864"/>
       <path d="m18768,12533l-33,-39l8,-5l8,-4l8,-2l9,-1l9,1l9,2l8,4l7,5l6,6l5,8l4,8l2,8l1,9l-1,8l-50,-8z" id="path3866"/>
       <path d="m18801,12572l-2629,2186l-33,-39l-33,-39l2629,-2186l33,39l33,39z" id="path3868"/>
       <path d="m16139,14719l33,39l-8,5l-8,4l-8,2l-9,1l-9,-1l-9,-2l-8,-4l-7,-5l-1,-1l34,-38z" id="path3870"/>
       <path d="m16105,14757l-2192,-1957l34,-38l34,-38l2192,1957l-34,38l-34,38z" id="path3872"/>
       <path d="m13947,12762l12,-50l8,3l8,4l6,5l-34,38z" id="path3874"/>
       <path d="m13935,12812l-3992,-957l12,-50l12,-50l3992,957l-12,50l-12,50z" id="path3876"/>
       <path d="m9955,11805l-43,27l-4,-7l-3,-9l-1,-9l0,-9l2,-8l4,-9l5,-7l6,-7l7,-5l7,-4l9,-3l9,-1l9,0l5,1l-12,50z" id="path3878"/>
       <path d="m9998,11778l3896,6101l-43,27l-43,27l-3896,-6101l43,-27l43,-27z" id="path3880"/>
       <path d="m13851,17906l-30,41l-7,-6l-5,-6l-1,-2l43,-27z" id="path3882"/>
       <path d="m13881,17865l876,637l-30,41l-30,41l-876,-637l30,-41l30,-41z" id="path3884"/>
       <path d="m14727,18543l30,-41l7,6l5,6l5,8l2,9l2,8l0,9l-2,9l-3,8l-5,8l-6,7l-6,5l-8,5l-9,2l-8,2l-2,0l-2,-51z" id="path3886"/>
       <path d="m14729,18594l-1412,45l-2,-51l-2,-51l1412,-45l2,51l2,51z" id="path3888"/>
       <path d="m13315,18588l-49,-14l3,-8l4,-8l6,-6l7,-6l8,-4l8,-3l9,-2l2,0l2,51z" id="path3890"/>
       <path d="m13364,18602l-438,1594l-49,-14l-49,-14l438,-1594l49,14l49,14z" id="path3892"/>
       <path d="m12877,20182l49,14l-3,8l-4,8l-6,6l-7,6l-8,4l-8,3l-9,2l-9,0l-9,-2l-8,-3l-8,-4l-6,-6l-6,-7l-4,-8l-2,-3l48,-18z" id="path3894"/>
       <path d="m12829,20200l-586,-1594l48,-18l48,-18l586,1594l-48,18l-48,18z" id="path3896"/>
       <path d="m12291,18588l-8,-50l9,-1l9,1l8,2l8,4l8,6l6,6l5,7l3,7l-48,18z" id="path3898"/>
       <path d="m12299,18638l-1460,229l-8,-50l-8,-50l1460,-229l8,50l8,50z" id="path3900"/>
       <path d="m10831,18817l8,50l-9,1l-9,-1l-8,-2l-8,-4l-8,-6l-6,-6l-5,-7l-3,-8l-2,-9l-1,-9l1,-9l2,-8l4,-8l6,-8l4,-4l34,38z" id="path3902"/>
       <path d="m10797,18779l1606,-1411l34,38l34,38l-1606,1411l-34,-38l-34,-38z" id="path3904"/>
       <path d="m12437,17406l43,-28l4,8l3,9l1,8l0,9l-2,9l-4,8l-4,8l-6,6l-1,1l-34,-38z" id="path3906"/>
       <path d="m12394,17434l-3798,-5873l43,-28l43,-28l3798,5873l-43,28l-43,28z" id="path3908"/>
       <path d="m8639,11533l16,-48l8,3l8,5l6,6l5,6l-43,28z" id="path3910"/>
       <path d="m8623,11581l-2970,-1001l16,-48l16,-48l2970,1001l-16,48l-16,48z" id="path3912"/>
       <path d="m5669,10532l-16,48l-8,-3l-8,-5l-6,-6l-6,-7l-3,-8l-3,-9l-1,-9l1,-9l2,-8l3,-8l5,-8l6,-6l34,38z" id="path3914"/>
       <path d="m5635,10494l1072,-957l34,38l34,38l-1072,957l-34,-38l-34,-38z" id="path3916"/>
       <path d="m6741,9575l50,-9l1,9l-1,8l-2,9l-4,8l-5,7l-5,6l-34,-38z" id="path3918"/>
       <path d="m6691,9584l-293,-1592l50,-9l50,-9l293,1592l-50,9l-50,9z" id="path3920"/>
       <path d="m6448,7983l-50,9l-1,-9l1,-8l2,-9l4,-8l5,-7l6,-7l7,-5l8,-4l9,-2l9,-1l0,51z" id="path3922"/>
       <path d="m6448,7932l633,0l0,102l-633,0l0,-51l0,-51z" id="path3924"/>
       <path d="m7081,7983l0,-51l9,1l8,2l8,4l8,5l6,6l3,3l-42,30z" id="path3926"/>
       <path d="m7123,7953l974,1365l-42,30l-42,30l-974,-1365l42,-30l42,-30z" id="path3928"/>
       <path d="m8055,9348l2,51l-9,0l-8,-2l-9,-4l-7,-5l-7,-6l-4,-4l42,-30z" id="path3930"/>
       <path d="m8053,9297l2191,-91l2,51l2,51l-2191,91l-2,-51l-2,-51z" id="path3932"/>
       <path d="m10246,9257l24,45l-8,3l-8,2l-6,1l-2,-51z" id="path3934"/>
       <path d="m10222,9212l1169,-637l24,45l24,45l-1169,637l-24,-45l-24,-45z" id="path3936"/>
       <path d="m11415,8620l51,5l-2,9l-3,8l-5,8l-5,7l-7,5l-5,3l-24,-45z" id="path3938"/>
       <path d="m11364,8615l146,-1458l51,5l51,5l-146,1458l-51,-5l-51,-5z" id="path3940"/>
       <path d="m11561,7162l20,-47l8,4l7,6l6,6l4,8l4,8l2,9l0,11l-51,-5z" id="path3942"/>
       <path d="m11541,7209l-6184,-2594l20,-47l20,-47l6184,2594l-20,47l-20,47z" id="path3944"/>
       <path d="m5377,4568l-42,-28l5,-7l7,-6l8,-5l8,-3l9,-2l9,0l8,2l8,2l-20,47z" id="path3946"/>
      </g>
     </g>
    </g>
    <g id="g3980">
     <g fill="#FFFFFF" id="g3978">
      <g id="g3960">
       <path d="m11513,9849l-1120,1184l-1218,-501l2338,-683z" fill="#FFFFFF" id="path3958"/>
      </g>
      <g id="g3974">
       <path d="m11550,9884l-1120,1184l-37,-35l-37,-35l1120,-1184l37,35l37,35z" id="path3962"/>
       <path d="m10393,11033l37,35l-7,6l-7,5l-8,3l-9,2l-9,0l-9,-1l-7,-3l19,-47z" id="path3964"/>
       <path d="m10374,11080l-1218,-501l19,-47l19,-47l1218,501l-19,47l-19,47z" id="path3966"/>
       <path d="m9175,10532l-19,47l-8,-4l-7,-5l-6,-7l-5,-7l-4,-9l-2,-8l0,-9l1,-9l3,-8l4,-8l5,-7l7,-6l7,-5l9,-4l1,0l14,49z" id="path3968"/>
       <path d="m9161,10483l2338,-683l14,49l14,49l-2338,683l-14,-49l-14,-49z" id="path3970"/>
       <path d="m11513,9849l-14,-49l8,-2l9,0l9,1l9,3l7,5l7,5l6,7l5,7l3,9l2,8l0,9l-1,9l-3,9l-5,7l-5,7l-37,-35z" id="path3972"/>
      </g>
     </g>
    </g>
   </g>
  </g>
 </g>
</svg>