<?xml version="1.0"?>
<svg viewBox="0 0 960 764" xmlns="http://www.w3.org/2000/svg" xmlns:svg="http://www.w3.org/2000/svg">
 <!-- Created with SVG-edit - https://github.com/SVG-Edit/svgedit-->

 <g class="layer">
  <title>Layer 1</title>
  <g id="channel-ED">
   <g id="svg_1" transform="scale(8)">
    <path d="m25.5,95.25c-1.13,-0.37 -2.14,-0.86 -3.25,-1.26c-1.83,-2 -2.85,-4.82 -5,-6.5l-4,0a37.08,37.08 0 0 0 -6,-0.25c-0.55,-0.44 -1.78,-0.21 -2.5,-0.5a2.26,2.26 0 0 1 -1.5,-1.5c0.06,-1.1 0.86,-1.47 1.75,-1.75c0.94,-0.22 2.26,-0.07 3,-0.5l6.75,0a12.59,12.59 0 0 1 3.98,-0.25c0.87,0.03 1.73,0.06 2.52,0c0.36,-0.36 1.14,-0.3 1.92,-0.25a6.42,6.42 0 0 0 1.33,0c2.77,0.02 5.58,0.01 8.39,0c7.31,-0.03 14.63,-0.06 21.36,0.5c0.7,-0.68 -0.62,-0.45 -0.75,-1a2.48,2.48 0 0 1 -1.5,-0.75a10.88,10.88 0 0 1 -2.75,-1.75c-1.6,-1.4 -3.17,-2.83 -4.75,-4.25a5.23,5.23 0 0 0 -1.5,-2a29.69,29.69 0 0 1 -2.5,-7.5c0.01,-2.49 -0.19,-5.19 0.5,-7a0.69,0.69 0 0 0 0.5,-0.75c2.27,-2.36 7.47,-2.97 12,-2.25c6.28,1.71 10.18,5.81 13.5,10.5c5.08,-7.59 10.57,-14.76 21.5,-16.5a12.28,12.28 0 0 1 3.7,0.23a13.02,13.02 0 0 0 3.3,0.27a6.93,6.93 0 0 1 2.5,3.25c0.75,1.08 0.82,2.84 1.25,4.25l0,4c-0.89,6.2 -4.23,9.94 -7.75,13.5c-1.86,1.14 -3.48,2.52 -5.25,3.75c-1.75,1.17 -3.8,2.04 -5.25,3.5c5.4,-0.35 10.39,-1.11 16,-1.25c2.84,-0.05 5.48,0.1 8.13,0.25c2.8,0.16 5.59,0.32 8.62,0.25c2.55,0.61 5.46,0.87 6.25,3.25c-0.85,0.57 -0.83,2.01 -2.5,1.75a5.95,5.95 0 0 1 -1.82,-0.13a5.77,5.77 0 0 0 -1.93,-0.12c-2.62,-0.13 -5.13,-0.37 -8,-0.25c-1.02,-0.1 -0.77,1.06 -1.5,1.25c-0.05,0.87 -0.89,0.95 -1,1.75c-0.65,1.18 -1.07,2.59 -1.75,3.75c-9.53,-0.21 -17.54,0.26 -25.75,0.75c-3.87,0.23 -7.7,0.27 -11.75,0.5a122.06,122.06 0 0 1 -12.25,0.5c-8.05,0.78 -16.98,0.69 -25.75,0.75c-0.01,-0.24 -0.31,-0.19 -0.5,-0.24zm41.5,-6a17.38,17.38 0 0 0 3.75,-0.25l5.5,0a1.27,1.27 0 0 0 0.81,-0.14a1.27,1.27 0 0 1 0.94,-0.11l3.5,0c1.57,-0.43 3.9,-0.1 5.5,-0.5l6.25,0c2.24,0.15 4.15,-0.02 4.5,-1.75l-1.25,0c-0.32,0.01 -0.35,0.32 -0.75,0.25c-9.01,0.24 -17.25,1.25 -26.5,1.25c-0.63,0.54 -2.06,0.28 -2.25,1.25zm-41.5,0a2.96,2.96 0 0 0 1.11,-0.14a2.81,2.81 0 0 1 1.39,-0.11l0,-1.5l-4,0c0.33,0.75 0.62,1.54 1.5,1.75zm6,-1.75l0,1c0.93,0.48 2.99,0.24 3.5,-0.5a1.58,1.58 0 0 0 -1.54,-0.71c-0.63,0 -1.34,0.14 -1.96,0.21zm6.5,0l0,0.75a8.21,8.21 0 0 0 4.5,-0.75a21.85,21.85 0 0 1 -2.38,-0.02c-0.49,-0.02 -0.96,-0.04 -1.34,-0.04a3.96,3.96 0 0 0 -0.78,0.06zm48.5,-23a2.85,2.85 0 0 1 -1.5,2.75c-0.68,0.74 -1.16,1.68 -2.25,2c-1.32,1.52 -3.14,2.52 -4.75,3.75a49.32,49.32 0 0 0 -4.25,4.25c-0.89,0.52 -1.3,1.53 -2,2.25a9.32,9.32 0 0 0 -1.75,2.5c6.55,-2.86 12.16,-6.67 17.75,-10.5c1.11,-1.47 2.63,-2.54 3.75,-4a15.44,15.44 0 0 0 1.5,-2.5c0.56,-0.78 0.71,-1.95 1.25,-2.75a28.77,28.77 0 0 0 0,-5.5a32.23,32.23 0 0 0 -3,-1.75c-6.69,-0.11 -10.06,3.1 -13.75,6a69.78,69.78 0 0 0 -4.75,6a25.03,25.03 0 0 0 -2,3.5c-0.63,0.92 -1.71,2.54 -1.25,3.75c0.07,0.59 0.68,-0.28 0.75,-0.5c0.07,-0.51 0.68,-0.49 0.75,-1a6.86,6.86 0 0 0 1.75,-1.75c1.41,-1.01 2.56,-2.27 4,-3.25a26.6,26.6 0 0 1 4.5,-2.75a9.14,9.14 0 0 1 3.65,-1.25a1.86,1.86 0 0 1 1.6,0.75zm-41,-3.75l0,0.5a17.71,17.71 0 0 0 5.25,13a47.58,47.58 0 0 1 4.75,3.5c0.92,0.08 1.38,0.61 2.25,0.75c0.59,0.17 1.68,1.13 2.25,0.5c-0.74,-0.68 -0.91,-1.93 -1.75,-2.5c-0.36,-1.15 -1.39,-1.61 -1.75,-2.75a11.42,11.42 0 0 1 -2.25,-2.25c-0.8,-0.71 -1.85,-1.16 -1.75,-2.75a1.88,1.88 0 0 1 1.75,-1.75c2.82,0.01 3.55,2.11 5.25,3.25c0.55,0.86 1.42,1.4 2,2.25c0.37,0.38 0.44,1.05 1,1.25c0.25,0.44 0.43,1.34 1,0.75a4.72,4.72 0 0 0 0,-2.75a10.54,10.54 0 0 0 -1,-2.5a18.85,18.85 0 0 0 -3,-3.75c-2.16,-2.35 -4.63,-4.38 -8.5,-5l-5,0c-0.25,0 -0.3,0.2 -0.5,0.25zm-39.5,13c-0.49,-0.68 -1.2,-1.14 -1.5,-2c-0.43,-1.82 -1.2,-3.3 -1.75,-5a53.45,53.45 0 0 1 -2.75,-11l0,-8.25c2.13,-14.03 9.36,-22.97 17.75,-30.75a7.6,7.6 0 0 1 -1.5,-5.75c0.51,-0.06 0.06,-1.1 0.5,-1.25c0.07,-0.51 0.67,-0.49 0.75,-1c0.29,-0.88 1.42,-0.91 1.75,-1.75c1.67,-0.66 3.07,-1.59 5.75,-1.25c0.69,0.48 1.7,0.64 2,1.5c0.7,0.38 0.64,1.53 1.25,2c2.24,-0.92 3.98,-2.34 6.5,-3a33.55,33.55 0 0 1 6.75,-2.75a58.08,58.08 0 0 1 15.75,-3.25c0.4,0.08 0.43,-0.23 0.75,-0.25l8.25,0a29.1,29.1 0 0 1 12,3.25c3.46,1.54 5.87,4.12 8.24,6.75a34.15,34.15 0 0 1 1.75,4c0.64,1.2 1.75,1.92 1.5,4c-0.24,2.67 -2.47,3.36 -4,4.75c-1.63,1.29 -2.86,2.97 -4.5,4.25c-2.88,2.86 -6.63,4.86 -10,7.25c-7.22,4.37 -15.01,8.16 -22,12.75a35.4,35.4 0 0 0 -5.25,3.5a7.46,7.46 0 0 0 -2.74,1.75a8.9,8.9 0 0 0 -2.5,1.75a41.34,41.34 0 0 0 -5.26,3.5a52.46,52.46 0 0 0 -5,3.5c-1.9,1.01 -3.45,2.37 -5.25,3.5c-1.61,1.3 -3.52,2.31 -5,3.75c-3.57,2.17 -6.19,5.31 -10.25,7c-0.86,-0.3 -1.87,-0.46 -1.99,-1.5zm35.75,-64.5c-2.52,0.9 -4.88,1.96 -7.25,3a4.94,4.94 0 0 1 -1.75,0.75a2.52,2.52 0 0 1 -1.75,1a13.92,13.92 0 0 1 -3.25,2c-0.48,0.61 -0.01,2.16 -0.76,2.5a58.72,58.72 0 0 1 -5,3.5a77.54,77.54 0 0 0 -8.75,12c-0.65,2.76 -2.12,4.71 -2.75,7.5c-1.39,2.11 -1.69,5.31 -2.5,8a75.14,75.14 0 0 0 -0.25,9c0.8,3.04 2.06,5.61 3,8.5a2.98,2.98 0 0 0 2.25,-1.5c1,-0.25 1.44,-1.06 2.25,-1.5a31.96,31.96 0 0 1 4.5,-3.25c1.16,-1.35 3.04,-1.96 4.25,-3.25c1.77,-0.82 2.95,-2.22 4.75,-3c1.23,-1.28 2.93,-2.08 4.25,-3.25a48.81,48.81 0 0 0 4.5,-3.25a10.68,10.68 0 0 0 2.25,-1.5c1.02,-0.32 1.46,-1.22 2.5,-1.5c1.21,-1.38 3.3,-1.88 4.5,-3.26a39.88,39.88 0 0 0 4.76,-2.74c1.73,-0.86 3.23,-1.94 5,-2.76c3.24,-1.83 6.42,-3.74 9.75,-5.5c1.4,-1.1 3.21,-1.78 4.5,-3c1.87,-0.7 2.94,-2.22 4.75,-3c1.17,-1.41 2.92,-2.24 4,-3.74c0.76,-0.49 1.13,-1.37 1.75,-2c0.71,-0.63 2.01,-0.66 2.25,-1.75a11.29,11.29 0 0 0 -1,-2.76c-0.9,-0.43 -0.83,-1.84 -1.5,-2.5c-4.67,-4.66 -11.6,-7.06 -21.5,-6.5c-0.32,0.02 -0.35,0.32 -0.75,0.25c-6.56,0.29 -11.82,1.86 -17,3.51zm-19.75,1.25c0.02,0.98 0.18,1.82 1,2c1.28,0.09 1.1,-1.67 0.75,-2.5l-0.08,0a4.36,4.36 0 0 0 -1.67,0.5zm-7.75,48.5c-2.15,-0.02 -2.36,-1.98 -2.5,-4l0,-6.5c-0.01,-0.59 0.43,-0.74 0.25,-1.5c1.51,-6.57 4.8,-11.37 8.25,-16c3.8,-4.29 7.53,-8.63 12.5,-11.75c0.52,0.11 0.66,-0.17 1,-0.25a2.34,2.34 0 0 1 2.5,1.25c-0.04,3.66 -3.37,4.4 -5,6.75c-2.18,1.66 -3.7,3.97 -5.75,5.75c-0.58,1.42 -1.82,2.18 -2.5,3.5c-0.76,1.16 -1.83,2 -2.25,3.5a10.82,10.82 0 0 0 -2,3.75c-0.98,0.94 -0.96,2.88 -1.75,4a27.6,27.6 0 0 1 -0.5,3.75l0,5c-0.55,0.29 -0.02,1.65 -0.75,1.75c-0.34,0.44 -0.53,1.02 -1.3,1.02a1.76,1.76 0 0 1 -0.2,-0.02z" data-name="0401-vegan" fill="#ffffff" id="_0401-vegan" xmlns="http://www.w3.org/2000/svg"/>
   </g>
  </g>
 </g>
</svg>