<?xml version="1.0"?>
<svg viewBox="0 0 376 372" xmlns="http://www.w3.org/2000/svg" xmlns:svg="http://www.w3.org/2000/svg">
 <!-- Created with SVG-edit - https://github.com/SVG-Edit/svgedit-->

 <g class="layer">
  <title>Layer 1</title>
  <g id="Graphic_Elements" transform="translate(-61.98, -64.2)">
   <g id="svg_1">
    <path d="m437.69,179.73c-0.01,-0.4 -0.02,-0.95 -0.01,-1.17c0.61,-4.62 0.26,-8.79 -0.05,-12.48c-0.05,-0.63 -0.1,-1.25 -0.14,-1.87l0,0c-0.36,-4.84 -1.43,-9.34 -3.18,-13.37c-4.25,-9.83 -9.87,-17.68 -17.18,-24.01c-5.22,-4.53 -11.19,-7.84 -17.74,-9.84c-6.68,-2.04 -13.22,-1.76 -18.82,-1.34c-3.04,0.23 -5.91,0.45 -7.38,-0.21c-1.07,-0.48 -2.08,-0.81 -3.02,-1.07c-2.19,-2.25 -4.4,-4.49 -6.61,-6.73l-1.47,-1.48c-3.19,-3.24 -6.89,-6.04 -11.01,-8.33c-9.45,-5.26 -19.46,-6.07 -28.94,-2.34c-0.4,0.15 -1.23,0.48 -3.91,-0.41c-2.7,-0.91 -5.46,-2.88 -8.65,-5.17c-0.02,-0.02 -0.04,-0.04 -0.06,-0.05c-2.18,-3.68 -5.03,-6.96 -8.48,-9.75c-8.02,-6.5 -17.16,-7.97 -24.24,-8.52c-4.44,-0.35 -8.62,0 -12.3,0.32c-1.18,0.09 -2.35,0.2 -3.52,0.27c-2.96,0.18 -6.48,0.53 -10.2,1.7c-0.12,0 -0.52,-0.01 -1.4,-0.2c-1.23,-0.26 -2.85,-1.04 -4.73,-1.94l-0.84,-0.4c-11.48,-5.45 -22.35,-7.75 -33.22,-7.01c-9.32,0.64 -17.56,3.8 -24.49,9.41c-0.63,0.51 -1.38,1.03 -2.27,1.56c-5.72,3.46 -11.62,6.56 -17.87,9.84c-1.97,1.03 -3.94,2.06 -5.9,3.11l-0.44,0.23c-5.17,2.75 -11.04,5.87 -16.38,10.43c-5.34,4.56 -8.84,10.24 -10.42,16.87c-0.18,0.78 -0.34,1.56 -0.51,2.34c-0.2,0.98 -0.41,2.01 -0.6,2.51c-0.51,1.39 -0.93,2.81 -1.26,4.24c-4,-0.24 -8.29,0.11 -12.73,1.54c-1.61,0.51 -3.2,1.05 -4.8,1.59c-0.98,0.33 -1.96,0.66 -2.95,0.98c-3.38,1.12 -6.65,2.59 -9.7,4.36c-11.6,6.74 -19.08,16.02 -22.22,27.59c-1.24,4.54 -2.25,9.07 -3.22,13.45l-0.71,3.18c-0.41,1.79 -0.52,3.38 -0.61,4.54c-0.02,0.27 -0.04,0.53 -0.06,0.79c-0.09,0.88 -0.25,2.52 -0.5,3.18c-2.33,5.91 -4.17,11.86 -5.95,17.61l-0.47,1.5c-2.15,6.94 -3.39,12.49 -4.01,18c-1.14,10.2 -0.47,19.47 2.07,28.33c2.11,7.35 4.96,14.96 8.71,23.28c2.48,5.49 4.36,10.87 5.76,16.45c2.08,8.32 4.24,16.74 6.33,24.89l0.31,1.21c0.67,2.6 1.36,5.3 1.62,7.66c0.06,0.6 0.12,1.19 0.18,1.78c0.17,1.65 0.34,3.36 0.61,5.17c1.27,8.49 3.77,17.34 7.63,27.05c3.46,8.69 8.28,16.83 14.33,24.22c5.7,6.95 11.97,12.98 17.36,17.96c9.75,9.02 21.42,14.99 35.67,18.24c5.22,1.2 10.17,1.75 15.15,1.68c3.33,-0.04 6.92,-0.08 10.53,-0.07c0.09,0 0.17,0 0.25,0c8.19,0 16.32,-1.52 24.2,-4.53c2.68,1.05 5.36,2.09 8.04,3.13c3.08,1.19 6.16,2.38 9.23,3.59c7.52,2.97 17.55,6.63 28.43,8.62c5.95,1.08 11.86,1.78 17.56,2.45l3.15,0.38c3.95,0.48 8.04,0.97 12.29,1.12l0.36,0.01c0.09,0 0.17,0 0.26,0c6.54,0 12.26,-1.43 17.11,-2.77c11.62,-3.21 22.6,-7.59 31.8,-11.46c7.28,-3.05 14.17,-7.3 20.49,-12.64c7.9,-6.66 15.24,-14.06 22.44,-22.62c7.84,-9.31 14.23,-19.72 18.98,-30.93c3.87,-9.12 7.3,-18.6 10.32,-26.96c4.57,-12.6 7.01,-25.44 7.27,-38.14c0.19,-9.24 1.41,-18.45 2.71,-28.2l0.27,-2.01c0.46,-3.45 1.03,-6.88 1.64,-10.51c0.23,-1.39 0.46,-2.77 0.69,-4.16c2.02,-12.49 3.96,-23.7 7.08,-34.42c3.18,-10.87 4.6,-21 4.36,-30.96l-0.02,-0.29z" fill="none" id="svg_2"/>
    <path d="m415.66,157.35c-2.56,-6.09 -6.24,-11.3 -11.2,-15.72c-5.23,-4.66 -11.22,-6.96 -18.18,-6.7c-3.88,0.14 -7.75,0.42 -11.62,0.62c-3.38,0.17 -6.55,-0.55 -9.32,-2.54c-5.08,-3.66 -10.31,-7.11 -14.79,-11.57c-2.86,-2.86 -6.2,-5.15 -9.89,-6.87c-2.47,-1.15 -5.06,-1.78 -7.82,-1.51c-1.49,0.15 -2.91,0.63 -4.34,1.03c-3.26,0.92 -6.55,1.57 -9.94,0.92c-9.48,-1.79 -17.42,-6.31 -23.17,-14.06c-5.85,-7.88 -13.8,-10.19 -23.01,-9.66c-4.53,0.26 -9.05,0.88 -13.62,0.75c-2.16,-0.06 -4.31,-0.03 -6.47,0.25c-1.99,0.27 -4.01,0.14 -6.03,-0.14c-4.35,-0.58 -8.29,-2.36 -12.28,-4.04c-5.61,-2.36 -11.4,-4 -17.52,-4.29c-4.57,-0.22 -9.08,0.25 -13.5,1.5c-1.68,0.47 -3.21,1.1 -4.63,2.15c-10.77,7.93 -21.83,15.4 -33.83,21.39c-2.86,1.43 -5.66,3.01 -8.25,4.94c-2.01,1.5 -3.8,3.19 -4.76,5.53c-1.31,3.18 -2.68,6.33 -3.76,9.59c-0.48,1.45 -0.65,2.9 -0.49,4.41c0.36,3.25 1.45,6.41 1.06,9.75c-0.08,0.7 1.92,2.25 2.66,1.99c1.13,-0.4 0.39,-1.37 0.32,-2.08c-0.09,-0.81 -0.33,-1.61 -0.46,-2.42c-0.54,-3.16 -1.21,-6.3 -1.01,-9.54c0.06,-1.13 0.18,-2.24 0.76,-3.24c0.52,-0.89 1.28,-1.48 2.36,-1.44c1.06,0.04 1.8,0.65 2.25,1.59c0.33,0.68 0.52,1.41 0.54,2.16c0.12,3.06 0.23,6.12 -0.22,9.16c-0.32,2.14 -0.56,4.29 -0.85,6.43c-0.09,0.6 -0.27,1.25 0.31,1.66c0.72,0.51 1.55,1.3 2.38,0.94c0.96,-0.43 0.33,-1.46 0.2,-2.21c-0.88,-4.89 -0.9,-9.8 -0.23,-14.71c0.12,-0.9 0.37,-1.76 0.88,-2.51c0.53,-0.8 1.25,-1.31 2.25,-1.16c0.89,0.12 1.47,0.7 1.78,1.52c0.4,1.06 0.61,2.16 0.66,3.28c0.22,4.63 0.25,9.25 -0.65,13.83c-0.2,1.03 -0.35,2.06 -0.5,3.09c-0.1,0.62 -0.09,1.23 0.52,1.59c1.18,0.7 2.37,1.4 3.97,1.88c-0.19,-0.7 -0.26,-1.05 -0.38,-1.39c-1.02,-2.78 -1.43,-5.65 -1.16,-8.59c0.19,-2.08 0.23,-4.17 0.35,-6.25c0.07,-1.11 0.23,-2.23 0.47,-3.32c0.14,-0.64 0.41,-1.3 0.77,-1.84c0.9,-1.33 2.21,-1.28 3.04,0.08c0.47,0.78 0.68,1.65 0.79,2.55c0.26,2 0.65,3.99 0.72,5.99c0.16,4.61 1.53,9.16 0.7,13.81c-0.04,0.22 -0.03,0.46 0.01,0.67c0.15,0.74 1.58,1.66 2.28,1.38c0.87,-0.34 0.46,-1.11 0.41,-1.74c0,-0.08 -0.03,-0.15 -0.05,-0.22c-1.29,-4.45 -1.1,-9.01 -1.05,-13.56c0.01,-0.98 0.12,-1.95 0.63,-2.81c1.01,-1.69 2.98,-1.68 3.95,0.03c0.56,0.98 0.71,2.11 0.89,3.21c0.48,2.97 0.46,5.95 0.43,8.94c-0.03,2.31 0.08,4.62 0.05,6.94c-0.01,1.22 0.49,1.93 1.62,2.35c2.03,0.75 4.07,1.49 6.21,1.86c1.57,0.27 1.89,-0.04 1.71,-1.63c-0.56,-4.82 -0.86,-9.66 -0.79,-14.51c0.12,-7.6 2.98,-13.91 9.11,-18.6c4.04,-3.08 8.1,-6.11 12.38,-8.86c4.9,-3.14 9.85,-6.2 14.53,-9.68c1.56,-1.16 3.16,-2.25 4.78,-3.32c0.93,-0.62 1.91,-1.16 2.89,-1.71c0.38,-0.21 0.85,-0.46 1.25,-0.13c0.54,0.43 0.2,0.99 -0.02,1.42c-0.41,0.8 -0.85,1.59 -1.4,2.29c-3.23,4.13 -6.83,7.89 -10.83,11.29c-6.19,5.28 -13.05,9.69 -19.35,14.86c-4.38,3.59 -6.63,7.9 -6.53,13.54c0.08,4.48 0.08,8.96 0.03,13.44c-0.04,3 -0.11,3 2.86,3.36c1.79,0.22 1.92,0.1 1.58,-1.77c-0.68,-3.74 -1.43,-7.47 -2.1,-11.22c-0.23,-1.32 -0.44,-2.67 -0.41,-4c0.04,-1.86 1.41,-3.22 3.03,-3.29c1.57,-0.07 2.8,1.02 3.16,2.89c0.23,1.25 0.49,2.51 0.34,3.78c-0.43,3.49 -0.15,7.02 -0.66,10.5c-0.11,0.73 -0.08,1.49 -0.07,2.23c0.01,0.59 0.33,0.93 0.91,1.11c1.84,0.58 2.49,0.09 2.39,-1.83c-0.01,-0.23 -0.03,-0.45 -0.06,-0.67c-0.5,-4 -1.02,-7.99 -1.51,-11.99c-0.16,-1.33 -0.3,-2.68 0.13,-3.99c0.39,-1.17 1.19,-1.89 2.43,-2.04c1.06,-0.12 2.07,0.53 2.64,1.71c0.52,1.09 0.66,2.28 0.69,3.48c0.11,3.45 -0.25,6.86 -0.76,10.26c-0.2,1.4 -0.46,2.79 -0.59,4.2c-0.12,1.18 0.75,1.26 1.63,1.3c0.87,0.03 1.46,-0.15 1.4,-1.21c-0.12,-2.09 -0.09,-4.19 -0.31,-6.26c-0.25,-2.38 -0.3,-4.76 -0.31,-7.15c0,-0.82 0.05,-1.65 0.4,-2.42c0.39,-0.85 0.93,-1.58 1.97,-1.57c0.92,0 1.48,0.63 1.85,1.41c0.19,0.4 0.34,0.83 0.43,1.27c0.36,1.76 0.53,3.53 0.28,5.34c-0.43,3.02 -0.82,6.06 -1.23,9.09c-0.27,1.96 -0.28,1.96 1.56,2.49c0.43,0.12 0.86,0.24 1.3,0.34c0.78,0.19 1.12,-0.18 1.1,-0.94c-0.05,-1.86 -0.01,-3.74 -0.18,-5.59c-0.26,-2.77 -0.23,-5.52 0.2,-8.26c0.1,-0.66 0.29,-1.31 0.53,-1.93c0.25,-0.65 0.69,-1.16 1.47,-1.2c0.8,-0.04 1.21,0.48 1.53,1.1c0.37,0.74 0.54,1.54 0.68,2.36c0.44,2.54 0.15,5.05 -0.24,7.56c-0.33,2.07 -0.67,4.13 -1.05,6.18c-0.23,1.2 0.06,2.06 1.31,2.44c0.28,0.08 0.55,0.23 0.82,0.34c1.9,0.75 2.11,0.59 1.95,-1.35c-0.22,-2.83 -0.4,-5.66 -0.6,-8.48c-0.07,-0.98 0.11,-1.94 0.32,-2.89c0.17,-0.74 0.45,-1.5 1.37,-1.54c0.9,-0.05 1.28,0.66 1.56,1.37c0.53,1.41 0.7,2.89 0.76,4.39c0.1,3.14 -0.09,6.27 -0.39,9.39c-0.12,1.29 0.25,2.31 1.22,3.19c0.72,0.65 1.31,1.43 1.93,2.17c2.17,2.65 2.85,5.8 3.3,9.12c1.04,7.82 -0.84,14.84 -5.64,21.01c-4.2,5.39 -9.68,9.35 -15.66,12.46c-6.34,3.29 -12.64,6.71 -19.5,8.88c-1.02,0.32 -1.49,0.8 -1.27,1.94c1.65,8.39 4.15,16.5 7.96,24.17c1.21,2.45 3.08,4.36 5.46,5.77c3.93,2.33 8.23,3.56 12.69,4.13c7.95,1.01 15.86,0.58 23.72,-1.37c-0.25,-2.03 -0.5,-4.18 -0.78,-6.32c-0.28,-2.17 0.2,-4.31 0.22,-6.47c0.07,-7.17 0.09,-14.33 0.94,-21.46c0.55,-4.59 0.74,-9.21 1.65,-13.76c2.05,-10.33 2.73,-20.68 0.67,-31.12c-0.81,-4.09 -1.38,-8.25 -0.53,-12.45c0.53,-2.64 1.07,-5.26 1.81,-7.85c1.18,-4.11 3.33,-7.62 6.45,-10.57c2.94,-2.77 6.02,-5.34 9.38,-7.59c4.65,-3.12 9.25,-6.31 13.84,-9.51c5.5,-3.83 9.91,-8.82 14.53,-13.59c0.36,-0.37 0.69,-0.78 1.06,-1.14c0.21,-0.2 0.5,-0.38 0.81,-0.22c0.42,0.2 0.38,0.61 0.28,0.97c-0.14,0.5 -0.31,0.99 -0.53,1.47c-0.76,1.7 -1.68,3.32 -2.77,4.85c-4.43,6.16 -9.58,11.6 -15.72,16.12c-5.11,3.76 -10.1,7.67 -15.19,11.47c-4.18,3.12 -6.74,7.2 -7.99,12.29c-1.19,4.84 -1.1,9.62 -0.12,14.42c2.1,10.29 1.89,20.59 0.38,30.94c-1.68,11.44 -2.75,22.95 -2.94,34.53c-0.03,1.57 -0.02,3.14 -0.12,4.7c-0.2,3 -0.05,5.98 0.68,8.89c1.6,6.39 4.55,11.96 9.99,15.98c2.12,1.57 4.56,2.52 6.88,3.72c3.09,1.6 6.44,2.21 9.91,2.45c5.2,0.36 10.17,-1.5 15.34,-1.45c0.89,0.01 1.09,-0.67 0.93,-1.43c-0.8,-3.88 -0.94,-7.84 -1.43,-11.76c-0.85,-6.84 -0.97,-13.69 -0.05,-20.54c1.33,-9.83 2.98,-19.61 5.2,-29.29c1.42,-6.19 2.73,-12.39 4.55,-18.48c1.4,-4.7 3.45,-9 6.7,-12.77c5.19,-6.02 11,-11.35 17.16,-16.34c9.96,-8.08 19.19,-16.82 25.61,-28.13c0.36,-0.65 0.71,-1.83 1.7,-1.37c0.85,0.39 0.4,1.47 0.27,2.24c-0.77,4.63 -2.54,8.89 -5.07,12.82c-3.78,5.86 -8.24,11.16 -13.29,15.97c-5.02,4.8 -10.45,9.14 -15.76,13.59c-6.07,5.09 -10.33,11.18 -12.36,18.97c-2.9,11.14 -5.27,22.37 -6.95,33.74c-1.1,7.46 -1.97,14.95 -1.45,22.52c0.27,3.87 0.61,7.73 0.85,11.6c0.15,2.47 0.49,4.9 0.99,7.31c0.21,1.03 0.57,1.99 1.14,2.9c2.79,4.42 6.71,7.63 11.27,9.97c3.97,2.04 8.16,3.68 12.28,5.42c1.3,0.55 2.68,0.98 4.06,1.24c2.27,0.42 4.58,0.7 6.86,-0.05c2.48,-0.81 4.96,-1.63 7.44,-2.45c3.5,-1.15 6.43,-3.14 8.7,-6.04c3.58,-4.56 6.3,-9.6 8.08,-15.12c0.7,-2.14 1.01,-4.34 0.6,-7.18c-1.18,1.48 -2.03,2.6 -2.93,3.68c-1.54,1.84 -3.15,3.6 -5.4,4.62c-0.96,0.44 -1.95,0.78 -3.03,0.61c-1.11,-0.18 -1.51,-1 -0.9,-1.95c0.32,-0.49 0.77,-0.91 1.2,-1.32c1.6,-1.49 2.84,-3.25 4.03,-5.06c4.69,-7.14 6.44,-15.18 7.25,-23.51c0.59,-6.08 0.78,-12.2 1.67,-18.26c0.33,-2.19 0.78,-4.46 0.4,-6.68c-0.34,-1.89 0.28,-3.19 1.72,-4.26c1.86,-1.38 3.71,-2.77 5.59,-4.12c3.71,-2.66 7.26,-5.5 10.12,-9.1c5.28,-6.67 9.13,-14.15 12.25,-22.03c0.43,-1.11 0.79,-2.25 1.19,-3.37c0.13,-0.36 0.29,-0.79 0.7,-0.78c0.62,0.01 0.59,0.57 0.6,1c0.07,2.48 -0.26,4.92 -0.73,7.34c-2.1,10.7 -4.75,21.26 -8.11,31.64c-0.23,0.72 -1.08,1.6 -0.33,2.24c0.68,0.58 1.7,0.15 2.55,-0.16c0.07,-0.02 0.15,-0.04 0.22,-0.07c6.78,-2.72 13.7,-5.16 19.83,-9.26c0.07,-0.04 0.13,-0.08 0.19,-0.12c0.39,-0.19 0.8,-0.58 1.19,-0.12c0.28,0.32 0.05,0.73 -0.15,1.02c-0.74,1.03 -1.39,2.15 -2.28,3.04c-4.4,4.46 -8.71,9.01 -13.6,12.97c-5.1,4.14 -10.12,8.37 -15.04,12.72c-1.12,0.99 -2.19,1.97 -2.69,3.49c-1.83,5.61 -3.32,11.31 -4.9,16.99c-0.26,0.95 -0.13,1.75 0.36,2.56c1.57,2.54 3.05,5.14 4.69,7.63c1.77,2.68 3.66,5.27 6.03,7.48c1.04,0.98 2.17,1.82 3.34,2.63c0.3,0.21 0.64,0.47 0.53,0.89c-0.14,0.56 -0.66,0.55 -1.09,0.5c-1.73,-0.17 -3.37,-0.65 -4.94,-1.36c-2.39,-1.09 -4.59,-2.5 -6.68,-4.07c-1.64,-1.23 -1.68,-1.24 -3.07,0.31c-2.61,2.88 -4.9,5.92 -6.29,9.67c-2.09,5.66 -5.19,10.76 -9.76,14.82c-2.84,2.53 -6.05,4.32 -9.88,4.89c-4.08,0.61 -8.2,0.26 -12.28,0.8c-0.58,0.08 -1.19,-0.06 -1.78,-0.12c-3.54,-0.33 -6.83,-1.52 -10,-3.06c-2.22,-1.07 -4.37,-2.32 -6.67,-3.18c-4.42,-1.66 -8.32,-4.16 -11.55,-7.49c-2.08,-2.15 -3.94,-2.85 -6.8,-1.71c-2.4,0.95 -4.97,1.44 -7.34,2.64c-7.21,3.67 -12.86,9.2 -17.98,15.25c-4.79,5.66 -8.38,12.16 -11.82,18.71c-2.29,4.36 -4.1,8.91 -5.32,13.73c-1.71,6.81 -3.97,13.46 -7.01,19.81c-0.26,0.54 -0.55,1.06 -0.86,1.57c-0.17,0.26 -0.47,0.43 -0.76,0.26c-0.16,-0.09 -0.28,-0.37 -0.27,-0.56c0,-0.37 0.09,-0.74 0.17,-1.1c2.35,-10.29 3.25,-20.76 3.86,-31.27c0.16,-2.68 0.35,-5.36 0.55,-8.04c0.37,-5.13 0.59,-10.27 0.67,-15.42c0.02,-1.29 -0.47,-2.06 -1.62,-2.64c-3.46,-1.75 -6.84,-3.65 -10.33,-5.35c-8.58,-4.2 -17.16,-8.39 -25.81,-12.45c-10.13,-4.76 -20.34,-9.35 -30.95,-12.97c-0.58,-0.2 -1.18,-0.73 -1.85,-0.24c-0.02,0.19 -0.07,0.35 -0.03,0.48c0.23,0.79 0.46,1.58 0.72,2.36c2.6,7.87 4.76,15.86 5.95,24.08c0.12,0.77 0.62,1.99 -0.2,2.23c-1.02,0.3 -0.99,-1.04 -1.21,-1.73c-3.5,-11.23 -8.31,-21.9 -13.85,-32.25c-5.26,-9.83 -11.15,-19.24 -18.87,-27.39c-0.8,-0.83 -1.4,-1.4 -2.64,-0.79c-6.07,2.96 -12.62,4.05 -19.23,4.81c-2.36,0.27 -4.77,0.35 -7.13,-0.17c-0.52,-0.11 -1.41,0.06 -1.36,-0.79c0.04,-0.66 0.82,-0.47 1.29,-0.57c3.82,-0.78 7.54,-1.85 11.11,-3.4c3.91,-1.69 7.81,-3.39 11.67,-5.18c4.98,-2.3 9.46,-5.38 13.43,-9.18c0.35,-0.33 0.95,-0.52 0.83,-1.17c-0.23,-0.37 -0.61,-0.47 -0.94,-0.61c-5.44,-2.35 -10.45,-5.45 -15.36,-8.72c-4.11,-2.73 -7.93,-5.84 -11.42,-9.35c-1.23,-1.24 -2.13,-2.67 -2.76,-4.29c-0.13,-0.35 -0.29,-0.75 0.12,-0.99c0.27,-0.16 0.58,-0.01 0.84,0.15c0.25,0.17 0.48,0.35 0.73,0.52c8.97,6.27 18.52,11.49 28.7,15.47c7.48,2.92 15.28,4.41 23.38,4.48c8.44,0.08 16.35,-2.3 24.31,-4.57c0.63,-0.18 1.22,-0.56 1.8,-0.9c4.01,-2.33 7.68,-5.12 11.29,-8.04c7.83,-6.31 11,-14.6 10.69,-24.45c-0.03,-1.19 -0.48,-2.13 -1.21,-3.04c-2.33,-2.89 -5.35,-4.72 -8.88,-5.74c-4.17,-1.21 -8.39,-1.95 -12.78,-1.95c-8.42,0.01 -16.63,-1.34 -24.5,-4.5c-2.77,-1.11 -5.57,-2.17 -8.41,-3.08c-8.93,-2.84 -17.39,-6.73 -25.51,-11.36c-2.73,-1.55 -5.5,-3.03 -8.41,-4.19c-8.06,-3.23 -16.08,-3.69 -23.95,0.63c-0.98,0.54 -2,1.01 -2.98,1.55c-8.77,4.83 -15.06,11.63 -17.32,21.67c-0.43,1.89 -1.04,3.75 -1.74,5.55c-0.71,1.84 -1,3.74 -1.22,5.67c-0.22,1.92 -0.41,3.86 -0.75,5.77c-1.12,6.33 -3.12,12.44 -4.77,18.64c-1.62,6.12 -3.81,12.09 -4.61,18.43c-1.05,8.42 -0.54,16.67 2.02,24.77c1.8,5.7 3.9,11.29 6.27,16.77c2.46,5.68 5.02,11.32 6.61,17.34c1.6,6.05 2.93,12.19 5.39,17.99c0.52,1.22 0.79,2.57 1.05,3.89c0.77,3.87 1.53,7.75 2.21,11.65c1.49,8.52 2.66,17.09 5.36,25.37c3.27,10.02 7.59,19.45 14.2,27.74c5.37,6.73 11.25,12.96 17.8,18.55c10.57,9.02 22.99,12.99 36.67,13.35c7.61,0.2 15.21,-0.54 22.8,-0.91c0.86,-0.05 1.71,-0.28 2.63,-0.43c-0.18,-0.23 -0.24,-0.39 -0.35,-0.45c-5.86,-2.81 -11.8,-5.4 -18.15,-6.93c-1.96,-0.47 -3.89,-1.08 -5.8,-1.71c-0.78,-0.26 -2.09,-0.4 -1.84,-1.49c0.2,-0.91 1.43,-0.54 2.19,-0.48c5.72,0.44 11.48,0.85 17.02,2.45c12.32,3.57 24.54,7.5 36.59,11.93c6.02,2.21 12.01,4.56 18.22,6.2c14.03,3.72 28.32,5.81 42.83,6.35c2.02,0.08 4.02,0.26 6,-0.22c5.52,-1.34 10.99,-2.81 16.21,-5.09c4.37,-1.92 8.76,-3.8 13.12,-5.76c6.23,-2.81 12.01,-6.34 17.19,-10.8c7.71,-6.63 14.86,-13.81 21.55,-21.47c7.42,-8.51 13.43,-18 18.47,-27.96c5.87,-11.62 9.42,-24.16 11.79,-37c1.38,-7.53 1.29,-15.15 1.75,-22.74c0.49,-8.29 1.37,-16.53 3.43,-24.57c1.69,-6.6 2.72,-13.26 3.32,-20.04c0.98,-11.09 2.85,-22.04 5.61,-32.84c1.61,-6.29 3.02,-12.61 3.57,-19.11c0.24,-2.84 0.1,-5.68 0.4,-8.5c0.51,-4.63 0.22,-9.24 -0.22,-13.85c-0.29,-3.06 -1.11,-5.99 -2.31,-8.84zm-222.76,-57.68c-0.7,0.49 -1.36,1.16 -2.46,1.1c0,-0.77 0.4,-1.04 0.7,-1.35c3.43,-3.53 6.87,-7.05 10.31,-10.57c0.99,-1.02 2.05,-1.96 3.39,-2.52c1.24,-0.52 2.24,-0.33 2.84,0.47c0.6,0.81 0.44,1.76 -0.56,2.79c-0.46,0.47 -0.99,0.9 -1.54,1.28c-4.22,2.95 -8.44,5.89 -12.68,8.8zm5.79,2.26c-0.16,-0.78 0.47,-1.08 0.86,-1.46c3.2,-3.11 6.18,-6.45 9.27,-9.67c0.98,-1.02 2.05,-1.95 3.14,-2.85c0.62,-0.53 1.37,-0.93 2.2,-1.04c1.48,-0.21 2.45,0.91 2.05,2.35c-0.17,0.58 -0.54,1.05 -0.93,1.51c-1.07,1.24 -2.18,2.46 -3.53,3.41c-3.71,2.61 -7.46,5.18 -11.44,7.38c-0.49,0.27 -0.97,0.73 -1.62,0.37zm18.26,-5.92c-2.56,1.94 -5.24,3.68 -8.02,5.28c-0.52,0.29 -1.08,0.51 -1.63,0.73c-0.21,0.08 -0.48,0.05 -0.57,-0.19c-0.07,-0.18 -0.09,-0.45 -0.01,-0.62c0.17,-0.32 0.41,-0.62 0.66,-0.9c3.37,-3.78 6.59,-7.7 10.48,-10.97c0.45,-0.39 0.91,-0.78 1.41,-1.09c0.61,-0.37 1.27,-0.45 1.88,0.05c0.51,0.42 0.59,1 0.51,1.58c-0.13,0.8 -0.5,1.44 -0.92,2.06c-1.07,1.53 -2.28,2.93 -3.79,4.07zm10.57,-2.9c-1.81,2.3 -3.95,4.24 -6.47,5.74c-0.32,0.18 -0.67,0.36 -1.03,0.41c-0.61,0.09 -0.87,-0.31 -0.6,-0.8c0.38,-0.72 0.91,-1.36 1.38,-2.03c1.14,-1.65 2.29,-3.3 3.44,-4.95c0.47,-0.67 0.96,-1.33 1.74,-1.68c1.2,-0.54 2.32,0.19 2.3,1.55c-0.05,0.62 -0.34,1.23 -0.76,1.76zm12.54,14.65c-0.59,0.41 -1.14,0.99 -2.14,0.83c-0.16,-0.93 0.45,-1.37 0.85,-1.85c2.7,-3.29 5.28,-6.66 7.65,-10.19c0.46,-0.68 0.97,-1.31 1.72,-1.72c1.19,-0.65 2.5,-0.51 3.29,0.35c0.8,0.87 0.85,2.17 0.06,3.29c-0.3,0.42 -0.68,0.8 -1.07,1.13c-3.35,2.86 -6.74,5.65 -10.36,8.16zm7.12,2.37c-0.17,0.14 -0.39,0.21 -0.76,-0.06c-0.24,-0.83 0.11,-1.51 0.48,-2.13c2.42,-4.02 4.78,-8.07 7.78,-11.69c0.58,-0.7 1.23,-1.3 1.99,-1.78c1.67,-1.09 3.32,-0.98 4.43,0.29c1.05,1.19 1.01,2.8 -0.29,4.24c-1.03,1.16 -2.15,2.28 -3.39,3.22c-3.45,2.59 -6.96,5.09 -10.24,7.91zm8.57,-0.57c-0.35,0.25 -0.7,0.6 -1.42,0.17c0.26,-1.12 0.96,-1.91 1.59,-2.72c2.79,-3.58 5.61,-7.14 8.45,-10.68c0.6,-0.75 1.29,-1.45 2.02,-2.07c1.13,-0.96 2.44,-1.04 3.26,-0.33c0.8,0.71 0.88,1.73 0.2,3.07c-0.44,0.87 -1.05,1.62 -1.75,2.3c-3.84,3.75 -8.02,7.1 -12.35,10.26zm8.98,-2.22c-0.46,0.36 -0.87,0.83 -1.51,0.81c-0.27,-0.07 -0.48,-0.24 -0.4,-0.46c0.12,-0.34 0.3,-0.68 0.54,-0.95c2.62,-2.97 4.82,-6.26 7.2,-9.41c0.76,-1.01 1.55,-2.01 2.6,-2.75c0.65,-0.45 1.36,-0.69 2.05,-0.1c0.67,0.56 0.65,1.29 0.37,2.04c-0.29,0.78 -0.81,1.42 -1.34,2.04c-2.82,3.31 -6.08,6.14 -9.51,8.78zm18.48,-9.03c-2.76,3.34 -5.99,6.17 -9.53,8.65c-0.35,0.24 -0.8,0.6 -1.19,0.16c-0.37,-0.43 0.05,-0.83 0.31,-1.16c2.31,-3 4.61,-6 6.95,-8.97c0.6,-0.75 1.3,-1.45 2.24,-1.78c1.11,-0.39 2.05,0.22 2.02,1.29c-0.06,0.69 -0.38,1.29 -0.8,1.81zm-24.29,115.05c-0.1,0.51 -0.22,1.02 -0.4,1.5c-0.06,0.17 -0.34,0.36 -0.51,0.35c-0.16,0 -0.39,-0.21 -0.47,-0.38c-0.31,-0.71 -0.24,-1.47 -0.2,-2.21c0.27,-5.59 0.44,-11.18 0.35,-16.78c-0.09,-6.27 -0.69,-12.5 -1.56,-18.7c-0.28,-1.99 -0.49,-4 -0.65,-6c-0.06,-0.81 -0.01,-1.66 0.15,-2.45c0.33,-1.65 1.43,-2.62 2.86,-2.69c1.35,-0.06 2.41,0.67 3.01,2.22c0.67,1.75 0.98,3.6 1.22,5.45c0.29,2.21 0.62,4.44 0.46,6.69c-0.19,7.61 -1.01,15.17 -2.35,22.66c-0.61,3.45 -1.27,6.9 -1.91,10.34zm11.68,-32.94c-0.06,7.43 -1.7,14.64 -3.22,21.86c-1.18,5.62 -2.45,11.22 -4.15,16.71c-0.39,1.28 -0.86,2.54 -1.35,3.79c-0.18,0.45 -0.34,1.02 -1.06,0.97c-0.48,-0.66 -0.07,-1.3 0.06,-1.91c1.31,-5.83 2.04,-11.75 2.66,-17.68c1.11,-10.53 1.66,-21.1 1.75,-31.69c0.01,-0.59 0.06,-1.19 0.2,-1.77c0.18,-0.76 0.62,-1.35 1.46,-1.51c0.93,-0.17 1.6,0.23 2.11,0.95c0.48,0.69 0.71,1.48 0.9,2.28c0.61,2.63 0.66,5.32 0.64,8zm5.93,6.29c-0.66,8.92 -1.9,17.78 -3.9,26.51c-0.29,1.27 -0.39,2.64 -1.46,3.87c-0.76,-0.99 -0.46,-1.83 -0.41,-2.6c0.56,-7.51 0.87,-15.03 0.86,-22.56c-0.01,-5.22 -0.03,-10.44 -0.05,-15.65c0,-0.67 -0.01,-1.35 0.09,-2.01c0.12,-0.84 0.43,-1.65 1.4,-1.8c1.09,-0.18 1.63,0.56 1.98,1.43c0.26,0.62 0.48,1.27 0.61,1.92c0.69,3.59 1.16,7.23 0.88,10.89zm4.54,12.82c-0.66,5.32 -1.41,10.63 -2.57,15.88c-0.2,0.92 -0.23,1.93 -1.14,2.74c-0.69,-0.74 -0.45,-1.44 -0.42,-2.07c0.69,-12.21 0.35,-24.44 0.46,-36.66c0.02,-1.49 -0.02,-2.99 0.35,-4.45c0.11,-0.43 0.2,-0.87 0.38,-1.28c0.28,-0.63 0.7,-1.21 1.48,-1.15c0.7,0.05 0.95,0.67 1.13,1.24c0.86,2.64 1.16,5.38 1.32,8.14c0.35,5.9 -0.26,11.76 -0.99,17.61zm6.71,-14.1c-0.66,5.84 -1.63,11.64 -3.06,17.35c-0.22,0.91 -0.32,1.92 -1.18,2.68c-0.74,-0.47 -0.48,-1.02 -0.43,-1.51c0.61,-6.37 1.01,-12.75 1.11,-19.15c0.03,-1.63 0.23,-3.26 0.42,-4.89c0.06,-0.58 0.25,-1.17 0.48,-1.71c0.33,-0.76 0.78,-1.54 1.78,-1.39c0.96,0.14 0.9,1.02 1.07,1.74c0.53,2.31 0.07,4.61 -0.19,6.88zm10.29,-59.31c-0.56,0.47 -1.15,0.93 -1.8,1.06c-0.51,-0.11 -0.59,-0.41 -0.49,-0.71c0.13,-0.34 0.35,-0.65 0.55,-0.96c1.98,-3.25 3.96,-6.5 5.95,-9.75c0.51,-0.82 0.99,-1.67 1.72,-2.33c1.27,-1.15 2.73,-1.26 3.85,-0.3c1.05,0.89 1.24,2.26 0.43,3.65c-0.38,0.63 -0.84,1.25 -1.39,1.74c-2.92,2.56 -5.87,5.08 -8.82,7.6zm7.15,2.08c-0.27,0.22 -0.68,0.44 -0.99,0.06c-0.29,-0.35 -0.05,-0.72 0.14,-1.02c2.07,-3.27 4.01,-6.62 6.4,-9.68c0.66,-0.83 1.45,-1.52 2.54,-1.7c1.21,-0.21 2.05,0.52 2.05,1.63c-0.04,0.86 -0.32,1.56 -0.79,2.15c-2.64,3.36 -6.02,5.94 -9.35,8.56zm6.77,1.08c-0.31,0.22 -0.64,0.38 -1.19,0.15c-0.13,-0.67 0.29,-1.04 0.59,-1.44c2.41,-3.3 4.9,-6.53 7.55,-9.65c0.53,-0.62 1.1,-1.19 1.87,-1.55c0.66,-0.3 1.29,-0.33 1.86,0.18c0.58,0.51 0.67,1.16 0.37,1.82c-0.28,0.6 -0.59,1.22 -1.03,1.71c-2.96,3.35 -6.44,6.13 -10.02,8.78zm7.37,0.75c-0.46,0.36 -0.97,0.68 -1.47,0.99c-0.21,0.12 -0.44,0.09 -0.61,-0.09c-0.16,-0.18 -0.18,-0.41 -0.06,-0.61c0.19,-0.32 0.4,-0.63 0.62,-0.93c2.56,-3.48 5.11,-6.97 7.7,-10.43c0.89,-1.19 1.82,-2.38 3.19,-3.07c1.21,-0.6 2.4,0.06 2.43,1.33c-0.11,0.96 -0.6,1.81 -1.23,2.55c-1.03,1.18 -2.1,2.31 -3.2,3.42c-2.36,2.38 -4.72,4.77 -7.37,6.84zm17.38,-9.35c-2.3,3.17 -5.28,5.6 -8.47,7.81c-0.31,0.21 -0.69,0.38 -1.02,0.08c-0.34,-0.33 -0.12,-0.7 0.11,-0.99c2.17,-2.82 4,-5.89 6.36,-8.58c0.49,-0.56 1.01,-1.1 1.77,-1.28c1.02,-0.24 1.86,0.36 1.89,1.33c-0.04,0.61 -0.28,1.15 -0.64,1.63zm-31.08,123.68c-0.04,0.22 -0.09,0.44 -0.16,0.65c-0.15,0.39 -0.12,1.01 -0.76,0.88c-0.56,-0.12 -0.46,-0.69 -0.47,-1.11c-0.03,-0.82 -0.01,-1.64 -0.01,-2.46c-0.03,0 -0.06,-0.01 -0.08,-0.01c0.5,-5.04 0.92,-10.08 1.53,-15.11c0.94,-7.83 1.97,-15.66 3.05,-23.48c0.32,-2.28 0.91,-4.52 1.42,-6.77c0.23,-1.02 0.6,-2.01 1.23,-2.86c0.85,-1.15 1.97,-1.64 3.07,-1.31c1.28,0.39 1.99,1.3 2.09,2.62c0.12,1.64 0,3.27 -0.22,4.9c-0.94,6.89 -3.02,13.51 -4.74,20.22c-2.03,7.94 -4.33,15.8 -5.95,23.84zm10.13,-3.61c-0.18,0.77 -0.07,2.17 -1.2,1.96c-0.82,-0.15 -0.4,-1.45 -0.34,-2.21c0.89,-10.68 2.05,-21.33 3.29,-31.98c0.43,-3.62 0.87,-7.24 1.47,-10.84c0.09,-0.58 0.24,-1.16 0.41,-1.73c0.33,-1.1 1.04,-1.82 2.22,-1.89c1.04,-0.06 1.93,0.77 2.32,2.07c0.09,0.29 0.17,0.59 0.18,0.88c0.02,1.04 0.01,2.08 0.01,3.12c-0.07,5.55 -1.28,10.93 -2.54,16.29c-1.9,8.12 -3.85,16.23 -5.82,24.33zm8.52,-3.29c-0.19,0.64 -0.45,1.26 -0.71,1.87c-0.09,0.22 -0.31,0.31 -0.55,0.27c-0.25,-0.05 -0.38,-0.24 -0.38,-0.48c-0.01,-0.44 -0.03,-0.89 0.02,-1.33c1.26,-9.69 1.59,-19.44 2.26,-29.17c0.18,-2.52 0.3,-5.06 0.83,-7.55c0.16,-0.72 0.33,-1.46 0.6,-2.14c0.34,-0.87 0.88,-1.64 1.91,-1.66c1.06,-0.02 1.54,0.78 1.87,1.65c0.41,1.05 0.65,2.14 0.68,3.27c0.02,0.67 0.01,1.34 0.01,2.01c-0.15,4.33 -0.88,8.58 -1.72,12.82c-1.37,6.87 -2.78,13.73 -4.82,20.44zm6.72,3.2c-0.19,0.68 -0.21,1.89 -1.02,1.73c-1.07,-0.2 -0.49,-1.34 -0.43,-2.08c0.55,-6.46 1.26,-12.91 1.6,-19.39c0.26,-4.99 0.57,-9.97 0.86,-14.96c0.05,-0.9 0.24,-1.78 0.55,-2.62c0.37,-1.02 0.94,-1.9 2.18,-1.96c1.26,-0.06 1.82,0.83 2.27,1.82c0.7,1.55 0.63,3.2 0.64,4.85c-0.16,4.19 -0.97,8.29 -1.8,12.38c-1.38,6.8 -2.93,13.56 -4.85,20.23zm11.04,-18.84c-1.04,5.03 -1.93,10.1 -3.49,15c-0.21,0.64 -0.43,1.28 -0.7,1.89c-0.14,0.32 -0.35,0.71 -0.82,0.54c-0.44,-0.16 -0.43,-0.59 -0.39,-0.95c0.41,-3.25 0.63,-6.51 0.86,-9.78c0.36,-5.19 0.82,-10.38 1.23,-15.58c0.09,-1.12 0.33,-2.2 0.87,-3.2c0.48,-0.91 1.14,-1.61 2.28,-1.46c1.17,0.16 1.51,1.08 1.69,2.08c0.06,0.36 0.09,0.73 0.13,1.03c-0.31,3.57 -0.95,7.01 -1.66,10.43zm16.66,-72.42c-0.3,0.21 -0.63,0.42 -0.97,0.52c-0.55,0.16 -0.89,-0.08 -0.76,-0.68c0.09,-0.35 0.29,-0.68 0.48,-1c1.82,-2.99 3.76,-5.89 5.8,-8.74c0.68,-0.93 1.47,-1.68 2.88,-1.77c1.39,-0.05 2.48,1.28 2.09,2.81c-0.24,0.97 -0.79,1.78 -1.52,2.43c-2.55,2.28 -5.19,4.46 -8,6.43zm7.86,1.96c-0.62,0.46 -1.19,1.15 -2.28,1.02c-0.13,-0.94 0.45,-1.39 0.85,-1.88c3,-3.71 6.03,-7.39 9.04,-11.08c0.61,-0.76 1.24,-1.49 2.21,-1.82c1.18,-0.39 2.32,-0.07 3,0.85c0.7,0.96 0.69,2.09 -0.09,3.1c-0.32,0.41 -0.72,0.75 -1.14,1.07c-3.85,2.92 -7.71,5.85 -11.59,8.74zm11.39,0.76c-0.5,0.33 -1,0.66 -1.53,0.93c-0.5,0.25 -1.09,0.81 -1.58,0.18c-0.39,-0.49 0.16,-0.96 0.48,-1.34c2.82,-3.36 5.29,-7 7.94,-10.49c1.04,-1.36 2.18,-2.66 3.9,-3.2c1.61,-0.49 2.9,0.41 2.94,2.02c0,0.69 -0.23,1.31 -0.57,1.9c-0.48,0.85 -1.09,1.6 -1.81,2.24c-3.12,2.77 -6.31,5.44 -9.77,7.76zm4.53,3.12c-0.5,-0.04 -0.72,-0.29 -0.51,-0.73c0.15,-0.33 0.39,-0.63 0.63,-0.9c2.83,-3.09 5.19,-6.53 7.71,-9.86c0.72,-0.94 1.4,-1.94 2.35,-2.68c1.02,-0.81 2.15,-0.85 2.84,-0.13c0.8,0.84 0.67,1.77 0.1,2.66c-0.31,0.5 -0.7,0.97 -1.11,1.4c-3.21,3.33 -6.6,6.45 -10.32,9.22c-0.53,0.4 -1.05,0.84 -1.69,1.02zm15.34,-6.18c-1.92,2.1 -4.11,3.89 -6.29,5.7c-1.03,0.85 -2.1,1.66 -3.18,2.45c-0.33,0.24 -0.78,0.62 -1.17,0.13c-0.27,-0.35 0.04,-0.69 0.28,-0.97c2.81,-3.28 5.61,-6.56 8.43,-9.83c0.48,-0.57 1.02,-1.11 1.76,-1.33c0.92,-0.29 1.68,0.26 1.69,1.3c-0.12,0.99 -0.82,1.79 -1.52,2.55zm-266.63,-4.04c1,-0.05 1.91,0.27 2.82,0.63c2.53,0.97 4.77,2.47 7.02,3.93c7.01,4.55 14.09,8.98 21.63,12.64c0.44,0.21 1.04,0.32 1.09,1.16c-0.82,0.46 -1.53,0.14 -2.24,-0.01c-6.6,-1.44 -12.77,-4.13 -19,-6.62c-2.77,-1.11 -5.48,-2.38 -8.19,-3.61c-1.36,-0.62 -2.64,-1.4 -3.8,-2.36c-0.82,-0.68 -1.47,-1.49 -1.73,-2.55c-0.45,-1.77 0.57,-3.11 2.4,-3.21zm-17.97,6.41c0.49,-0.95 1.47,-1.2 2.94,-0.61c1.15,0.47 2.26,1.07 3.39,1.62c0.29,-0.57 -0.15,-0.92 -0.21,-1.35c-0.31,-2.27 1.37,-3.82 3.55,-3.17c0.91,0.27 1.78,0.77 2.59,1.28c5.19,3.23 10.34,6.51 15.54,9.74c3.54,2.2 7.24,4.13 11.08,5.79c0.34,0.15 0.69,0.29 1,0.49c0.16,0.1 0.31,0.34 0.31,0.52c0.03,0.4 -0.34,0.52 -0.61,0.48c-1.1,-0.17 -2.21,-0.34 -3.29,-0.6c-5.61,-1.34 -10.89,-3.59 -16.18,-5.82c-0.67,-0.28 -1.33,-0.58 -1.99,-0.87c-0.05,0.09 -0.09,0.18 -0.14,0.27c3.77,2.1 7.53,4.19 11.59,6.45c-1.31,0.69 -2.1,0.17 -2.87,-0.1c-4.93,-1.72 -9.77,-3.66 -14.57,-5.71c-2.74,-1.17 -5.46,-2.39 -8.17,-3.61c-1.09,-0.49 -2.15,-1.07 -3.07,-1.84c-1.05,-0.89 -1.38,-2.04 -0.89,-2.96zm-3.88,3.83c0.54,-0.83 1.35,-0.85 2.17,-0.54c1.25,0.48 2.51,0.95 3.72,1.54c7.76,3.8 15.28,8.06 22.84,12.24c0.31,0.17 0.68,0.33 0.73,1.08c-0.91,0.19 -1.67,-0.13 -2.42,-0.38c-7.21,-2.42 -14.3,-5.12 -21.29,-8.12c-1.51,-0.65 -2.93,-1.46 -4.22,-2.5c-0.46,-0.37 -0.92,-0.77 -1.26,-1.24c-0.45,-0.62 -0.75,-1.34 -0.27,-2.08zm0.41,7.23c-0.5,-0.38 -0.83,-0.9 -0.55,-1.56c0.31,-0.74 0.94,-0.89 1.66,-0.76c0.36,0.07 0.73,0.16 1.07,0.31c4.33,1.99 8.48,4.3 12.45,6.94c0.3,0.21 0.61,0.43 0.62,1.01c-0.5,0.38 -0.94,0.2 -1.34,0.04c-4.15,-1.65 -8.35,-3.16 -12.38,-5.09c-0.53,-0.25 -1.06,-0.54 -1.53,-0.89z" fill="#FFFFFF" id="svg_3"/>
    <g id="svg_4">
     <path d="m422.84,155.8c-3.24,-7.5 -7.66,-14.12 -13.89,-19.53c-3.92,-3.39 -8.35,-5.84 -13.22,-7.32c-4.6,-1.41 -9.46,-1.19 -14.23,-0.83c-4.56,0.34 -9.07,0.67 -13.41,-1.27c-0.74,-0.33 -1.56,-0.52 -2.36,-0.69c-1.37,-0.28 -2.46,-0.95 -3.43,-1.96c-3.02,-3.11 -6.06,-6.18 -9.1,-9.26c-2.43,-2.46 -5.18,-4.51 -8.2,-6.19c-5.84,-3.25 -11.9,-4.14 -18.28,-1.63c-4.16,1.64 -8.25,1.22 -12.45,-0.19c-5.23,-1.74 -9.42,-5.08 -13.8,-8.17c-0.7,-0.5 -1.01,-1.28 -1.4,-2c-1.51,-2.7 -3.49,-4.99 -5.9,-6.94c-5.07,-4.11 -11.11,-5.28 -17.34,-5.77c-4.71,-0.37 -9.39,0.31 -14.08,0.6c-2.44,0.16 -4.91,0.42 -7.27,1.17c-2.58,0.82 -5.14,0.64 -7.73,0.08c-2.96,-0.63 -5.61,-1.99 -8.31,-3.27c-8.53,-4.05 -17.4,-6.48 -27,-5.82c-6.56,0.44 -12.38,2.52 -17.47,6.64c-1.17,0.95 -2.39,1.78 -3.67,2.55c-7.93,4.79 -16.21,8.94 -24.37,13.28c-5.08,2.7 -10.15,5.36 -14.57,9.14c-3.26,2.78 -5.4,6.13 -6.38,10.26c-0.5,2.1 -0.8,4.28 -1.55,6.29c-1.47,3.99 -1.57,8 -0.87,12.11c0.6,3.49 0.48,3.49 -2.81,2.42c-5.96,-1.94 -12,-3.18 -18.22,-1.19c-2.56,0.82 -5.09,1.7 -7.64,2.54c-2.56,0.85 -5.02,1.95 -7.34,3.3c-7.98,4.63 -13.97,10.97 -16.45,20.06c-1.44,5.32 -2.58,10.72 -3.79,16.1c-0.28,1.23 -0.3,2.51 -0.42,3.78c-0.22,2.22 -0.48,4.43 -1.31,6.55c-2.35,5.98 -4.21,12.12 -6.12,18.25c-1.59,5.14 -2.92,10.31 -3.52,15.69c-0.89,7.95 -0.54,15.78 1.67,23.49c2.12,7.4 4.92,14.57 8.08,21.57c2.71,6.02 4.89,12.18 6.49,18.57c2.18,8.68 4.4,17.35 6.63,26.03c0.8,3.11 1.58,6.21 1.93,9.41c0.24,2.15 0.41,4.31 0.73,6.45c1.26,8.38 3.76,16.43 6.88,24.28c3.03,7.61 7.19,14.58 12.39,20.92c4.93,6.02 10.46,11.43 16.17,16.71c8.59,7.94 18.7,12.65 29.97,15.23c4.02,0.92 8.07,1.42 12.2,1.36c3.58,-0.04 7.16,-0.08 10.75,-0.07c7.72,0.03 15.11,-1.59 22.18,-4.61c1.52,-0.65 2.78,-0.64 4.27,-0.05c6.59,2.62 13.22,5.12 19.81,7.73c8.48,3.35 17.08,6.3 26.08,7.94c5.87,1.08 11.8,1.75 17.72,2.45c4.52,0.53 9.02,1.15 13.47,1.31c4.86,0.03 9.43,-1.06 13.97,-2.32c10.37,-2.87 20.39,-6.77 30.29,-10.93c6.29,-2.64 12.03,-6.25 17.27,-10.67c7.61,-6.42 14.53,-13.5 20.94,-21.12c7.07,-8.4 12.74,-17.65 17.02,-27.75c3.68,-8.66 6.89,-17.5 10.09,-26.34c3.99,-11.04 6.28,-22.41 6.52,-34.14c0.21,-10.62 1.69,-21.11 3.08,-31.6c0.67,-5.03 1.57,-10.03 2.38,-15.03c1.96,-12.08 3.99,-24.15 7.43,-35.92c2.59,-8.87 4.08,-17.88 3.85,-27.15c-0.03,-1.12 -0.07,-2.25 0.08,-3.35c0.53,-3.97 0.03,-7.91 -0.26,-11.84c-0.24,-3.2 -0.89,-6.35 -2.18,-9.34zm-4.89,23.71c-0.3,2.81 -0.16,5.65 -0.4,8.49c-0.55,6.5 -1.96,12.82 -3.57,19.11c-2.75,10.8 -4.63,21.75 -5.61,32.84c-0.6,6.78 -1.63,13.44 -3.32,20.05c-2.06,8.03 -2.94,16.27 -3.43,24.56c-0.46,7.59 -0.37,15.21 -1.75,22.74c-2.37,12.84 -5.92,25.38 -11.79,37c-5.04,9.96 -11.05,19.45 -18.47,27.96c-6.69,7.66 -13.84,14.84 -21.55,21.47c-5.18,4.46 -10.96,8 -17.19,10.8c-4.36,1.96 -8.75,3.84 -13.12,5.76c-5.22,2.28 -10.69,3.75 -16.21,5.09c-1.98,0.48 -3.98,0.3 -6,0.22c-14.51,-0.54 -28.8,-2.63 -42.83,-6.35c-6.21,-1.64 -12.2,-3.99 -18.22,-6.2c-12.05,-4.43 -24.27,-8.36 -36.59,-11.93c-5.54,-1.6 -11.3,-2.01 -17.02,-2.45c-0.76,-0.06 -1.99,-0.43 -2.19,0.48c-0.25,1.09 1.06,1.23 1.84,1.49c1.91,0.63 3.84,1.24 5.8,1.71c6.35,1.53 12.29,4.12 18.15,6.93c0.11,0.06 0.17,0.22 0.35,0.45c-0.92,0.15 -1.77,0.38 -2.63,0.43c-7.59,0.37 -15.19,1.11 -22.8,0.91c-13.68,-0.36 -26.1,-4.33 -36.67,-13.35c-6.55,-5.59 -12.43,-11.82 -17.8,-18.55c-6.61,-8.29 -10.93,-17.72 -14.2,-27.74c-2.7,-8.28 -3.87,-16.85 -5.36,-25.37c-0.68,-3.9 -1.44,-7.78 -2.21,-11.65c-0.26,-1.32 -0.53,-2.67 -1.05,-3.89c-2.46,-5.8 -3.79,-11.94 -5.39,-17.99c-1.59,-6.02 -4.15,-11.66 -6.61,-17.34c-2.37,-5.48 -4.47,-11.07 -6.27,-16.77c-2.56,-8.1 -3.07,-16.35 -2.02,-24.77c0.8,-6.34 2.99,-12.31 4.61,-18.43c1.65,-6.2 3.65,-12.31 4.77,-18.64c0.34,-1.91 0.53,-3.85 0.75,-5.77c0.22,-1.93 0.51,-3.83 1.22,-5.67c0.7,-1.8 1.31,-3.66 1.74,-5.55c2.26,-10.04 8.55,-16.84 17.32,-21.67c0.98,-0.54 2,-1.01 2.98,-1.55c7.87,-4.33 15.89,-3.86 23.95,-0.63c2.91,1.16 5.68,2.64 8.41,4.19c8.13,4.63 16.58,8.52 25.51,11.36c2.84,0.91 5.64,1.97 8.41,3.08c7.87,3.16 16.08,4.51 24.5,4.5c4.39,0 8.61,0.74 12.78,1.95c3.53,1.02 6.55,2.85 8.88,5.74c0.73,0.91 1.18,1.85 1.22,3.04c0.3,9.85 -2.87,18.14 -10.7,24.45c-3.61,2.91 -7.28,5.71 -11.29,8.04c-0.58,0.34 -1.17,0.71 -1.8,0.9c-7.96,2.27 -15.86,4.65 -24.31,4.57c-8.1,-0.07 -15.89,-1.56 -23.38,-4.48c-10.18,-3.98 -19.73,-9.2 -28.7,-15.47c-0.25,-0.17 -0.48,-0.35 -0.73,-0.52c-0.26,-0.16 -0.57,-0.31 -0.84,-0.15c-0.41,0.24 -0.25,0.63 -0.12,0.98c0.63,1.63 1.53,3.06 2.76,4.3c3.49,3.5 7.31,6.62 11.42,9.35c4.91,3.27 9.92,6.37 15.36,8.72c0.34,0.14 0.71,0.24 0.94,0.61c0.12,0.65 -0.48,0.84 -0.83,1.17c-3.97,3.8 -8.45,6.88 -13.43,9.18c-3.86,1.79 -7.76,3.49 -11.66,5.18c-3.58,1.55 -7.3,2.62 -11.12,3.4c-0.47,0.1 -1.25,-0.09 -1.29,0.57c-0.05,0.85 0.85,0.68 1.36,0.79c2.36,0.52 4.77,0.44 7.13,0.17c6.61,-0.76 13.17,-1.85 19.23,-4.81c1.24,-0.61 1.84,-0.04 2.64,0.79c7.72,8.15 13.61,17.56 18.87,27.39c5.54,10.35 10.35,21.02 13.85,32.25c0.22,0.69 0.19,2.03 1.21,1.73c0.82,-0.24 0.32,-1.46 0.21,-2.23c-1.2,-8.22 -3.36,-16.21 -5.96,-24.09c-0.26,-0.77 -0.49,-1.56 -0.72,-2.35c-0.03,-0.13 0.01,-0.29 0.03,-0.48c0.67,-0.49 1.27,0.04 1.85,0.24c10.61,3.62 20.82,8.21 30.95,12.97c8.65,4.06 17.23,8.25 25.82,12.45c3.48,1.7 6.86,3.6 10.32,5.35c1.15,0.58 1.64,1.35 1.62,2.64c-0.08,5.15 -0.3,10.29 -0.67,15.42c-0.19,2.68 -0.39,5.36 -0.55,8.04c-0.61,10.51 -1.51,20.98 -3.86,31.27c-0.08,0.36 -0.17,0.73 -0.17,1.1c0,0.19 0.12,0.47 0.27,0.56c0.29,0.17 0.59,0 0.76,-0.26c0.31,-0.51 0.6,-1.03 0.86,-1.57c3.05,-6.35 5.3,-13.01 7.02,-19.81c1.21,-4.82 3.02,-9.37 5.31,-13.73c3.44,-6.55 7.03,-13.05 11.82,-18.71c5.12,-6.05 10.77,-11.58 17.99,-15.25c2.36,-1.2 4.93,-1.69 7.33,-2.64c2.87,-1.14 4.73,-0.44 6.8,1.7c3.24,3.34 7.13,5.84 11.56,7.5c2.29,0.86 4.44,2.11 6.66,3.18c3.18,1.54 6.46,2.73 10,3.06c0.6,0.06 1.2,0.19 1.78,0.12c4.08,-0.54 8.21,-0.19 12.28,-0.8c3.83,-0.57 7.04,-2.36 9.88,-4.89c4.57,-4.06 7.67,-9.17 9.76,-14.82c1.39,-3.75 3.68,-6.79 6.29,-9.67c1.4,-1.55 1.43,-1.54 3.07,-0.31c2.1,1.57 4.29,2.98 6.68,4.06c1.57,0.72 3.22,1.2 4.94,1.37c0.43,0.05 0.95,0.06 1.1,-0.5c0.1,-0.42 -0.24,-0.69 -0.54,-0.89c-1.17,-0.81 -2.3,-1.65 -3.34,-2.63c-2.37,-2.21 -4.26,-4.8 -6.03,-7.48c-1.64,-2.49 -3.12,-5.09 -4.68,-7.63c-0.5,-0.81 -0.63,-1.61 -0.36,-2.56c1.57,-5.68 3.06,-11.38 4.89,-16.99c0.5,-1.52 1.58,-2.5 2.69,-3.49c4.92,-4.35 9.94,-8.58 15.04,-12.72c4.89,-3.96 9.2,-8.51 13.61,-12.97c0.88,-0.89 1.54,-2.01 2.27,-3.04c0.21,-0.29 0.43,-0.7 0.15,-1.02c-0.39,-0.46 -0.8,-0.07 -1.18,0.12c-0.07,0.04 -0.13,0.08 -0.19,0.12c-6.14,4.1 -13.06,6.54 -19.84,9.26c-0.07,0.03 -0.14,0.05 -0.21,0.07c-0.85,0.31 -1.88,0.74 -2.56,0.16c-0.74,-0.64 0.1,-1.52 0.34,-2.24c3.35,-10.38 6,-20.94 8.1,-31.64c0.47,-2.42 0.8,-4.86 0.74,-7.34c-0.02,-0.43 0.01,-0.99 -0.61,-1c-0.41,-0.01 -0.57,0.42 -0.69,0.78c-0.41,1.12 -0.76,2.26 -1.2,3.37c-3.12,7.88 -6.96,15.36 -12.25,22.03c-2.85,3.6 -6.41,6.44 -10.12,9.1c-1.88,1.35 -3.72,2.75 -5.58,4.12c-1.44,1.07 -2.06,2.37 -1.73,4.26c0.39,2.22 -0.07,4.49 -0.39,6.68c-0.9,6.06 -1.09,12.18 -1.68,18.26c-0.8,8.33 -2.55,16.37 -7.24,23.51c-1.2,1.81 -2.44,3.57 -4.03,5.06c-0.43,0.41 -0.89,0.82 -1.21,1.32c-0.6,0.95 -0.21,1.77 0.91,1.95c1.07,0.17 2.06,-0.17 3.03,-0.61c2.24,-1.02 3.85,-2.78 5.39,-4.62c0.9,-1.08 1.75,-2.2 2.93,-3.68c0.41,2.84 0.1,5.04 -0.59,7.18c-1.79,5.52 -4.5,10.56 -8.08,15.12c-2.28,2.9 -5.21,4.89 -8.71,6.04c-2.48,0.82 -4.96,1.64 -7.44,2.45c-2.28,0.75 -4.58,0.47 -6.86,0.05c-1.38,-0.26 -2.76,-0.69 -4.06,-1.24c-4.12,-1.74 -8.3,-3.38 -12.28,-5.42c-4.56,-2.34 -8.47,-5.55 -11.26,-9.97c-0.57,-0.91 -0.93,-1.87 -1.15,-2.9c-0.5,-2.41 -0.83,-4.84 -0.98,-7.31c-0.24,-3.87 -0.59,-7.73 -0.85,-11.6c-0.53,-7.57 0.34,-15.06 1.45,-22.52c1.68,-11.37 4.04,-22.6 6.95,-33.74c2.03,-7.79 6.29,-13.88 12.35,-18.97c5.32,-4.45 10.74,-8.79 15.77,-13.59c5.05,-4.81 9.5,-10.11 13.28,-15.97c2.54,-3.93 4.3,-8.19 5.08,-12.82c0.12,-0.77 0.58,-1.85 -0.28,-2.24c-0.98,-0.46 -1.33,0.72 -1.7,1.37c-6.41,11.31 -15.65,20.05 -25.61,28.13c-6.15,4.99 -11.97,10.32 -17.16,16.34c-3.25,3.77 -5.29,8.07 -6.7,12.77c-1.82,6.09 -3.13,12.29 -4.55,18.48c-2.22,9.68 -3.87,19.46 -5.2,29.29c-0.92,6.85 -0.8,13.69 0.05,20.54c0.49,3.92 0.63,7.88 1.44,11.76c0.15,0.76 -0.04,1.44 -0.94,1.43c-5.16,-0.05 -10.13,1.81 -15.34,1.45c-3.47,-0.24 -6.81,-0.85 -9.91,-2.45c-2.32,-1.2 -4.76,-2.15 -6.88,-3.72c-5.44,-4.02 -8.39,-9.59 -9.99,-15.98c-0.72,-2.91 -0.88,-5.89 -0.68,-8.89c0.1,-1.56 0.09,-3.13 0.12,-4.7c0.19,-11.58 1.27,-23.09 2.94,-34.53c1.52,-10.35 1.72,-20.65 -0.38,-30.94c-0.98,-4.8 -1.06,-9.58 0.12,-14.42c1.25,-5.09 3.81,-9.17 8,-12.29c5.08,-3.8 10.07,-7.71 15.18,-11.47c6.14,-4.52 11.29,-9.96 15.72,-16.12c1.1,-1.53 2.01,-3.15 2.78,-4.85c0.21,-0.48 0.38,-0.97 0.52,-1.47c0.1,-0.36 0.14,-0.76 -0.28,-0.97c-0.31,-0.16 -0.59,0.02 -0.8,0.22c-0.38,0.36 -0.71,0.77 -1.07,1.14c-4.62,4.77 -9.03,9.77 -14.52,13.59c-4.6,3.2 -9.2,6.39 -13.85,9.51c-3.36,2.25 -6.44,4.82 -9.38,7.59c-3.12,2.95 -5.26,6.46 -6.44,10.57c-0.75,2.59 -1.29,5.22 -1.82,7.85c-0.84,4.2 -0.27,8.36 0.53,12.45c2.06,10.44 1.38,20.79 -0.67,31.12c-0.9,4.55 -1.1,9.18 -1.65,13.76c-0.84,7.13 -0.87,14.3 -0.93,21.46c-0.03,2.16 -0.51,4.3 -0.23,6.47c0.29,2.14 0.53,4.29 0.78,6.32c-7.86,1.96 -15.77,2.38 -23.72,1.37c-4.46,-0.56 -8.76,-1.8 -12.69,-4.13c-2.38,-1.41 -4.24,-3.32 -5.46,-5.77c-3.81,-7.67 -6.31,-15.78 -7.96,-24.17c-0.22,-1.14 0.25,-1.62 1.27,-1.94c6.86,-2.16 13.17,-5.59 19.5,-8.88c5.98,-3.11 11.47,-7.07 15.66,-12.46c4.81,-6.17 6.68,-13.19 5.64,-21.01c-0.44,-3.32 -1.13,-6.47 -3.3,-9.11c-0.61,-0.75 -1.21,-1.53 -1.92,-2.18c-0.98,-0.88 -1.35,-1.9 -1.23,-3.19c0.3,-3.12 0.5,-6.25 0.39,-9.39c-0.05,-1.5 -0.22,-2.97 -0.76,-4.39c-0.27,-0.71 -0.65,-1.42 -1.55,-1.37c-0.92,0.04 -1.2,0.8 -1.37,1.54c-0.22,0.95 -0.39,1.91 -0.32,2.89c0.2,2.82 0.38,5.65 0.6,8.48c0.15,1.94 -0.05,2.1 -1.95,1.35c-0.28,-0.11 -0.54,-0.25 -0.83,-0.34c-1.25,-0.38 -1.53,-1.24 -1.31,-2.44c0.38,-2.05 0.73,-4.11 1.05,-6.17c0.39,-2.51 0.68,-5.03 0.24,-7.57c-0.14,-0.82 -0.3,-1.62 -0.68,-2.35c-0.31,-0.63 -0.73,-1.15 -1.53,-1.11c-0.77,0.04 -1.22,0.55 -1.47,1.2c-0.24,0.62 -0.42,1.28 -0.53,1.94c-0.42,2.74 -0.46,5.48 -0.2,8.25c0.17,1.86 0.14,3.73 0.19,5.59c0.02,0.76 -0.32,1.13 -1.11,0.95c-0.43,-0.11 -0.86,-0.23 -1.29,-0.35c-1.84,-0.53 -1.83,-0.53 -1.57,-2.49c0.42,-3.03 0.81,-6.06 1.23,-9.09c0.26,-1.8 0.08,-3.57 -0.28,-5.34c-0.08,-0.43 -0.24,-0.86 -0.43,-1.26c-0.37,-0.78 -0.93,-1.41 -1.85,-1.42c-1.03,0 -1.58,0.72 -1.97,1.58c-0.35,0.77 -0.39,1.59 -0.39,2.41c0,2.39 0.06,4.77 0.3,7.15c0.22,2.08 0.2,4.18 0.32,6.26c0.06,1.07 -0.53,1.25 -1.4,1.21c-0.88,-0.03 -1.75,-0.12 -1.64,-1.29c0.14,-1.41 0.39,-2.81 0.6,-4.21c0.5,-3.4 0.86,-6.81 0.76,-10.25c-0.04,-1.21 -0.17,-2.39 -0.7,-3.49c-0.56,-1.18 -1.57,-1.83 -2.64,-1.7c-1.24,0.14 -2.04,0.87 -2.42,2.03c-0.44,1.31 -0.3,2.66 -0.13,3.99c0.49,4 1,8 1.51,11.99c0.02,0.22 0.04,0.45 0.05,0.67c0.11,1.92 -0.54,2.41 -2.38,1.84c-0.58,-0.18 -0.9,-0.53 -0.91,-1.11c-0.01,-0.75 -0.05,-1.51 0.06,-2.24c0.51,-3.48 0.23,-7.01 0.66,-10.49c0.16,-1.27 -0.1,-2.54 -0.34,-3.78c-0.36,-1.88 -1.59,-2.96 -3.15,-2.9c-1.63,0.07 -2.99,1.43 -3.03,3.3c-0.03,1.33 0.18,2.68 0.41,3.99c0.66,3.75 1.41,7.48 2.1,11.22c0.34,1.88 0.2,2 -1.58,1.78c-2.97,-0.37 -2.9,-0.37 -2.87,-3.37c0.05,-4.48 0.06,-8.96 -0.03,-13.44c-0.1,-5.63 2.16,-9.95 6.53,-13.54c6.3,-5.16 13.16,-9.57 19.36,-14.86c3.99,-3.4 7.6,-7.16 10.83,-11.29c0.55,-0.69 0.99,-1.49 1.39,-2.28c0.23,-0.44 0.56,-0.99 0.03,-1.43c-0.41,-0.33 -0.87,-0.08 -1.26,0.14c-0.97,0.54 -1.96,1.08 -2.89,1.7c-1.61,1.08 -3.22,2.17 -4.78,3.32c-4.67,3.48 -9.63,6.54 -14.53,9.68c-4.28,2.75 -8.34,5.78 -12.37,8.86c-6.14,4.69 -8.99,11 -9.11,18.6c-0.08,4.85 0.22,9.69 0.78,14.51c0.19,1.59 -0.14,1.9 -1.7,1.63c-2.15,-0.37 -4.18,-1.1 -6.21,-1.86c-1.14,-0.42 -1.64,-1.13 -1.62,-2.35c0.02,-2.31 -0.09,-4.63 -0.06,-6.94c0.04,-2.99 0.05,-5.97 -0.43,-8.93c-0.18,-1.11 -0.33,-2.23 -0.89,-3.22c-0.97,-1.71 -2.93,-1.71 -3.95,-0.03c-0.51,0.86 -0.62,1.83 -0.63,2.81c-0.05,4.55 -0.23,9.12 1.05,13.56c0.02,0.08 0.05,0.15 0.05,0.22c0.05,0.63 0.46,1.4 -0.41,1.75c-0.7,0.27 -2.13,-0.65 -2.28,-1.39c-0.04,-0.21 -0.05,-0.45 -0.01,-0.66c0.84,-4.66 -0.54,-9.21 -0.7,-13.81c-0.07,-2.01 -0.46,-4 -0.71,-6c-0.12,-0.9 -0.33,-1.77 -0.8,-2.55c-0.82,-1.35 -2.13,-1.4 -3.03,-0.07c-0.37,0.54 -0.64,1.19 -0.78,1.83c-0.23,1.09 -0.4,2.21 -0.47,3.32c-0.12,2.09 -0.15,4.17 -0.35,6.26c-0.27,2.93 0.14,5.81 1.16,8.58c0.13,0.34 0.2,0.7 0.38,1.39c-1.59,-0.47 -2.78,-1.17 -3.96,-1.87c-0.62,-0.37 -0.63,-0.98 -0.53,-1.59c0.16,-1.03 0.3,-2.07 0.51,-3.09c0.9,-4.58 0.86,-9.21 0.64,-13.83c-0.05,-1.13 -0.26,-2.23 -0.66,-3.28c-0.31,-0.83 -0.89,-1.4 -1.78,-1.53c-1,-0.14 -1.72,0.36 -2.25,1.16c-0.51,0.76 -0.76,1.61 -0.88,2.51c-0.66,4.92 -0.64,9.82 0.23,14.71c0.13,0.75 0.76,1.79 -0.2,2.21c-0.83,0.37 -1.66,-0.43 -2.38,-0.94c-0.58,-0.41 -0.39,-1.06 -0.31,-1.65c0.29,-2.15 0.54,-4.3 0.85,-6.44c0.45,-3.04 0.34,-6.1 0.23,-9.16c-0.03,-0.75 -0.22,-1.48 -0.54,-2.16c-0.46,-0.94 -1.19,-1.55 -2.26,-1.59c-1.08,-0.04 -1.84,0.55 -2.36,1.44c-0.57,1 -0.69,2.11 -0.76,3.24c-0.19,3.24 0.47,6.38 1.01,9.55c0.14,0.8 0.37,1.6 0.46,2.41c0.08,0.72 0.81,1.68 -0.32,2.08c-0.74,0.26 -2.74,-1.28 -2.66,-1.99c0.4,-3.34 -0.7,-6.5 -1.06,-9.75c-0.16,-1.51 0.01,-2.96 0.49,-4.41c1.08,-3.26 2.46,-6.41 3.76,-9.58c0.96,-2.35 2.76,-4.04 4.76,-5.54c2.59,-1.93 5.39,-3.51 8.25,-4.94c12.01,-5.99 23.06,-13.46 33.83,-21.39c1.42,-1.04 2.95,-1.68 4.63,-2.15c4.43,-1.25 8.93,-1.72 13.51,-1.5c6.11,0.29 11.91,1.93 17.51,4.29c3.99,1.68 7.93,3.46 12.29,4.05c2.01,0.27 4.03,0.4 6.02,0.13c2.16,-0.28 4.31,-0.31 6.48,-0.25c4.56,0.13 9.08,-0.49 13.62,-0.75c9.2,-0.53 17.16,1.78 23.01,9.66c5.75,7.75 13.69,12.28 23.16,14.07c3.39,0.64 6.68,-0.01 9.94,-0.93c1.43,-0.4 2.85,-0.88 4.35,-1.02c2.75,-0.28 5.35,0.35 7.82,1.51c3.68,1.71 7.02,4.01 9.89,6.86c4.47,4.46 9.7,7.91 14.78,11.57c2.77,1.99 5.94,2.71 9.32,2.54c3.88,-0.2 7.74,-0.48 11.62,-0.62c6.96,-0.25 12.96,2.04 18.19,6.7c4.95,4.42 8.63,9.63 11.19,15.72c1.2,2.85 2.02,5.78 2.31,8.84c0.44,4.61 0.73,9.22 0.22,13.86zm-226.77,61.78c0.6,2.39 1.35,4.73 2.14,7.06c0.55,1.62 0.45,1.8 -1.11,2.21c-3.54,0.92 -7.15,1.75 -10.78,1.74c-4.88,-0.01 -9.63,-1.13 -13.82,-3.83c-1.86,-1.2 -2.67,-3.34 -3.82,-5.15c-0.35,-0.55 0.01,-1.15 0.21,-1.71c0.63,-1.75 1.29,-3.5 1.89,-5.26c1.02,-2.94 3.13,-5.04 5.45,-6.94c1.68,-1.37 3.56,-2.43 5.48,-3.45c1.63,-0.87 3.35,-0.48 5.04,-0.58c0.45,-0.02 0.9,0 1.34,0c0,-0.04 0,-0.08 0,-0.12c1.27,0 2.54,0.07 3.8,-0.02c1.05,-0.08 1.48,0.27 1.55,1.34c0.31,5 1.41,9.87 2.63,14.71z" fill-opacity="0" id="svg_5"/>
     <g fill-opacity="0" id="svg_6">
      <path d="m316.33,194.86c-0.09,-1.32 -0.8,-2.22 -2.08,-2.61c-1.1,-0.34 -2.23,0.16 -3.07,1.3c-0.64,0.86 -1,1.84 -1.23,2.86c-0.51,2.25 -1.1,4.5 -1.42,6.78c-1.08,7.81 -2.11,15.64 -3.06,23.47c-0.6,5.03 -1.02,10.08 -1.53,15.11c0.03,0.01 0.06,0.01 0.08,0.01c0,0.82 -0.02,1.64 0.01,2.46c0.02,0.42 -0.08,1 0.48,1.11c0.63,0.13 0.61,-0.49 0.75,-0.87c0.08,-0.21 0.12,-0.44 0.17,-0.65c1.62,-8.04 3.92,-15.91 5.95,-23.85c1.71,-6.71 3.8,-13.33 4.73,-20.22c0.22,-1.63 0.35,-3.26 0.22,-4.9z" id="svg_7"/>
      <path d="m113.91,153.85c0.92,0.78 1.97,1.35 3.06,1.84c2.72,1.22 5.43,2.45 8.17,3.62c4.8,2.04 9.64,3.98 14.57,5.7c0.77,0.27 1.56,0.8 2.88,0.11c-4.06,-2.27 -7.83,-4.36 -11.59,-6.46c0.04,-0.09 0.09,-0.18 0.13,-0.27c0.67,0.29 1.33,0.6 2,0.88c5.29,2.22 10.57,4.47 16.17,5.81c1.09,0.26 2.19,0.43 3.29,0.6c0.28,0.04 0.64,-0.08 0.62,-0.47c-0.01,-0.19 -0.16,-0.43 -0.32,-0.53c-0.3,-0.2 -0.66,-0.34 -1,-0.48c-3.83,-1.66 -7.53,-3.6 -11.08,-5.8c-5.19,-3.22 -10.34,-6.5 -15.53,-9.73c-0.82,-0.51 -1.68,-1.01 -2.59,-1.29c-2.19,-0.65 -3.87,0.91 -3.55,3.18c0.06,0.42 0.49,0.77 0.2,1.34c-1.13,-0.54 -2.23,-1.14 -3.39,-1.61c-1.46,-0.59 -2.44,-0.35 -2.94,0.61c-0.48,0.92 -0.16,2.07 0.9,2.95z" id="svg_8"/>
      <path d="m262.95,179.82c0.15,-2.25 -0.18,-4.47 -0.47,-6.69c-0.24,-1.84 -0.54,-3.7 -1.22,-5.45c-0.59,-1.54 -1.65,-2.28 -3.01,-2.21c-1.43,0.06 -2.52,1.03 -2.86,2.68c-0.16,0.8 -0.21,1.64 -0.14,2.45c0.16,2 0.37,4.01 0.64,6c0.87,6.21 1.47,12.44 1.57,18.71c0.09,5.6 -0.09,11.19 -0.36,16.77c-0.03,0.74 -0.1,1.51 0.21,2.21c0.07,0.17 0.3,0.38 0.47,0.39c0.17,0 0.44,-0.18 0.5,-0.35c0.18,-0.49 0.31,-1 0.4,-1.51c0.65,-3.44 1.3,-6.88 1.92,-10.33c1.33,-7.5 2.15,-15.05 2.35,-22.67z" id="svg_9"/>
      <path d="m268.82,169.61c-0.51,-0.72 -1.18,-1.13 -2.1,-0.95c-0.85,0.16 -1.28,0.75 -1.47,1.51c-0.14,0.57 -0.18,1.17 -0.19,1.77c-0.1,10.59 -0.65,21.15 -1.75,31.69c-0.62,5.93 -1.36,11.84 -2.66,17.67c-0.14,0.61 -0.54,1.26 -0.06,1.91c0.71,0.06 0.88,-0.52 1.05,-0.97c0.49,-1.25 0.96,-2.51 1.36,-3.79c1.69,-5.49 2.96,-11.09 4.14,-16.7c1.52,-7.23 3.16,-14.43 3.22,-21.87c0.02,-2.68 -0.03,-5.37 -0.64,-8c-0.18,-0.8 -0.41,-1.59 -0.9,-2.27z" id="svg_10"/>
      <path d="m323.9,196.47c0,-0.29 -0.08,-0.59 -0.17,-0.87c-0.4,-1.3 -1.29,-2.13 -2.32,-2.07c-1.19,0.06 -1.89,0.79 -2.22,1.88c-0.18,0.57 -0.32,1.15 -0.42,1.74c-0.59,3.6 -1.04,7.21 -1.46,10.84c-1.24,10.64 -2.41,21.29 -3.29,31.98c-0.07,0.76 -0.48,2.05 0.33,2.2c1.14,0.21 1.02,-1.19 1.21,-1.96c1.97,-8.1 3.91,-16.21 5.82,-24.33c1.26,-5.36 2.46,-10.74 2.53,-16.28c0,-1.04 0.02,-2.09 -0.01,-3.13z" id="svg_11"/>
      <path d="m130.32,150.24c1.15,0.96 2.43,1.74 3.79,2.36c2.72,1.24 5.42,2.5 8.19,3.61c6.23,2.5 12.4,5.18 19,6.62c0.72,0.16 1.43,0.48 2.24,0.02c-0.05,-0.84 -0.65,-0.96 -1.08,-1.17c-7.54,-3.65 -14.62,-8.09 -21.64,-12.63c-2.25,-1.46 -4.49,-2.96 -7.01,-3.94c-0.91,-0.35 -1.82,-0.68 -2.82,-0.62c-1.83,0.1 -2.85,1.44 -2.41,3.21c0.27,1.05 0.92,1.86 1.74,2.54z" id="svg_12"/>
      <path d="m330.61,201.65c-0.04,-1.13 -0.27,-2.22 -0.68,-3.27c-0.33,-0.87 -0.81,-1.66 -1.87,-1.64c-1.04,0.02 -1.58,0.79 -1.91,1.65c-0.27,0.69 -0.45,1.42 -0.6,2.15c-0.53,2.48 -0.66,5.02 -0.83,7.54c-0.68,9.73 -1,19.49 -2.26,29.17c-0.06,0.44 -0.03,0.89 -0.02,1.34c0,0.23 0.13,0.42 0.37,0.47c0.24,0.05 0.47,-0.05 0.56,-0.27c0.25,-0.61 0.52,-1.23 0.71,-1.87c2.03,-6.71 3.45,-13.57 4.82,-20.43c0.84,-4.24 1.57,-8.5 1.72,-12.83c-0.01,-0.67 0.01,-1.34 -0.01,-2.01z" id="svg_13"/>
      <path d="m336.8,202.67c-0.44,-0.99 -1,-1.89 -2.27,-1.83c-1.24,0.06 -1.8,0.94 -2.18,1.97c-0.31,0.84 -0.5,1.71 -0.55,2.62c-0.28,4.98 -0.6,9.97 -0.86,14.96c-0.33,6.48 -1.05,12.92 -1.6,19.39c-0.06,0.74 -0.63,1.88 0.43,2.08c0.82,0.15 0.83,-1.06 1.03,-1.74c1.92,-6.67 3.47,-13.43 4.85,-20.23c0.83,-4.09 1.63,-8.19 1.79,-12.38c-0.01,-1.64 0.06,-3.29 -0.64,-4.84z" id="svg_14"/>
      <path d="m274.81,173.37c-0.36,-0.88 -0.9,-1.62 -1.99,-1.44c-0.97,0.16 -1.28,0.96 -1.4,1.8c-0.09,0.66 -0.08,1.34 -0.08,2.01c0.01,5.22 0.04,10.44 0.05,15.66c0.01,7.52 -0.3,15.04 -0.86,22.55c-0.06,0.78 -0.35,1.62 0.41,2.6c1.06,-1.23 1.17,-2.6 1.46,-3.87c2,-8.73 3.23,-17.58 3.9,-26.51c0.27,-3.65 -0.19,-7.29 -0.89,-10.89c-0.12,-0.65 -0.35,-1.29 -0.6,-1.91z" id="svg_15"/>
      <path d="m280.51,173.24c-0.18,-0.57 -0.44,-1.19 -1.13,-1.24c-0.78,-0.05 -1.2,0.52 -1.48,1.16c-0.18,0.4 -0.28,0.84 -0.39,1.28c-0.36,1.46 -0.33,2.95 -0.34,4.44c-0.11,12.23 0.23,24.45 -0.46,36.67c-0.04,0.62 -0.28,1.32 0.42,2.06c0.9,-0.81 0.93,-1.82 1.14,-2.74c1.16,-5.24 1.91,-10.56 2.57,-15.88c0.72,-5.84 1.33,-11.7 0.99,-17.61c-0.17,-2.75 -0.47,-5.49 -1.32,-8.14z" id="svg_16"/>
      <path d="m341.67,207.74c-1.13,-0.15 -1.79,0.56 -2.28,1.46c-0.54,1 -0.78,2.08 -0.87,3.21c-0.4,5.19 -0.86,10.38 -1.22,15.57c-0.23,3.27 -0.45,6.54 -0.86,9.79c-0.05,0.36 -0.05,0.78 0.38,0.94c0.48,0.18 0.69,-0.22 0.83,-0.54c0.27,-0.61 0.49,-1.25 0.69,-1.88c1.57,-4.91 2.45,-9.97 3.49,-15c0.72,-3.43 1.35,-6.87 1.67,-10.43c-0.04,-0.3 -0.07,-0.67 -0.14,-1.04c-0.18,-1 -0.52,-1.92 -1.69,-2.08z" id="svg_17"/>
      <path d="m110.67,158.05c1.28,1.03 2.71,1.84 4.22,2.49c6.98,3 14.08,5.7 21.28,8.12c0.75,0.26 1.52,0.57 2.42,0.38c-0.05,-0.75 -0.41,-0.91 -0.73,-1.08c-7.56,-4.17 -15.07,-8.44 -22.84,-12.24c-1.2,-0.58 -2.46,-1.05 -3.71,-1.53c-0.83,-0.32 -1.64,-0.3 -2.18,0.54c-0.48,0.74 -0.18,1.46 0.27,2.07c0.35,0.47 0.81,0.87 1.27,1.25z" id="svg_18"/>
      <path d="m260.58,98.47c1.3,-1.45 1.34,-3.06 0.29,-4.25c-1.12,-1.26 -2.76,-1.38 -4.44,-0.29c-0.75,0.49 -1.41,1.09 -1.98,1.78c-3.01,3.62 -5.36,7.68 -7.78,11.69c-0.38,0.63 -0.73,1.3 -0.48,2.13c0.37,0.28 0.59,0.21 0.76,0.06c3.27,-2.81 6.79,-5.32 10.23,-7.91c1.24,-0.93 2.36,-2.05 3.4,-3.21z" id="svg_19"/>
      <path d="m389.33,141.58c0.34,-0.59 0.57,-1.21 0.56,-1.9c-0.03,-1.6 -1.33,-2.51 -2.93,-2.02c-1.73,0.54 -2.86,1.84 -3.9,3.21c-2.66,3.49 -5.12,7.12 -7.94,10.48c-0.33,0.39 -0.87,0.85 -0.48,1.35c0.49,0.62 1.08,0.06 1.58,-0.19c0.52,-0.27 1.03,-0.6 1.52,-0.93c3.47,-2.32 6.66,-4.99 9.77,-7.75c0.73,-0.65 1.34,-1.4 1.82,-2.25z" id="svg_20"/>
      <path d="m286.66,176.27c-1,-0.14 -1.45,0.63 -1.78,1.4c-0.23,0.54 -0.41,1.13 -0.48,1.71c-0.18,1.62 -0.39,3.25 -0.42,4.89c-0.1,6.4 -0.5,12.78 -1.11,19.15c-0.04,0.49 -0.3,1.03 0.43,1.51c0.87,-0.77 0.96,-1.77 1.19,-2.69c1.42,-5.71 2.4,-11.5 3.05,-17.35c0.26,-2.26 0.73,-4.57 0.19,-6.88c-0.16,-0.71 -0.11,-1.6 -1.07,-1.74z" id="svg_21"/>
      <path d="m269.61,96.46c0.68,-1.34 0.61,-2.36 -0.2,-3.07c-0.82,-0.71 -2.12,-0.62 -3.25,0.33c-0.73,0.63 -1.42,1.32 -2.03,2.08c-2.84,3.54 -5.65,7.1 -8.45,10.67c-0.63,0.81 -1.32,1.6 -1.59,2.72c0.72,0.43 1.08,0.09 1.42,-0.17c4.33,-3.16 8.52,-6.5 12.36,-10.26c0.69,-0.68 1.3,-1.43 1.74,-2.3z" id="svg_22"/>
      <path d="m215.05,90.23c0.39,-0.45 0.76,-0.92 0.92,-1.51c0.4,-1.43 -0.57,-2.56 -2.05,-2.35c-0.83,0.12 -1.57,0.51 -2.2,1.04c-1.08,0.9 -2.16,1.83 -3.13,2.85c-3.1,3.22 -6.07,6.56 -9.27,9.68c-0.4,0.38 -1.03,0.68 -0.86,1.46c0.64,0.35 1.13,-0.11 1.62,-0.38c3.98,-2.19 7.73,-4.76 11.44,-7.38c1.34,-0.95 2.45,-2.17 3.53,-3.41z" id="svg_23"/>
      <path d="m379.08,141.02c0.79,-1.01 0.79,-2.15 0.09,-3.1c-0.67,-0.92 -1.82,-1.25 -3,-0.85c-0.96,0.32 -1.59,1.06 -2.21,1.81c-3.01,3.69 -6.03,7.38 -9.03,11.08c-0.4,0.5 -0.99,0.94 -0.85,1.88c1.09,0.14 1.65,-0.55 2.28,-1.02c3.88,-2.89 7.73,-5.81 11.59,-8.74c0.41,-0.31 0.82,-0.66 1.13,-1.06z" id="svg_24"/>
      <path d="m308.04,116.24c0.82,-1.39 0.62,-2.75 -0.43,-3.65c-1.11,-0.95 -2.57,-0.84 -3.84,0.3c-0.73,0.66 -1.22,1.51 -1.73,2.34c-1.98,3.24 -3.97,6.49 -5.95,9.74c-0.19,0.32 -0.42,0.63 -0.54,0.97c-0.11,0.29 -0.03,0.59 0.49,0.7c0.64,-0.13 1.24,-0.58 1.8,-1.06c2.95,-2.52 5.9,-5.04 8.81,-7.6c0.55,-0.48 1.02,-1.1 1.39,-1.74z" id="svg_25"/>
      <path d="m221.43,89.34c0.07,-0.57 0,-1.16 -0.52,-1.58c-0.6,-0.5 -1.26,-0.42 -1.87,-0.04c-0.5,0.31 -0.96,0.7 -1.41,1.08c-3.9,3.28 -7.12,7.2 -10.48,10.98c-0.25,0.27 -0.49,0.57 -0.66,0.9c-0.09,0.16 -0.07,0.43 0,0.62c0.1,0.24 0.37,0.27 0.58,0.18c0.55,-0.22 1.11,-0.43 1.62,-0.73c2.79,-1.59 5.47,-3.34 8.03,-5.27c1.5,-1.14 2.72,-2.54 3.78,-4.08c0.43,-0.61 0.8,-1.26 0.93,-2.06z" id="svg_26"/>
      <path d="m251.25,97.93c0.79,-1.12 0.75,-2.41 -0.06,-3.29c-0.79,-0.86 -2.09,-0.99 -3.29,-0.34c-0.74,0.4 -1.26,1.03 -1.72,1.72c-2.37,3.53 -4.94,6.9 -7.64,10.18c-0.4,0.49 -1.01,0.93 -0.85,1.85c1,0.16 1.55,-0.41 2.14,-0.82c3.61,-2.51 7.01,-5.3 10.35,-8.16c0.4,-0.34 0.77,-0.72 1.07,-1.14z" id="svg_27"/>
      <path d="m206.89,89.05c1,-1.03 1.16,-1.97 0.55,-2.79c-0.6,-0.8 -1.6,-0.98 -2.84,-0.46c-1.33,0.55 -2.39,1.49 -3.38,2.51c-3.44,3.53 -6.88,7.05 -10.31,10.57c-0.31,0.32 -0.7,0.59 -0.7,1.35c1.1,0.06 1.75,-0.61 2.45,-1.09c4.24,-2.92 8.47,-5.86 12.68,-8.8c0.55,-0.39 1.09,-0.81 1.55,-1.29z" id="svg_28"/>
      <path d="m330.92,116.68c-0.03,-1.27 -1.21,-1.93 -2.42,-1.32c-1.37,0.69 -2.31,1.88 -3.2,3.07c-2.59,3.46 -5.13,6.94 -7.69,10.42c-0.22,0.3 -0.43,0.61 -0.62,0.93c-0.12,0.2 -0.11,0.44 0.06,0.61c0.16,0.18 0.4,0.22 0.6,0.09c0.5,-0.31 1.01,-0.62 1.48,-0.99c2.64,-2.07 5,-4.45 7.36,-6.83c1.1,-1.11 2.18,-2.25 3.2,-3.43c0.64,-0.73 1.12,-1.58 1.23,-2.55z" id="svg_29"/>
      <path d="m394.29,144.46c0.41,-0.43 0.79,-0.89 1.11,-1.39c0.56,-0.89 0.69,-1.82 -0.11,-2.66c-0.68,-0.72 -1.81,-0.68 -2.84,0.12c-0.94,0.74 -1.62,1.74 -2.34,2.69c-2.52,3.32 -4.89,6.76 -7.71,9.85c-0.25,0.27 -0.48,0.58 -0.64,0.91c-0.2,0.44 0.02,0.68 0.52,0.72c0.64,-0.18 1.16,-0.61 1.69,-1.01c3.71,-2.77 7.11,-5.89 10.32,-9.23z" id="svg_30"/>
      <path d="m368.02,140.01c0.39,-1.54 -0.7,-2.87 -2.09,-2.82c-1.41,0.09 -2.21,0.84 -2.88,1.78c-2.04,2.84 -3.99,5.74 -5.8,8.74c-0.19,0.31 -0.4,0.64 -0.48,0.99c-0.14,0.6 0.2,0.84 0.75,0.68c0.35,-0.1 0.68,-0.31 0.98,-0.52c2.8,-1.97 5.44,-4.14 8,-6.42c0.73,-0.66 1.28,-1.47 1.52,-2.43z" id="svg_31"/>
      <path d="m314.34,119.1c0.47,-0.59 0.75,-1.28 0.79,-2.15c0,-1.11 -0.84,-1.84 -2.06,-1.63c-1.08,0.19 -1.88,0.87 -2.53,1.7c-2.39,3.06 -4.34,6.41 -6.4,9.68c-0.19,0.31 -0.43,0.67 -0.14,1.02c0.31,0.38 0.72,0.16 0.99,-0.05c3.32,-2.63 6.7,-5.2 9.35,-8.57z" id="svg_32"/>
      <path d="m275.35,95.98c0.28,-0.75 0.3,-1.47 -0.37,-2.04c-0.69,-0.58 -1.41,-0.34 -2.05,0.11c-1.06,0.73 -1.84,1.74 -2.6,2.75c-2.39,3.14 -4.58,6.43 -7.2,9.4c-0.24,0.27 -0.42,0.62 -0.54,0.96c-0.08,0.21 0.12,0.39 0.4,0.46c0.63,0.02 1.05,-0.46 1.51,-0.81c3.43,-2.65 6.69,-5.47 9.51,-8.78c0.53,-0.63 1.04,-1.26 1.34,-2.05z" id="svg_33"/>
      <path d="m321.78,119.96c0.43,-0.49 0.75,-1.1 1.03,-1.7c0.3,-0.66 0.2,-1.32 -0.37,-1.83c-0.57,-0.5 -1.21,-0.48 -1.87,-0.17c-0.76,0.35 -1.33,0.92 -1.87,1.55c-2.64,3.11 -5.14,6.34 -7.54,9.64c-0.3,0.41 -0.72,0.78 -0.6,1.44c0.55,0.24 0.89,0.08 1.19,-0.14c3.58,-2.66 7.06,-5.44 10.03,-8.79z" id="svg_34"/>
      <path d="m281.76,94.67c-0.95,0.33 -1.64,1.03 -2.24,1.78c-2.34,2.98 -4.65,5.98 -6.96,8.97c-0.25,0.34 -0.68,0.74 -0.3,1.17c0.39,0.44 0.84,0.08 1.19,-0.17c3.53,-2.48 6.77,-5.31 9.53,-8.65c0.42,-0.51 0.73,-1.11 0.8,-1.81c0.02,-1.06 -0.92,-1.68 -2.02,-1.29z" id="svg_35"/>
      <path d="m124.8,167.89c-0.02,-0.57 -0.32,-0.8 -0.63,-1c-3.96,-2.65 -8.11,-4.96 -12.45,-6.95c-0.33,-0.15 -0.7,-0.24 -1.06,-0.31c-0.72,-0.12 -1.36,0.03 -1.67,0.77c-0.27,0.66 0.06,1.18 0.55,1.55c0.48,0.35 1.01,0.64 1.54,0.9c4.03,1.93 8.23,3.44 12.37,5.08c0.41,0.16 0.84,0.35 1.35,-0.04z" id="svg_36"/>
      <path d="m397.44,144.67c-0.74,0.23 -1.27,0.77 -1.76,1.33c-2.81,3.27 -5.62,6.56 -8.42,9.84c-0.24,0.28 -0.56,0.62 -0.28,0.97c0.39,0.49 0.84,0.1 1.17,-0.14c1.08,-0.79 2.15,-1.59 3.18,-2.45c2.17,-1.81 4.37,-3.6 6.28,-5.69c0.7,-0.77 1.4,-1.56 1.52,-2.55c0,-1.04 -0.76,-1.59 -1.69,-1.31z" id="svg_37"/>
      <path d="m335.26,117.18c-0.77,0.18 -1.29,0.73 -1.77,1.28c-2.36,2.69 -4.19,5.76 -6.37,8.58c-0.23,0.3 -0.45,0.67 -0.1,0.99c0.32,0.3 0.71,0.13 1.02,-0.08c3.18,-2.21 6.16,-4.64 8.47,-7.8c0.35,-0.49 0.6,-1.03 0.63,-1.64c-0.03,-0.97 -0.87,-1.57 -1.88,-1.33z" id="svg_38"/>
      <path d="m225.75,89.27c-0.78,0.34 -1.28,1 -1.75,1.68c-1.15,1.65 -2.29,3.3 -3.44,4.95c-0.47,0.67 -0.99,1.31 -1.38,2.02c-0.26,0.49 0,0.89 0.61,0.8c0.35,-0.05 0.71,-0.22 1.02,-0.41c2.52,-1.5 4.66,-3.44 6.48,-5.73c0.42,-0.53 0.7,-1.14 0.75,-1.77c0.02,-1.36 -1.09,-2.08 -2.29,-1.54z" id="svg_39"/>
     </g>
    </g>
   </g>
  </g>
 </g>
</svg>