<?xml version="1.0"?>
<svg viewBox="0 0 1280 966" xmlns="http://www.w3.org/2000/svg" xmlns:svg="http://www.w3.org/2000/svg">
 <!-- Created with SVG-edit - https://github.com/SVG-Edit/svgedit-->

 <g class="layer">
  <title>Layer 1</title>
  <g id="channel-ET" transform="translate(1.49, 4.02)">
   <g id="svg_1" transform="scale(2.62)">
    <path d="m0,0c4.3,1 7.67,-0.8 11.69,-2.38c1.44,-0.5 2.88,-1 4.32,-1.5c0.71,-0.24 1.43,-0.49 2.16,-0.74c35.07,-11.99 74.68,-11.27 108.43,4.83c14.22,7.08 26.34,15.79 38.09,26.42c0.76,0.68 1.52,1.37 2.31,2.08c20.33,19.4 34.65,47.87 38.53,75.6c0.21,1.48 0.21,1.48 0.43,2.99c0.27,1.88 0.5,3.76 0.68,5.66c1.31,9.6 6.74,16.84 12.05,24.67c1.13,1.68 2.26,3.37 3.39,5.06c4.3,6.41 8.62,12.81 12.97,19.19c1.87,2.74 3.72,5.49 5.57,8.24c0.85,1.23 0.85,1.23 1.72,2.49c5.08,7.6 8.22,14.52 6.84,23.73c-1.51,6.98 -5.71,11.35 -11.49,15.29c-6.06,2.72 -12.4,2.35 -18.92,2.39c-0.87,0.02 -1.73,0.04 -2.63,0.07c-0.78,0 -1.56,0.01 -2.37,0.02c-2.92,0.72 -3.54,1.97 -5.08,4.52c-0.44,2.54 -0.44,2.54 -0.36,5.34c0,1.07 0,2.14 -0.01,3.24c0.02,1.72 0.02,1.72 0.03,3.49c-0.01,2.44 -0.02,4.89 -0.04,7.34c0,3.85 0,7.7 0.02,11.55c0.01,3.72 -0.02,7.45 -0.04,11.17c0.01,1.14 0.03,2.28 0.04,3.45c-0.08,8.24 -1.69,15.11 -7.4,21.33c-7.15,6.73 -14.19,7.52 -23.64,7.38c-1.08,-0.01 -2.16,-0.01 -3.27,-0.01c-3.42,-0.02 -6.85,-0.06 -10.27,-0.1c-2.33,-0.01 -4.66,-0.03 -6.99,-0.04c-5.69,-0.03 -11.38,-0.08 -17.07,-0.14c0.01,0.66 0.02,1.32 0.02,2c0.09,6.92 0.15,13.83 0.2,20.74c0.02,2.57 0.04,5.15 0.08,7.73c0.05,3.71 0.07,7.42 0.09,11.13c0.02,1.15 0.04,2.3 0.06,3.48c0,6.26 -0.14,10.22 -4.45,14.92c-9.21,4.6 -26.73,0.07 -36.6,-0.86c-3.63,-0.34 -7.26,-0.67 -10.9,-1.01c-7.71,-0.7 -15.42,-1.42 -23.13,-2.13c-8.95,-0.84 -17.89,-1.66 -26.84,-2.48c-3.57,-0.33 -7.13,-0.67 -10.7,-1c-2.2,-0.2 -4.4,-0.41 -6.6,-0.61c-0.98,-0.09 -1.96,-0.18 -2.96,-0.28c-10.46,-0.95 -20.6,-0.66 -31.04,0.3c-1.12,0.1 -2.24,0.2 -3.4,0.3c-2.41,0.21 -4.82,0.43 -7.23,0.65c-3.82,0.34 -7.65,0.68 -11.47,1.02c-10.17,0.89 -20.34,1.8 -30.51,2.71c-7.35,0.66 -14.69,1.31 -22.04,1.96c-2.53,0.22 -5.06,0.45 -7.59,0.68c-3.54,0.32 -7.07,0.63 -10.61,0.94c-1.04,0.1 -2.08,0.19 -3.15,0.29c-13.56,1.16 -13.56,1.16 -19.17,-2.3c-3.29,-3.49 -3.19,-6.75 -3.18,-11.41c0,-1.56 0,-1.56 0,-3.16c0.01,-1.11 0.01,-2.23 0.02,-3.38c0,-1.15 0,-2.3 0,-3.48c0.01,-3.67 0.02,-7.34 0.03,-11c0.01,-2.49 0.01,-4.98 0.02,-7.47c0.01,-6.09 0.03,-12.19 0.05,-18.28c-1.09,0.01 -2.18,0.03 -3.3,0.04c-4.09,0.06 -8.19,0.09 -12.28,0.12c-1.76,0.01 -3.52,0.04 -5.28,0.06c-13.76,0.2 -27.2,0.37 -38.14,-9.22c-8.32,-8.65 -9.45,-18.09 -9.3,-29.7c0.01,-1.18 0.01,-2.37 0.02,-3.59c0.01,-3.76 0.05,-7.52 0.09,-11.28c0.02,-2.56 0.03,-5.12 0.04,-7.68c0.03,-6.25 0.08,-12.5 0.15,-18.75c-1.31,0.01 -2.61,0.03 -3.96,0.05c-1.73,0.01 -3.45,0.03 -5.18,0.04c-1.29,0.02 -1.29,0.02 -2.6,0.04c-7.56,0.04 -13.48,-0.8 -19.31,-5.94c-5.29,-5.61 -8.05,-11.12 -8.52,-18.88c0.53,-12.93 10.36,-24.39 17.38,-34.75c0.96,-1.43 1.91,-2.85 2.87,-4.28c7.3,-10.87 7.3,-10.87 10.97,-16.05c0.42,-0.59 0.83,-1.18 1.26,-1.78c1.12,-1.59 2.25,-3.16 3.38,-4.74c2.61,-4.16 3.2,-7.9 3.71,-12.71c2.41,-18.01 7.16,-34.82 16.01,-50.78c1.34,-4.37 0,-6.23 -2.01,-10.22c-0.98,-5.84 -0.29,-11.04 2.67,-16.18c4.01,-5.51 8.54,-8.69 15.33,-9.82c0.82,0.07 1.65,0.15 2.5,0.24c4.5,0.42 7.34,0.58 11.12,-2.11c1.82,-1.74 3.61,-3.5 5.38,-5.28c34.7,-34.36 106.16,-44.54 148.31,-19.48zm-134.31,34.63c-0.91,0.62 -1.81,1.24 -2.74,1.89c-3.7,2.8 -5.89,4.71 -7.11,9.28c-0.31,2.27 -0.57,4.55 -0.78,6.83c-0.63,5.01 -3.04,7.67 -6.5,11.12c-2.87,1.88 -2.87,1.88 -5.17,2.48c-4.59,1.26 -7.03,2.38 -9.73,6.42c-1.97,3.87 -3.49,7.9 -4.97,11.98c-0.46,1.2 -0.93,2.41 -1.4,3.66c-3.23,9.31 -4.8,18.71 -6.08,28.47c-1.56,11.17 -6,19.01 -12.21,28.3c-0.64,0.98 -1.29,1.96 -1.95,2.96c-2.89,4.38 -5.8,8.76 -8.71,13.13c-1.97,2.95 -3.93,5.91 -5.88,8.88c-1.13,1.69 -2.26,3.39 -3.4,5.08c-0.69,1.04 -1.38,2.08 -2.08,3.15c-0.92,1.37 -0.92,1.37 -1.86,2.78c-1.46,2.64 -2.22,4.57 -2.43,7.59c0.66,0.99 1.32,1.97 2,3c2.48,0.42 2.48,0.42 5.38,0.33c1.09,0.01 2.17,0.03 3.29,0.04c2.28,0 4.56,-0.01 6.84,-0.02c6.25,0.09 10.73,0.59 15.99,4.08c3.44,3.6 3.75,7.77 3.75,12.55c0.01,1.18 0.02,2.36 0.02,3.58c0,1.26 0,2.53 0,3.84c0.02,2 0.03,4 0.05,6c0.04,4.93 0.05,9.86 0.06,14.78c0,2.77 0.02,5.54 0.04,8.31c0.03,2.6 0.03,5.2 0.02,7.81c0.01,8.7 0.01,8.7 4.56,15.7c4.55,4.02 9.8,3.42 15.56,3.4c1.53,0.02 1.53,0.02 3.09,0.03c3.26,0.04 6.52,0.05 9.78,0.07c4.3,0.01 8.59,0.04 12.88,0.09c1.47,-0.01 1.47,-0.01 2.97,-0.01c5.4,0.06 8.97,0.57 13.72,3.42c0.66,0 1.32,0 2,0c0.68,1.65 1.34,3.32 2,5c0.34,0.83 0.69,1.66 1.04,2.52c1.29,4.67 1.31,9.09 1.37,13.9c0.02,1 0.04,1.99 0.06,3.01c0.06,3.14 0.11,6.29 0.15,9.44c0.04,2.14 0.08,4.28 0.12,6.42c0.1,5.24 0.18,10.47 0.26,15.71c16.59,-0.65 33.1,-2.13 49.64,-3.59c3.98,-0.35 7.96,-0.69 11.94,-1.04c3.1,-0.27 6.19,-0.54 9.28,-0.81c1.47,-0.12 2.94,-0.25 4.41,-0.38c2.04,-0.18 4.09,-0.36 6.13,-0.54c1.15,-0.1 2.31,-0.2 3.5,-0.3c2.75,-0.31 5.4,-0.75 8.1,-1.34c0.16,-8.86 0.28,-17.72 0.36,-26.58c0.04,-4.11 0.09,-8.23 0.17,-12.34c0.07,-3.98 0.11,-7.95 0.13,-11.93c0.01,-1.51 0.04,-3.02 0.08,-4.53c0.39,-9.88 0.39,-9.88 -4.04,-18.41c-1.79,-1.72 -1.79,-1.72 -3.7,-3.21c-1.01,-0.87 -1.01,-0.87 -2.04,-1.75c-0.61,-0.52 -1.21,-1.04 -1.84,-1.57c-7.25,-6.19 -12.76,-14.05 -18.31,-21.75c-0.39,-0.54 -0.78,-1.08 -1.19,-1.64c-10.69,-15.06 -18.25,-32.06 -23.12,-49.86c-0.23,-0.84 -0.46,-1.68 -0.7,-2.55c-3.22,-12.54 -4.21,-25.1 -4.18,-38.01c0,-0.72 0,-1.44 0,-2.18c0.04,-11.94 1.09,-23.18 4.38,-34.69c0.51,-1.89 0.51,-1.89 1.02,-3.81c8.1,-26.83 23.72,-50.39 45.04,-68.51c2.08,-1.81 4.01,-3.72 5.94,-5.68c-1.92,-0.64 -3.83,-1.26 -5.75,-1.88c-1.07,-0.35 -2.14,-0.7 -3.24,-1.05c-9.61,-2.75 -19.24,-3.44 -29.2,-3.39c-1.77,0.01 -1.77,0.01 -3.59,0.02c-27.49,0.38 -51.33,9.99 -73.22,26.3zm280.96,79.91c-5.01,5.67 -6.28,8.74 -6.17,16.33c0.42,5.55 2.74,8.51 6.77,12.07c5.47,4.48 10.49,4.33 17.44,3.69c5.23,-2.48 9.46,-6.5 11.82,-11.89c1.55,-5.04 1.43,-9.32 -0.82,-14.11c-3.98,-6.11 -7.98,-9.16 -15,-11c-5.6,0 -9.94,1.06 -14.04,4.91z" fill="#FFFFFF" id="svg_2" transform="translate(238.3125,12.375)" xmlns="http://www.w3.org/2000/svg"/>
    <path d="m0,0c5.23,3.1 8.56,8.07 10.32,13.83c1.05,6.39 -0.48,12.01 -3.77,17.53c-2.88,3.87 -6.25,6.19 -10.93,7.2c-6.52,0.63 -12.46,0.92 -18,-3c-4.61,-3.97 -7.61,-7.62 -8.32,-13.8c-0.31,-8.5 1.2,-12.59 6.76,-19.01c6.48,-5.53 16.17,-6.03 23.94,-2.75z" fill="#FFFFFF" id="svg_3" transform="translate(113.375,122.4375)" xmlns="http://www.w3.org/2000/svg"/>
   </g>
  </g>
 </g>
</svg>