<?xml version="1.0"?>
<svg viewBox="0 0 1261 945" xmlns="http://www.w3.org/2000/svg" xmlns:svg="http://www.w3.org/2000/svg">
 <!-- Created with SVG-edit - https://github.com/SVG-Edit/svgedit-->

 <g class="layer">
  <title>Layer 1</title>
  <g id="svg_7">
   <path d="m1089.48,897.54c14.28,-11.13 19.95,-30.87 12.6,-48.3c-50.61,-120.12 -115.5,-232.26 -154.77,-296.1c14.49,-119.49 -24.99,-196.14 -101.85,-292.53c-24.15,-30.24 -74.76,-25.41 -99.96,-0.63c-5.67,5.67 -10.08,11.55 -13.44,17.85l-166.53,0l-0.63,-2.31l13.86,0l-19.32,-35.91l-108.78,0l0,35.91l86.52,0l3.15,10.71c-10.29,7.56 -17.01,19.53 -17.01,33.18c0,23.1 18.69,41.58 41.58,41.58l180.81,0c9.24,11.76 17.85,24.15 25.41,36.96c-42.84,27.51 -85.47,55.44 -128.73,82.32c-7.77,4.83 -12.81,10.92 -15.96,17.43c-19.74,6.51 -34.44,24.99 -34.44,46.83c0,23.1 15.96,42.63 37.38,47.88l0,26.25c-21.42,5.67 -37.38,24.99 -37.38,48.09c0,27.3 22.26,49.35 49.56,49.35l0,-11.76c-20.79,0 -37.8,-17.01 -37.8,-37.8c0,-20.79 17.01,-37.59 37.8,-37.59c20.79,0 37.59,16.8 37.59,37.59l11.76,0c0,-23.1 -15.96,-42.63 -37.59,-47.88l0,-26.04c20.58,-5.04 35.91,-22.89 37.38,-44.73c38.01,-23.73 75.81,-48.3 113.61,-72.66c7.35,28.77 9.66,58.17 5.46,87.78c-56.7,91.35 -80.85,198.03 -70.14,311.64c0.84,8.82 4.41,16.59 9.87,22.89l-258.3,0c7.14,-1.05 14.28,-3.57 20.58,-8.19c20.37,-14.7 24.99,-43.05 10.29,-63.42l-99.96,-139.02c5.25,-28.14 18.9,-73.92 44.94,-104.58c15.33,-6.72 28.98,-18.27 37.8,-32.76c5.46,-7.14 8.61,-15.75 9.24,-24.78c2.52,-15.12 0.21,-31.5 -9.45,-48.51c-38.01,-67.2 -83.79,-128.94 -131.88,-189.21c-25.62,-31.92 -80.01,-25.83 -106.26,0.63c-0.63,0.63 -1.05,1.47 -1.68,2.1l-191.1,0l0,-289.8l-73.71,0l0,897.54l0,47.67l73.71,0l1187.76,0l0,-47.67l-171.99,0zm-447.93,-280.35l-0.42,0l0,-22.89l0.42,0l0,22.89zm0,-34.86c-20.79,0 -37.8,-16.8 -37.8,-37.59c0,-14.07 7.77,-26.04 19.11,-32.76c-1.47,27.51 24.78,55.86 54.6,43.47c-4.62,15.54 -18.9,26.88 -35.91,26.88zm-567.84,315.21l0,-424.83l49.14,0l0,-60.27l-49.14,0l0,-48.93l176.4,0c3.78,10.92 9.45,21.21 17.01,30.66c30.87,38.43 70.56,91.98 108.36,158.76c0.21,0.42 0.42,0.63 0.63,1.05c-38.85,63.42 -46.41,136.08 -46.83,140.28c-1.05,11.13 1.89,22.05 8.4,31.08l110.67,153.93c7.98,11.13 20.37,17.22 33.18,18.27l-407.82,0l0,0zm738.99,0c6.93,-8.19 10.92,-19.11 9.66,-30.66c-9.24,-97.23 10.71,-185.22 59.22,-261.87c38.22,62.79 97.44,166.32 143.85,276.36c2.73,6.72 6.93,11.97 12.18,16.17c0,0 -224.91,0 -224.91,0z" fill="#FFFFFF" id="svg_3"/>
   <circle cx="10.75" cy="17.04" fill="#010002" id="svg_4" r="3.28" transform="matrix(21, 0, 0, 21, 0, -158.13)"/>
   <path d="m646.17,140.91c-0.84,5.04 -1.47,10.08 -1.47,15.33c0,43.68 35.28,78.96 78.96,78.96c43.68,0 78.96,-35.28 78.96,-78.96c0,-5.25 -0.42,-10.29 -1.47,-15.33l-154.98,0z" fill="#ffffff" id="svg_5"/>
   <polygon fill="#FFFFFF" id="svg_6" points="802.5990371704102,130.72499752044678 802.5990371704102,73.37399864196777 609.0630054473877,48.74099159240723 639.7229862213135,123.16500473022461 609.0630054473877,130.72499752044678 609.0630054473877,140.95198726654053 642.8100128173828,130.72499752044678" transform="matrix(1, 0, 0, 1, 0, 0)"/>
  </g>
 </g>
</svg>