<?xml version="1.0"?>
<svg viewBox="0 0 1017 832" xmlns="http://www.w3.org/2000/svg" xmlns:svg="http://www.w3.org/2000/svg">
 <!-- Created with SVG-edit - https://github.com/SVG-Edit/svgedit-->

 <g class="layer">
  <title>Layer 1</title>
  <g id="channel-SP" transform="translate(-0, -92.84)">
   <path d="m394.36,204.42c-1.22,-0.24 -23.03,-4.46 -52.3,-6.62c0.14,-2.69 0.22,-5.39 0.22,-8.12c0,-84.19 -68.5,-152.69 -152.69,-152.69c-84.19,0 -152.69,68.5 -152.69,152.69c0,17.75 3.06,34.8 8.65,50.66c-19.52,1.64 -33.71,4.39 -34.55,4.55l-11,2.16l4.79,10.13c1.48,3.13 36.69,76.79 80.79,99.07c15.91,8.04 30.8,12.12 44.24,12.12c0,0 0.01,0 0.01,0c20.02,0 36.41,-9.05 46.73,-25.61c13.53,16.17 32.58,24.88 55.12,24.88c17.96,0 37.92,-5.48 59.34,-16.3c59.62,-30.12 107.54,-130.38 109.55,-134.63l4.79,-10.13l-11,-2.16zm-78.97,-64.39c-5.76,-4.71 -12.39,-9.12 -19.85,-13.16c-9.23,-5 -19.45,-9.26 -30.38,-12.75c-3.49,-10.94 -7.75,-21.16 -12.76,-30.39c-4.04,-7.46 -8.45,-14.09 -13.16,-19.85c34.7,13.75 62.4,41.45 76.15,76.15zm8.31,40.93l-47.55,0c-0.51,-16.05 -2.39,-31.63 -5.55,-46.29c28.34,11.07 48.29,27.65 53.1,46.29zm-125.38,-125.4c18.63,4.82 35.21,24.77 46.29,53.11c-14.67,-3.15 -30.25,-5.04 -46.29,-5.54l0,-47.57zm0,65.02c18.76,0.65 36.62,3.36 52.69,7.68c4.32,16.08 7.03,33.93 7.68,52.69l-60.37,0l0,-60.37zm0,77.83l60.37,0c-0.03,0.77 -0.06,1.54 -0.09,2.31c-14.55,2.69 -27.13,6.7 -37.61,11.99c-8.37,4.23 -15.93,8.75 -22.67,13.53l0,-27.83zm-17.45,-142.85l0,47.57c-16.05,0.5 -31.63,2.39 -46.3,5.54c11.08,-28.34 27.66,-48.29 46.3,-53.11zm0,65.02l0,60.37l-60.38,0c0.65,-18.76 3.36,-36.61 7.68,-52.69c16.08,-4.32 33.93,-7.03 52.7,-7.68zm-40.93,-56.7c-4.71,5.76 -9.12,12.39 -13.16,19.85c-5.01,9.23 -9.27,19.45 -12.75,30.39c-10.94,3.49 -21.16,7.75 -30.39,12.75c-7.47,4.04 -14.09,8.45 -19.85,13.16c13.75,-34.7 41.45,-62.4 76.15,-76.15zm-31.36,70.78c-3.16,14.67 -5.04,30.25 -5.55,46.29l-47.55,0c4.81,-18.63 24.76,-35.21 53.1,-46.29zm-5.55,63.75c0.47,14.96 2.14,29.52 4.93,43.32c-2.99,-0.5 -6.09,-0.93 -9.29,-1.29c-23.04,-10.86 -38.97,-25.65 -43.2,-42.03l47.56,0zm54.39,140.85c-5.79,6.39 -14.52,11.65 -27.59,11.65l-0.01,0c-10.68,0 -22.92,-3.44 -36.37,-10.24c-29.7,-15 -56.48,-60 -67.53,-80.53c11,-1.58 28.61,-3.57 47.31,-3.57c24.88,0 44.26,3.41 57.58,10.14c12,6.07 21.19,12.85 27.49,20.17c-1.26,12.72 1.17,25.74 7.25,38.51l-88.22,-41.31l80.09,55.18zm-11.46,-84.18c-2.33,-1.35 -4.76,-2.66 -7.28,-3.94c-3.59,-1.81 -7.51,-3.41 -11.73,-4.81c-3.61,-14.81 -5.88,-31 -6.46,-47.93l60.37,0l0,42.69c-5.18,5.37 -9.51,11.01 -12.97,16.91c-7.52,-0.65 -14.85,-1.63 -21.93,-2.92zm137.19,80.68c-18.95,9.58 -36.27,14.43 -51.47,14.43c-20.27,0 -33.4,-8.66 -41.82,-18.75l121.16,-77.6l-128.92,65.72c-0.03,-0.05 -0.06,-0.11 -0.08,-0.16c-17.25,-34.15 -0.18,-67.36 46.84,-91.11c18.77,-9.48 45.89,-14.29 80.61,-14.29c28.59,0 55.44,3.38 70.07,5.61c-13.73,26.11 -52.63,94.04 -96.39,116.15z" fill="#ffffff" id="svg_1" transform="scale(2.51)" xmlns="http://www.w3.org/2000/svg"/>
  </g>
 </g>
</svg>