<?xml version="1.0"?>
<svg viewBox="0 0 921 933" xmlns="http://www.w3.org/2000/svg" xmlns:svg="http://www.w3.org/2000/svg">
 <!-- Created with SVG-edit - https://github.com/SVG-Edit/svgedit-->

 <g class="layer">
  <title>Layer 1</title>
  <g id="channel-CP" transform="translate(-6.01, -0.04)">
   <g id="svg_1" transform="scale(16)" xmlns="http://www.w3.org/2000/svg">
    <g id="svg_2">
     <path d="m33.47,36.54c0.1,-0.43 0.17,-0.89 0.19,-1.37c0.41,-8.85 -4.43,-16.09 -11.67,-20.74c-4.31,-2.77 -8.39,0.25 -9.43,4.1c-2.67,-2.13 -7.29,1.05 -5.21,4.55c0.07,0.12 0.15,0.25 0.23,0.38c-2.09,-0.01 -8.74,-0.03 -6.88,0c2.2,0.04 7.48,5.96 7.48,5.96l0,-5c1.63,2.49 3.7,4.81 6.79,5.16c1.41,0.16 2.57,-0.28 3.53,-1.04c1.2,1.48 1.82,3.14 1.94,5.13c-1.06,-0.02 -2.12,0.02 -3.19,0.15c-3.69,0.43 -5.97,1.25 -6.71,5.11c-1.12,5.82 1.9,10.08 5.17,14.53c2.66,3.62 8.78,0.11 6.08,-3.56c-2.2,-3 -4.41,-5.47 -4.32,-8.95c2.15,-0.33 4.29,-0.24 6.48,-0.03c1.06,0.46 2.27,0.64 3.46,0.55c1.79,5.95 5.17,11.26 9.55,15.78c3.16,3.27 8.14,-1.72 4.98,-4.98c-4.34,-4.49 -7.25,-9.68 -8.47,-15.73z" fill="#FFFFFF" id="svg_3"/>
     <path d="m6.8,7.95c0.01,0.1 0.02,0.2 0.03,0.3c0.45,3.26 3.46,5.54 6.71,5.09c3.26,-0.45 5.54,-3.45 5.09,-6.71c-0.09,-0.68 -0.3,-1.31 -0.59,-1.88c0.2,-0.1 0.29,-0.33 0.22,-0.81l-0.19,-1.43c-0.22,-1.59 -1.69,-2.7 -3.28,-2.48l-6.34,0.87c-1.59,0.22 -2.7,1.69 -2.49,3.28l0.16,1.15c-0.89,0.71 -1.64,1.6 -1.48,2.55c0.14,0.85 1.08,0.64 2.16,0.07z" fill="#FFFFFF" id="svg_4"/>
     <path d="m22.89,13.4c0,0 14.28,7.65 12.6,18.94c-3.7,9.41 12.45,19.1 21.23,-2.6c0,0 11.17,-29.74 -33.83,-16.34z" fill="#FFFFFF" id="svg_5"/>
    </g>
   </g>
  </g>
 </g>
</svg>