<?xml version="1.0"?>
<svg viewBox="0 0 1019 1123" xmlns="http://www.w3.org/2000/svg" xmlns:svg="http://www.w3.org/2000/svg">
 <!-- Created with SVG-edit - https://github.com/SVG-Edit/svgedit-->

 <g class="layer">
  <title>Layer 1</title>
  <g id="channel-EP" transform="translate(-0.02)">
   <g id="svg_1" transform="scale(9.14)">
    <path class="st2" d="m40.97,10.96c0.52,-0.15 1.06,-0.23 1.62,-0.23c0.77,0 1.5,0.15 2.18,0.42c0.7,0.28 1.33,0.69 1.86,1.19c0.53,0.51 0.96,1.11 1.25,1.79c0.28,0.65 0.44,1.37 0.44,2.11l0,0l0,2.57l10.49,0c2.54,-3.67 6.59,-7.89 9.37,-10.78c0.89,-0.93 1.66,-1.73 2.18,-2.3l0,-0.01c0.01,-0.02 0.03,-0.04 0.05,-0.05c1.04,-1.3 2.16,-2.15 3.26,-2.63c1.27,-0.56 2.53,-0.63 3.63,-0.34c0.44,0.12 0.86,0.29 1.24,0.52c0.39,0.23 0.75,0.51 1.07,0.84c0.32,0.32 0.6,0.69 0.84,1.1c0.23,0.4 0.42,0.84 0.55,1.3c0.31,1.09 0.33,2.32 -0.04,3.6c-0.32,1.12 -0.94,2.27 -1.93,3.37l-0.03,0.03c-0.14,0.16 -0.4,0.44 -0.74,0.84l-0.48,0.55l0.22,0c0.21,0 0.42,0.01 0.63,0.03c0.19,0.02 0.39,0.04 0.58,0.07l21.95,0c0.7,0 1.38,0.16 2,0.44c0.63,0.29 1.21,0.72 1.68,1.26c0.47,0.53 0.86,1.16 1.12,1.86c0.25,0.67 0.39,1.41 0.39,2.17c0,0.57 -0.08,1.13 -0.23,1.67c-0.07,0.26 -0.16,0.51 -0.26,0.75l0.2,0c0.71,0 1.38,0.16 2,0.44c0.63,0.29 1.21,0.73 1.68,1.26c0.47,0.53 0.85,1.16 1.11,1.86c0.25,0.67 0.39,1.41 0.39,2.17c0,0.76 -0.14,1.5 -0.39,2.17c-0.26,0.7 -0.64,1.33 -1.11,1.86c-0.48,0.53 -1.05,0.96 -1.68,1.26c-0.62,0.29 -1.29,0.44 -2,0.44l0,0l-0.18,0c0.11,0.25 0.2,0.51 0.28,0.77c0.16,0.55 0.24,1.12 0.24,1.7l0,0.01c0,0.76 -0.14,1.5 -0.39,2.17c-0.26,0.7 -0.64,1.33 -1.11,1.86c-0.48,0.53 -1.05,0.97 -1.68,1.26c-0.62,0.29 -1.29,0.44 -2,0.44l-0.45,0c0.1,0.23 0.18,0.48 0.24,0.72c0.14,0.51 0.21,1.06 0.21,1.61l0,0.02c0,0.76 -0.14,1.48 -0.39,2.15c-0.26,0.7 -0.64,1.33 -1.11,1.86c-0.48,0.53 -1.05,0.96 -1.68,1.26c-0.62,0.29 -1.29,0.44 -2,0.44l-0.82,0l0,16.71c3.67,2.72 7.89,7.06 10.79,10.04c0.92,0.95 1.71,1.76 2.3,2.33l0.02,0.01c0.02,0.02 0.03,0.03 0.05,0.05c1.29,1.11 2.13,2.3 2.61,3.47c0.55,1.35 0.62,2.68 0.33,3.85c-0.12,0.46 -0.29,0.91 -0.51,1.32c-0.23,0.42 -0.51,0.8 -0.83,1.14c-0.33,0.35 -0.7,0.65 -1.1,0.89c-0.4,0.24 -0.84,0.44 -1.31,0.59c-1.09,0.33 -2.34,0.35 -3.62,-0.04c-1.13,-0.35 -2.29,-1.02 -3.4,-2.09c-0.16,-0.15 -0.46,-0.44 -0.84,-0.8l-0.54,-0.51l0,0.25c0,0.22 -0.01,0.44 -0.03,0.67c-0.02,0.2 -0.04,0.4 -0.07,0.62l0,22.78c0,0.74 -0.16,1.46 -0.44,2.11c-0.29,0.68 -0.72,1.28 -1.25,1.79c-0.53,0.51 -1.16,0.92 -1.86,1.19c-0.68,0.27 -1.41,0.42 -2.18,0.42c-0.58,0 -1.14,-0.09 -1.67,-0.24c-0.26,-0.08 -0.51,-0.17 -0.75,-0.28l0,0.25c0,0.74 -0.16,1.46 -0.44,2.11c-0.29,0.68 -0.72,1.28 -1.25,1.79s-1.16,0.92 -1.86,1.19c-0.68,0.27 -1.41,0.42 -2.18,0.42c-0.77,0 -1.5,-0.15 -2.18,-0.42c-0.7,-0.28 -1.33,-0.69 -1.86,-1.19c-0.53,-0.51 -0.96,-1.11 -1.25,-1.79c-0.28,-0.65 -0.44,-1.37 -0.44,-2.11l0,0l0,-0.22c-0.23,0.11 -0.48,0.2 -0.72,0.28l-0.04,0.02c-0.55,0.17 -1.13,0.25 -1.71,0.25l-0.01,0c-0.77,0 -1.5,-0.15 -2.18,-0.42c-0.7,-0.28 -1.33,-0.69 -1.86,-1.19c-0.53,-0.51 -0.96,-1.11 -1.25,-1.79c-0.28,-0.65 -0.44,-1.37 -0.44,-2.11l0,-0.51c-0.23,0.1 -0.47,0.19 -0.72,0.26c-0.52,0.15 -1.06,0.23 -1.62,0.23c-0.77,0 -1.5,-0.15 -2.18,-0.42c-0.7,-0.28 -1.33,-0.69 -1.86,-1.19c-0.53,-0.51 -0.96,-1.11 -1.25,-1.79c-0.28,-0.65 -0.44,-1.37 -0.44,-2.11l0,0l0,-2.57l-10.5,0c-2.54,3.67 -6.59,7.89 -9.37,10.78c-0.9,0.93 -1.66,1.73 -2.18,2.3l-0.06,0.07c-1.04,1.29 -2.15,2.13 -3.25,2.62c-1.27,0.56 -2.53,0.63 -3.63,0.34c-0.44,-0.12 -0.86,-0.29 -1.24,-0.52c-0.39,-0.23 -0.75,-0.51 -1.07,-0.84c-0.31,-0.31 -0.58,-0.67 -0.81,-1.07l-0.02,-0.04c-0.23,-0.4 -0.41,-0.84 -0.55,-1.3c-0.31,-1.09 -0.33,-2.32 0.04,-3.6c0.32,-1.12 0.94,-2.27 1.93,-3.37l0.03,-0.03c0.14,-0.16 0.4,-0.44 0.74,-0.84l0.48,-0.55l-0.21,0c-0.21,0 -0.42,-0.01 -0.63,-0.03c-0.19,-0.02 -0.39,-0.04 -0.58,-0.07l-22.21,0c-0.7,0 -1.38,-0.16 -2,-0.44c-0.63,-0.29 -1.21,-0.73 -1.68,-1.26c-0.47,-0.53 -0.86,-1.16 -1.11,-1.86c-0.25,-0.67 -0.39,-1.41 -0.39,-2.17c0,-0.57 0.08,-1.13 0.23,-1.67c0.07,-0.26 0.16,-0.51 0.26,-0.75l-0.2,0c-0.71,0 -1.38,-0.16 -2,-0.44c-0.63,-0.29 -1.21,-0.73 -1.68,-1.26c-0.47,-0.53 -0.85,-1.16 -1.11,-1.86c-0.26,-0.66 -0.4,-1.4 -0.4,-2.16c0,-0.76 0.14,-1.5 0.39,-2.17c0.26,-0.7 0.64,-1.33 1.11,-1.86c0.48,-0.53 1.05,-0.96 1.68,-1.26c0.62,-0.29 1.29,-0.44 2,-0.44l0,0l0.18,0c-0.11,-0.25 -0.2,-0.51 -0.28,-0.77c-0.16,-0.55 -0.24,-1.12 -0.24,-1.7l0,-0.01c0,-0.76 0.14,-1.5 0.39,-2.17c0.26,-0.7 0.64,-1.33 1.11,-1.86c0.48,-0.53 1.05,-0.97 1.68,-1.26c0.62,-0.29 1.29,-0.44 2,-0.44l0.45,0c-0.09,-0.23 -0.17,-0.46 -0.24,-0.7l-0.01,-0.02c-0.14,-0.51 -0.21,-1.06 -0.21,-1.61l0,-0.02c0,-0.76 0.14,-1.48 0.39,-2.15c0.26,-0.7 0.64,-1.33 1.11,-1.86c0.48,-0.53 1.05,-0.97 1.68,-1.26c0.62,-0.29 1.29,-0.44 2,-0.44l1.07,0l0,-16.71c-3.67,-2.72 -7.89,-7.06 -10.79,-10.04c-0.93,-0.96 -1.72,-1.77 -2.31,-2.34l-0.05,-0.05c-1.29,-1.11 -2.14,-2.3 -2.62,-3.47c-0.55,-1.35 -0.62,-2.68 -0.33,-3.85c0.12,-0.46 0.29,-0.91 0.51,-1.32c0.23,-0.42 0.51,-0.8 0.83,-1.14c0.33,-0.35 0.7,-0.65 1.1,-0.89c0.4,-0.24 0.84,-0.44 1.31,-0.59c1.09,-0.33 2.34,-0.35 3.62,0.04c1.13,0.35 2.29,1.02 3.4,2.09c0.16,0.15 0.46,0.44 0.84,0.8l0.54,0.51l0,-0.25c0,-0.22 0.01,-0.44 0.03,-0.67c0.02,-0.2 0.04,-0.4 0.07,-0.62l0,-22.79c0,-0.74 0.16,-1.46 0.44,-2.11c0.29,-0.68 0.72,-1.28 1.25,-1.79c0.53,-0.51 1.16,-0.92 1.86,-1.19c0.68,-0.27 1.41,-0.42 2.18,-0.42c0.58,0 1.14,0.09 1.67,0.24c0.26,0.08 0.51,0.17 0.75,0.28l0,-0.26c0,-0.74 0.16,-1.46 0.44,-2.11c0.29,-0.68 0.72,-1.28 1.25,-1.79c0.53,-0.51 1.16,-0.92 1.86,-1.19c0.68,-0.27 1.42,-0.42 2.19,-0.42c0.77,0 1.5,0.15 2.18,0.42c0.7,0.28 1.33,0.69 1.86,1.19c0.53,0.51 0.96,1.11 1.25,1.79c0.28,0.65 0.44,1.37 0.44,2.11l0,0l0,0.22c0.25,-0.11 0.5,-0.21 0.76,-0.29c0.55,-0.17 1.13,-0.26 1.71,-0.26l0.01,0c0.77,0 1.5,0.15 2.18,0.42c0.7,0.28 1.33,0.69 1.86,1.19c0.53,0.51 0.96,1.11 1.25,1.79c0.28,0.65 0.44,1.37 0.44,2.11l0,0.51c0.23,-0.08 0.47,-0.17 0.72,-0.24l0,0l0,0zm3.1,43.33l0,17.88c1.4,0.21 2.73,0.65 3.96,1.29c1.36,0.71 2.6,1.68 3.67,2.83l11.66,0c0.24,-1.36 0.67,-2.67 1.28,-3.88c0.71,-1.42 1.65,-2.7 2.78,-3.81l0,-17.87c-1.4,-0.21 -2.73,-0.65 -3.96,-1.29c-1.37,-0.71 -2.6,-1.68 -3.67,-2.83l-11.67,0c-0.24,1.36 -0.67,2.67 -1.28,3.88c-0.7,1.4 -1.65,2.69 -2.77,3.8l0,0l0,0z" fill="none" id="svg_2"/>
    <path class="st3" d="m77.99,50.86l-6.71,0l0,16.54c0,2.58 -0.08,2.63 -0.85,3.12c-0.32,0.2 -0.82,0.52 -1.6,1.54c-0.73,0.94 -1.3,2 -1.7,3.14c-0.38,1.1 -0.58,2.28 -0.58,3.5l0,9.39l0,0c0,0.08 0,0.15 0.01,0.23l0,18.34c0,0.29 0.06,0.56 0.16,0.81l0.01,0.02c0.12,0.27 0.29,0.52 0.51,0.73s0.48,0.38 0.76,0.49c0.27,0.11 0.58,0.17 0.9,0.17s0.62,-0.06 0.9,-0.17c0.29,-0.11 0.55,-0.28 0.76,-0.49c0.22,-0.21 0.39,-0.45 0.51,-0.72c0.11,-0.26 0.17,-0.54 0.17,-0.84l0,0l0,-9.8l0,-0.05c0,-0.28 0.23,-0.51 0.51,-0.51l2.37,0c0.28,0 0.51,0.23 0.51,0.51l0,15.38c0,0.3 0.06,0.58 0.17,0.84c0.11,0.26 0.28,0.5 0.48,0.7l0.03,0.02c0.21,0.2 0.46,0.37 0.74,0.48l0.02,0.01c0.27,0.11 0.58,0.17 0.9,0.17c0.32,0 0.62,-0.06 0.9,-0.17l0,0c0.29,-0.11 0.54,-0.28 0.76,-0.49c0.22,-0.21 0.39,-0.45 0.51,-0.72c0.11,-0.26 0.17,-0.54 0.17,-0.84l0,-15.38c0,-0.28 0.23,-0.51 0.51,-0.51l2.51,0c0.28,0 0.51,0.23 0.51,0.51l0,20.58c0,0.3 0.06,0.58 0.17,0.84c0.12,0.27 0.29,0.52 0.51,0.72c0.22,0.21 0.48,0.38 0.76,0.49c0.27,0.11 0.58,0.17 0.9,0.17c0.31,0 0.61,-0.06 0.87,-0.16l0.02,-0.01c0.29,-0.11 0.55,-0.28 0.76,-0.49c0.22,-0.21 0.39,-0.45 0.51,-0.72c0.11,-0.26 0.17,-0.54 0.17,-0.84l0,-20.58c0,-0.28 0.23,-0.51 0.51,-0.51l2.45,0c0.28,0 0.51,0.23 0.51,0.51l0,15.33c0,0.3 0.06,0.58 0.17,0.84c0.12,0.27 0.29,0.52 0.51,0.73c0.22,0.21 0.47,0.38 0.76,0.49c0.27,0.11 0.58,0.17 0.9,0.17s0.62,-0.06 0.9,-0.17c0.29,-0.11 0.54,-0.28 0.76,-0.49c0.22,-0.21 0.39,-0.45 0.51,-0.73c0.11,-0.26 0.17,-0.54 0.17,-0.84c0,-3.72 0.02,-7.89 0.03,-12.05c0.02,-3.67 0.03,-7.33 0.03,-12.01l0.28,-4.52c0.01,-0.18 0.12,-0.35 0.29,-0.43l0.9,-0.42c0.08,-0.04 0.16,-0.07 0.26,-0.07l0,0c0.16,0 0.32,0.02 0.48,0.07c0.16,0.05 0.31,0.11 0.44,0.2c0.3,0.17 0.68,0.44 1.08,0.76c0.42,0.34 0.85,0.71 1.27,1.08c0.89,0.8 1.82,1.69 2.17,2.03l0,0c0.66,0.63 1.31,1.03 1.91,1.25c0.64,0.23 1.23,0.24 1.72,0.09c0.17,-0.05 0.34,-0.13 0.5,-0.23c0.16,-0.1 0.3,-0.22 0.43,-0.35l0,0c0.13,-0.13 0.24,-0.29 0.33,-0.45c0.09,-0.17 0.16,-0.35 0.21,-0.54c0.15,-0.59 0.09,-1.28 -0.25,-2.02c-0.31,-0.68 -0.84,-1.38 -1.65,-2.08l-0.04,-0.03l-0.09,-0.08l-0.06,-0.06c-0.33,-0.32 -0.79,-0.78 -1.36,-1.35c-2.68,-2.68 -7.7,-7.69 -11.56,-10.52c-0.04,-0.03 -0.08,-0.06 -0.12,-0.1c-0.26,-0.31 -0.5,-0.64 -0.71,-0.99c-0.21,-0.35 -0.38,-0.72 -0.52,-1.1c-0.11,-0.33 -0.2,-0.66 -0.25,-1.01c-0.05,-0.33 -0.07,-0.68 -0.06,-1.05l0,-15.32l-12.11,0l0,0l-0.01,0c-0.08,0 -0.16,-0.01 -0.24,-0.02c-0.04,-0.01 -0.08,-0.01 -0.11,-0.02c-0.12,0.01 -0.24,0.02 -0.37,0.03l-0.01,0c-0.16,0.02 -0.32,0.03 -0.48,0.03l0,0l0,0z" fill="#ffffff" id="svg_3" transform="matrix(1, 0, 0, 1, 0, 0)"/>
    <path class="st1" d="m48.27,34.83l0,7.91l10.34,0c2.44,0 2.48,0.08 2.95,0.86c0.19,0.32 0.48,0.81 1.43,1.6c0.88,0.73 1.86,1.3 2.92,1.69c1.02,0.38 2.12,0.58 3.25,0.58l8.78,0l0,0c0.07,0 0.14,0 0.22,-0.01l17.8,0c0.27,0 0.52,-0.06 0.76,-0.17c0.25,-0.12 0.47,-0.29 0.67,-0.5c0.19,-0.22 0.35,-0.48 0.46,-0.76c0.1,-0.28 0.16,-0.58 0.16,-0.91c0,-0.32 -0.06,-0.63 -0.16,-0.91c-0.11,-0.29 -0.27,-0.55 -0.46,-0.77c-0.19,-0.21 -0.41,-0.38 -0.66,-0.5c-0.23,-0.11 -0.49,-0.17 -0.76,-0.17l0,0l-9.82,0l-0.05,0c-0.28,0 -0.51,-0.23 -0.51,-0.51l0,-2.37c0,-0.28 0.23,-0.51 0.51,-0.51l15.05,0c0.27,0 0.52,-0.06 0.76,-0.17s0.46,-0.27 0.64,-0.47l0.02,-0.03c0.19,-0.22 0.35,-0.48 0.46,-0.76c0.1,-0.28 0.16,-0.58 0.16,-0.91c0,-0.32 -0.06,-0.63 -0.16,-0.91c-0.11,-0.29 -0.27,-0.55 -0.46,-0.77c-0.19,-0.21 -0.41,-0.38 -0.67,-0.5c-0.23,-0.11 -0.49,-0.17 -0.76,-0.17l-15.05,0c-0.28,0 -0.51,-0.23 -0.51,-0.51l0,-2.51c0,-0.28 0.23,-0.51 0.51,-0.51l19.91,0c0.27,0 0.52,-0.06 0.76,-0.17c0.25,-0.12 0.48,-0.29 0.67,-0.5c0.19,-0.22 0.35,-0.48 0.46,-0.76c0.1,-0.28 0.16,-0.58 0.16,-0.91c0,-0.32 -0.06,-0.63 -0.16,-0.91s-0.25,-0.53 -0.44,-0.74l-0.02,-0.02c-0.19,-0.21 -0.42,-0.38 -0.66,-0.5c-0.23,-0.11 -0.49,-0.17 -0.76,-0.17l-19.9,0c-0.28,0 -0.51,-0.23 -0.51,-0.51l0,-2.45c0,-0.28 0.23,-0.51 0.51,-0.51l15,0c0.27,0 0.52,-0.06 0.76,-0.17c0.25,-0.12 0.48,-0.29 0.67,-0.5c0.19,-0.22 0.35,-0.48 0.46,-0.76c0.1,-0.28 0.16,-0.58 0.16,-0.91c0,-0.32 -0.06,-0.63 -0.16,-0.91c-0.11,-0.29 -0.26,-0.55 -0.46,-0.77c-0.19,-0.21 -0.42,-0.38 -0.67,-0.5c-0.23,-0.11 -0.49,-0.17 -0.76,-0.17c-3.46,0 -7.53,-0.02 -11.59,-0.03c-3.58,-0.01 -7.16,-0.03 -11.55,-0.03l-4.25,-0.26c-0.18,-0.01 -0.35,-0.12 -0.43,-0.3l-0.4,-0.9c-0.04,-0.07 -0.06,-0.15 -0.06,-0.24l0,0c0,-0.16 0.02,-0.32 0.06,-0.47c0.04,-0.14 0.1,-0.28 0.18,-0.42c0.16,-0.31 0.42,-0.69 0.72,-1.1c0.29,-0.38 0.64,-0.82 1.02,-1.27c0.73,-0.87 1.52,-1.75 1.86,-2.13l0.04,-0.05c0.59,-0.66 0.97,-1.31 1.16,-1.91c0.21,-0.65 0.22,-1.24 0.08,-1.74l0,0c-0.05,-0.18 -0.12,-0.35 -0.21,-0.5c-0.09,-0.16 -0.2,-0.3 -0.33,-0.43c-0.12,-0.13 -0.26,-0.23 -0.42,-0.32c-0.15,-0.1 -0.32,-0.17 -0.49,-0.22c-0.53,-0.14 -1.17,-0.08 -1.84,0.24c-0.62,0.3 -1.28,0.83 -1.92,1.63l-0.03,0.05l-0.08,0.09l-0.1,0.09c-0.34,0.37 -0.75,0.81 -1.25,1.35c-2.5,2.68 -7.18,7.7 -9.82,11.56c-0.03,0.04 -0.06,0.08 -0.1,0.12c-0.29,0.26 -0.6,0.5 -0.93,0.72c-0.33,0.21 -0.67,0.39 -1.04,0.52c-0.31,0.11 -0.62,0.2 -0.96,0.25c-0.32,0.05 -0.65,0.07 -0.99,0.06l-9.2,0l0,10.82l0,0l0,0.01c0,0.08 -0.01,0.16 -0.02,0.24l0,0c-0.01,0.04 -0.02,0.09 -0.02,0.13c0.01,0.13 0.03,0.27 0.03,0.42c0.03,0.2 0.04,0.37 0.04,0.53l0,0l0,0z" fill="#ffffff" id="svg_4"/>
    <path class="st0" d="m63.16,88.08l0,-7.91l-10.34,0c-2.44,0 -2.48,-0.08 -2.95,-0.86c-0.19,-0.32 -0.48,-0.81 -1.43,-1.6c-0.88,-0.73 -1.86,-1.3 -2.92,-1.69c-1.02,-0.38 -2.12,-0.58 -3.25,-0.58l-8.77,0l0,0c-0.07,0 -0.14,0 -0.22,0.01l-18.06,0c-0.27,0 -0.52,0.06 -0.76,0.17c-0.25,0.12 -0.47,0.29 -0.66,0.5c-0.19,0.22 -0.35,0.48 -0.46,0.76c-0.1,0.28 -0.16,0.58 -0.16,0.91c0,0.32 0.06,0.63 0.16,0.91c0.11,0.29 0.27,0.55 0.46,0.77c0.19,0.21 0.41,0.38 0.66,0.5c0.23,0.11 0.49,0.17 0.76,0.17l0,0l10.07,0l0.05,0c0.28,0 0.51,0.23 0.51,0.51l0,2.37c0,0.28 -0.23,0.51 -0.51,0.51l-15.3,0c-0.27,0 -0.52,0.06 -0.76,0.17c-0.25,0.12 -0.48,0.29 -0.67,0.5c-0.19,0.22 -0.35,0.48 -0.46,0.76c-0.1,0.28 -0.16,0.58 -0.16,0.91c0,0.32 0.06,0.63 0.16,0.91c0.11,0.29 0.27,0.55 0.46,0.77c0.19,0.21 0.41,0.38 0.67,0.5c0.23,0.11 0.49,0.17 0.76,0.17l15.29,0c0.28,0 0.51,0.23 0.51,0.51l0,2.51c0,0.28 -0.23,0.51 -0.51,0.51l-20.14,0c-0.27,0 -0.52,0.06 -0.76,0.17l0,0c-0.25,0.12 -0.48,0.29 -0.66,0.5c-0.19,0.22 -0.35,0.48 -0.46,0.77c-0.1,0.28 -0.16,0.58 -0.16,0.91c0,0.33 0.06,0.63 0.16,0.91c0.1,0.28 0.25,0.53 0.44,0.74l0.02,0.02c0.19,0.21 0.42,0.38 0.67,0.5c0.23,0.11 0.49,0.17 0.76,0.17l20.14,0c0.28,0 0.51,0.23 0.51,0.51l0,2.45c0,0.28 -0.23,0.51 -0.51,0.51l-15.25,0c-0.27,0 -0.52,0.06 -0.76,0.17l0,0c-0.24,0.11 -0.46,0.27 -0.64,0.47l-0.02,0.03c-0.19,0.22 -0.35,0.48 -0.46,0.76c-0.1,0.28 -0.16,0.58 -0.16,0.91c0,0.32 0.06,0.63 0.16,0.91c0.11,0.29 0.26,0.55 0.46,0.77c0.18,0.21 0.4,0.37 0.64,0.49l0.02,0.01c0.23,0.11 0.49,0.17 0.76,0.17c3.46,0 7.59,0.02 11.72,0.03c3.64,0.02 7.28,0.03 11.68,0.03l4.22,0.28c0.18,0.01 0.35,0.12 0.43,0.3l0.4,0.9c0.04,0.07 0.06,0.15 0.06,0.24l0,0c0,0.16 -0.02,0.32 -0.06,0.47c-0.04,0.14 -0.1,0.28 -0.18,0.42c-0.16,0.31 -0.42,0.69 -0.72,1.1c-0.29,0.38 -0.64,0.82 -1.02,1.27c-0.74,0.88 -1.53,1.77 -1.86,2.14l-0.03,0.04c-0.59,0.66 -0.97,1.31 -1.16,1.91c-0.21,0.65 -0.22,1.24 -0.08,1.74l0,0c0.05,0.18 0.12,0.35 0.21,0.5c0.09,0.16 0.2,0.3 0.33,0.43c0.12,0.13 0.26,0.23 0.42,0.32c0.15,0.09 0.32,0.16 0.49,0.2c0.53,0.14 1.17,0.08 1.84,-0.24c0.62,-0.3 1.28,-0.83 1.92,-1.63l0.03,-0.05l0.08,-0.09l0.07,-0.08c0.34,-0.37 0.75,-0.81 1.25,-1.35c2.5,-2.68 7.18,-7.7 9.82,-11.56c0.03,-0.04 0.06,-0.08 0.1,-0.12c0.29,-0.26 0.6,-0.51 0.93,-0.72c0.33,-0.21 0.67,-0.39 1.04,-0.52c0.31,-0.11 0.62,-0.2 0.96,-0.25c0.32,-0.05 0.65,-0.07 0.99,-0.06l9.2,0l0,-10.82l0,0l0,-0.01c0,-0.08 0.01,-0.16 0.02,-0.24l0,0c0.01,-0.04 0.02,-0.09 0.02,-0.13c-0.01,-0.13 -0.03,-0.27 -0.03,-0.42c-0.02,-0.22 -0.02,-0.39 -0.02,-0.55l0,0l0,0z" fill="#ffffff" id="svg_5" transform="matrix(1, 0, 0, 1, 0, 0)"/>
    <path class="st4" d="m20.15,56.77l0,15.28l12.11,0l0,0l0.01,0c0.08,0 0.16,0.01 0.24,0.02c0.04,0.01 0.08,0.01 0.11,0.02c0.12,-0.01 0.25,-0.02 0.38,-0.03l0,0c0.17,-0.01 0.34,-0.02 0.49,-0.02l6.71,0l0,-16.52c0,-2.58 0.08,-2.63 0.85,-3.12c0.32,-0.2 0.82,-0.52 1.6,-1.54c0.73,-0.94 1.3,-2 1.7,-3.14c0.38,-1.1 0.58,-2.28 0.58,-3.5l0,-9.39l0,0c0,-0.08 0,-0.15 -0.01,-0.23l0,-18.35c0,-0.29 -0.06,-0.57 -0.16,-0.82l-0.01,-0.02c-0.12,-0.27 -0.29,-0.52 -0.51,-0.73c-0.21,-0.2 -0.46,-0.37 -0.74,-0.48l-0.02,-0.01c-0.27,-0.11 -0.58,-0.17 -0.9,-0.17c-0.32,0 -0.62,0.06 -0.9,0.17c-0.29,0.11 -0.55,0.28 -0.76,0.49c-0.22,0.21 -0.39,0.45 -0.51,0.72c-0.11,0.26 -0.17,0.54 -0.17,0.84l0,0l0,9.8l0,0.05c0,0.28 -0.23,0.51 -0.51,0.51l-2.37,0c-0.28,0 -0.51,-0.23 -0.51,-0.51l0,-15.38c0,-0.3 -0.06,-0.58 -0.17,-0.84c-0.12,-0.27 -0.29,-0.52 -0.51,-0.72l0,0c-0.22,-0.21 -0.47,-0.38 -0.76,-0.49c-0.27,-0.11 -0.58,-0.17 -0.9,-0.17c-0.32,0 -0.62,0.06 -0.9,0.17c-0.29,0.11 -0.55,0.28 -0.76,0.49c-0.22,0.21 -0.39,0.45 -0.51,0.72c-0.11,0.26 -0.17,0.54 -0.17,0.84l0,15.39c0,0.28 -0.23,0.51 -0.51,0.51l-2.51,0c-0.28,0 -0.51,-0.23 -0.51,-0.51l0,-20.58c0,-0.29 -0.06,-0.57 -0.16,-0.82l-0.01,-0.02c-0.12,-0.27 -0.29,-0.52 -0.51,-0.72c-0.22,-0.21 -0.48,-0.38 -0.76,-0.49c-0.27,-0.11 -0.58,-0.17 -0.9,-0.17c-0.31,0 -0.61,0.06 -0.87,0.16l-0.02,0c-0.29,0.11 -0.55,0.28 -0.76,0.49c-0.22,0.21 -0.39,0.45 -0.51,0.72c-0.11,0.26 -0.17,0.54 -0.17,0.84l0,20.59c0,0.28 -0.23,0.51 -0.51,0.51l-2.45,0c-0.28,0 -0.51,-0.23 -0.51,-0.51l0,-15.34c0,-0.3 -0.06,-0.58 -0.17,-0.84c-0.12,-0.27 -0.3,-0.52 -0.51,-0.72c-0.22,-0.21 -0.47,-0.38 -0.76,-0.49c-0.27,-0.11 -0.58,-0.17 -0.9,-0.17c-0.32,0 -0.62,0.06 -0.9,0.17c-0.28,0.11 -0.53,0.27 -0.74,0.47l-0.02,0.02c-0.22,0.21 -0.39,0.45 -0.51,0.73c-0.11,0.26 -0.17,0.54 -0.17,0.84c0,3.72 -0.02,7.89 -0.03,12.05c-0.02,3.67 -0.03,7.33 -0.03,12.01l-0.28,4.52c-0.01,0.18 -0.12,0.35 -0.29,0.43l-0.9,0.42c-0.08,0.04 -0.16,0.07 -0.26,0.07l0,0c-0.16,0 -0.32,-0.02 -0.48,-0.07c-0.16,-0.05 -0.31,-0.11 -0.44,-0.2c-0.3,-0.17 -0.68,-0.44 -1.08,-0.76c-0.42,-0.34 -0.85,-0.71 -1.27,-1.08c-0.89,-0.8 -1.82,-1.69 -2.17,-2.03l0,0c-0.66,-0.63 -1.31,-1.03 -1.91,-1.25c-0.64,-0.22 -1.23,-0.24 -1.72,-0.09c-0.17,0.05 -0.34,0.13 -0.5,0.23l0,0c-0.16,0.1 -0.3,0.21 -0.43,0.35l0,0c-0.13,0.13 -0.24,0.29 -0.33,0.45c-0.09,0.18 -0.16,0.36 -0.21,0.55c-0.15,0.59 -0.09,1.28 0.25,2.02c0.31,0.68 0.84,1.38 1.65,2.08l0.04,0.03l0.09,0.08l0.06,0.06c0.33,0.32 0.79,0.78 1.37,1.36c2.68,2.68 7.7,7.69 11.56,10.51c0.04,0.03 0.08,0.06 0.12,0.1c0.27,0.31 0.5,0.64 0.71,0.99c0.21,0.35 0.38,0.72 0.52,1.1c0.11,0.33 0.2,0.66 0.25,1.01c0.05,0.33 0.07,0.68 0.06,1.05l-0.02,0.01l0,0l0,0z" fill="#ffffff" id="svg_6" transform="matrix(1, 0, 0, 1, 0, 0)"/>
   </g>
   <path class="st0" id="svg_7"/>
  </g>
 </g>
</svg>