<?xml version="1.0"?>
<svg viewBox="0 0 803 1021" xmlns="http://www.w3.org/2000/svg" xmlns:svg="http://www.w3.org/2000/svg">
 <!-- Created with SVG-edit - https://github.com/SVG-Edit/svgedit-->

 <g class="layer">
  <title>Layer 1</title>
  <g id="channel-SN" transform="translate(-170, -1.56)">
   <g id="svg_8" transform="translate(170, 0) matrix(2.32792, 0, 0, 2.41129, -249.093, -326.377)">
    <path d="m1000,199.3c-172.92,0 -338.86,68.73 -461.13,191.01c-122.28,122.27 -191.01,288.21 -191.01,461.13c0,245.45 138.11,468.53 353.25,579.5l0,368.78l596.98,0l0,-368.37c215.57,-110.81 354.06,-334.13 354.06,-579.91c0,-172.92 -68.74,-338.86 -191.01,-461.13c-122.28,-122.28 -288.21,-191.01 -461.14,-191.01zm0,90.88c148.86,0 291.62,59.14 396.87,164.39c105.26,105.26 164.39,248.02 164.39,396.87c0,230 -140.31,436.71 -354.06,521.62l0,335.02l-415.2,0l0,-335.34c-213.32,-85.12 -353.26,-291.62 -353.26,-521.3c0,-148.85 59.13,-291.61 164.39,-396.87c105.26,-105.25 248.02,-164.39 396.87,-164.39z" fill="#ffffff" id="svg_9" transform="matrix(0.264583, 0, 0, 0.264583, -166.695, -58.8524) matrix(1, 0, 0, 1, 686.582, 537.151)"/>
    <path d="m794,773.4c-113.17,0 -206.87,93.68 -206.87,206.85c0,113.17 93.7,206.86 206.87,206.86c113.16,0 206.85,-93.69 206.85,-206.86c0,-113.17 -93.69,-206.85 -206.85,-206.85zm-0.01,90.88c64.06,0 115.98,51.92 115.98,115.97c0,64.05 -51.92,115.97 -115.98,115.97c-64.05,0 -115.97,-51.92 -115.97,-115.97c0,-64.05 51.92,-115.97 115.97,-115.97z" fill="#ffffff" id="svg_10" transform="matrix(0.264583, 0, 0, 0.264583, -166.695, -58.8524) matrix(1, 0, 0, 1, 686.582, 537.151)"/>
    <path d="m368.29,321.71c5.65,7.84 11.33,16.32 14.85,23.35c2.51,5.02 4.12,9.01 4.12,13.31c0,9.79 -7.7,19.39 -18.97,19.39c-11.26,0 -18.99,-9.57 -18.99,-19.39c0,-4.56 2.27,-9.32 4.24,-13.31c3.14,-6.37 8.87,-15.42 14.75,-23.35z" fill="#ffffff" id="svg_11"/>
    <path d="m297.09,342.62l0,90.65l23.96,0l0,-90.65l-23.96,0z" fill="#ffffff" id="svg_12"/>
    <path d="m832.16,1383.13l0,281.86l90.75,0l0,-191.11l246.02,0l0,-90.75l-336.77,0z" fill="#ffffff" id="svg_13" transform="matrix(0.264583, 0, 0, 0.264583, -166.695, -58.8524) matrix(1, 0, 0, 1, 686.582, 537.151)"/>
   </g>
  </g>
 </g>
</svg>